<svg xmlns="http://www.w3.org/2000/svg" version="1.1" xmlns:xlink="http://www.w3.org/1999/xlink" width="512" height="512" x="0" y="0" viewBox="0 0 64 64" style="enable-background:new 0 0 512 512" xml:space="preserve" class=""><g><path d="M60.6 1.82H3.39A3.39 3.39 0 0 0 0 5.21v40.7a3.39 3.39 0 0 0 3.39 3.39H23v7.08l-3.68 1.74a.78.78 0 0 0-.45.7v2.58a.78.78 0 0 0 .78.78h24.68a.78.78 0 0 0 .78-.78v-2.58a.75.75 0 0 0-.45-.7L41 56.38V49.3h19.6a3.4 3.4 0 0 0 3.4-3.39V5.21a3.4 3.4 0 0 0-3.4-3.39ZM39.42 56.39H24.57V49.3h14.85Zm-9.37-11.94A2.56 2.56 0 1 1 32.6 47a2.56 2.56 0 0 1-2.55-2.55Zm32.39-4.56H1.56V5.21a1.83 1.83 0 0 1 1.83-1.83H60.6a1.83 1.83 0 0 1 1.84 1.83Z" fill="#ffffff" opacity="1" data-original="#000000" class=""></path><path d="M34.19 44.45A1.59 1.59 0 1 0 32.6 46a1.59 1.59 0 0 0 1.59-1.55ZM55.14 6.51H8.85a.78.78 0 0 0 0 1.56h46.29a.78.78 0 1 0 0-1.56ZM55.14 35.43H8.85a.78.78 0 1 0 0 1.56h46.29a.78.78 0 0 0 0-1.56ZM9.5 15.19a.78.78 0 0 0-.78.78v7.76a4.37 4.37 0 0 0 8.74 0V16a.79.79 0 0 0-1.57 0v7.76a2.81 2.81 0 1 1-5.61 0V16a.78.78 0 0 0-.78-.81ZM20.54 27.56a.77.77 0 0 0 .39.46.85.85 0 0 0 .35.08.78.78 0 0 0 .7-.42l2.18-4.29 2.12 4.32a.76.76 0 0 0 .7.43.72.72 0 0 0 .35-.08.8.8 0 0 0 .39-.44.74.74 0 0 0 0-.6l-2.63-5.37 2.71-5.33a.77.77 0 0 0-.34-1.05.73.73 0 0 0-.35-.09.79.79 0 0 0-.7.43l-2.22 4.29-2.12-4.32a.79.79 0 0 0-.7-.44.85.85 0 0 0-.35.08.79.79 0 0 0-.39.45.74.74 0 0 0 0 .6l2.63 5.37L20.59 27a.76.76 0 0 0-.05.56ZM42.67 15.19a.78.78 0 0 0-.78.78v7.76a4.37 4.37 0 0 0 8.74 0V16a.78.78 0 0 0-1.56 0v7.76a2.81 2.81 0 0 1-5.62 0V16a.78.78 0 0 0-.78-.81ZM32 32.17a.79.79 0 0 0 .73-.5L40 12.28a.78.78 0 0 0-.46-1 .81.81 0 0 0-.27 0 .78.78 0 0 0-.73.51l-7.28 19.33a.78.78 0 0 0 .46 1 .66.66 0 0 0 .28.05ZM55.38 27.32V16a.78.78 0 0 0-1.56 0v11.32a.78.78 0 0 0 1.56 0Z" fill="#ffffff" opacity="1" data-original="#000000" class=""></path></g></svg>