<svg width="42" height="42" viewBox="0 0 42 42" fill="none" xmlns="http://www.w3.org/2000/svg">
<g id="design 1">
<g id="Group">
<path id="Vector" d="M39.7687 1.1944H2.22469C1.63466 1.1944 1.06881 1.42878 0.651596 1.84599C0.234386 2.2632 0 2.82906 0 3.41908L0 30.1285C0 30.7185 0.234386 31.2843 0.651596 31.7015C1.06881 32.1188 1.63466 32.3531 2.22469 32.3531H15.0938V36.9994L12.6788 38.1413C12.5912 38.1822 12.517 38.247 12.4647 38.3283C12.4125 38.4096 12.3843 38.504 12.3834 38.6006V40.2938C12.3834 40.4295 12.4374 40.5597 12.5334 40.6557C12.6294 40.7517 12.7596 40.8056 12.8953 40.8056H29.0916C29.2273 40.8056 29.3575 40.7517 29.4535 40.6557C29.5495 40.5597 29.6034 40.4295 29.6034 40.2938V38.6006C29.6051 38.5035 29.5779 38.408 29.5253 38.3262C29.4728 38.2445 29.3972 38.1801 29.3081 38.1413L26.9062 36.9994V32.3531H39.7687C40.3594 32.3531 40.9259 32.119 41.3442 31.702C41.7624 31.2849 41.9983 30.7191 42 30.1285V3.41908C41.9983 2.82846 41.7624 2.26262 41.3442 1.84559C40.9259 1.42857 40.3594 1.19439 39.7687 1.1944ZM25.8694 37.006H16.1241V32.3531H25.8694V37.006ZM19.7203 29.1703C19.719 28.8375 19.8166 28.5118 20.0007 28.2345C20.1848 27.9572 20.4471 27.7409 20.7544 27.6129C21.0616 27.485 21.3999 27.4511 21.7264 27.5157C22.0529 27.5804 22.3529 27.7405 22.5882 27.9758C22.8236 28.2112 22.9837 28.5111 23.0483 28.8376C23.113 29.1641 23.0791 29.5025 22.9512 29.8097C22.8232 30.117 22.6068 30.3793 22.3296 30.5634C22.0523 30.7475 21.7266 30.8451 21.3937 30.8438C20.9505 30.842 20.5258 30.6652 20.2124 30.3517C19.8989 30.0383 19.722 29.6136 19.7203 29.1703ZM40.9762 26.1778H1.02375V3.41908C1.02375 3.10058 1.15028 2.79511 1.3755 2.56989C1.60072 2.34467 1.90618 2.21815 2.22469 2.21815H39.7687C39.927 2.21728 40.0839 2.24771 40.2303 2.30767C40.3768 2.36764 40.51 2.45596 40.6222 2.56756C40.7344 2.67917 40.8234 2.81185 40.8842 2.95798C40.945 3.10412 40.9762 3.26082 40.9762 3.41908V26.1778Z" fill="white" fill-opacity="0.5"/>
<path id="Vector_2" d="M22.4371 29.1703C22.4424 28.9629 22.3856 28.7587 22.2742 28.5837C22.1628 28.4087 22.0017 28.2708 21.8115 28.1878C21.6214 28.1048 21.4108 28.0804 21.2067 28.1176C21.0026 28.1549 20.8142 28.2521 20.6657 28.3969C20.5171 28.5418 20.4151 28.7276 20.3727 28.9307C20.3302 29.1338 20.3493 29.3449 20.4274 29.5371C20.5056 29.7293 20.6393 29.8938 20.8114 30.0097C20.9835 30.1255 21.1862 30.1875 21.3937 30.1875C21.666 30.1876 21.9275 30.0813 22.1224 29.8913C22.3174 29.7012 22.4303 29.4425 22.4371 29.1703ZM36.1856 4.27222H5.80777C5.67202 4.27222 5.54182 4.32615 5.44582 4.42214C5.34983 4.51814 5.2959 4.64833 5.2959 4.78409C5.2959 4.91985 5.34983 5.05005 5.44582 5.14604C5.54182 5.24204 5.67202 5.29597 5.80777 5.29597H36.1856C36.3213 5.29597 36.4515 5.24204 36.5475 5.14604C36.6435 5.05005 36.6975 4.91985 36.6975 4.78409C36.6975 4.64833 36.6435 4.51814 36.5475 4.42214C36.4515 4.32615 36.3213 4.27222 36.1856 4.27222ZM36.1856 23.251H5.80777C5.67202 23.251 5.54182 23.3049 5.44582 23.4009C5.34983 23.4969 5.2959 23.6271 5.2959 23.7628C5.2959 23.8986 5.34983 24.0288 5.44582 24.1248C5.54182 24.2208 5.67202 24.2747 5.80777 24.2747H36.1856C36.3213 24.2747 36.4515 24.2208 36.5475 24.1248C36.6435 24.0288 36.6975 23.8986 36.6975 23.7628C36.6975 23.6271 36.6435 23.4969 36.5475 23.4009C36.4515 23.3049 36.3213 23.251 36.1856 23.251ZM6.23434 9.96847C6.09858 9.96847 5.96838 10.0224 5.87239 10.1184C5.77639 10.2144 5.72246 10.3446 5.72246 10.4803V15.5728C5.72246 16.3334 6.02461 17.0629 6.56242 17.6007C7.10024 18.1385 7.82968 18.4407 8.59027 18.4407C9.35086 18.4407 10.0803 18.1385 10.6181 17.6007C11.1559 17.0629 11.4581 16.3334 11.4581 15.5728V10.5C11.4438 10.3734 11.3833 10.2565 11.2883 10.1716C11.1933 10.0867 11.0703 10.0398 10.9429 10.0398C10.8155 10.0398 10.6926 10.0867 10.5975 10.1716C10.5025 10.2565 10.4421 10.3734 10.4278 10.5V15.5925C10.4428 15.8435 10.4063 16.0949 10.3205 16.3313C10.2348 16.5676 10.1017 16.784 9.92925 16.967C9.75685 17.15 9.54884 17.2958 9.31802 17.3955C9.08719 17.4951 8.83842 17.5466 8.58699 17.5466C8.33557 17.5466 8.08679 17.4951 7.85597 17.3955C7.62514 17.2958 7.41713 17.15 7.24473 16.967C7.07233 16.784 6.93917 16.5676 6.85344 16.3313C6.76771 16.0949 6.73122 15.8435 6.74621 15.5925V10.5C6.74886 10.4312 6.73758 10.3625 6.71305 10.2981C6.68851 10.2337 6.65123 10.1749 6.60343 10.1253C6.55563 10.0756 6.4983 10.0362 6.43488 10.0092C6.37146 9.98228 6.30325 9.96842 6.23434 9.96847ZM13.4793 18.0863C13.4995 18.1512 13.5325 18.2114 13.5765 18.2633C13.6205 18.3152 13.6745 18.3576 13.7353 18.3882C13.8072 18.4218 13.8855 18.4397 13.965 18.4407C14.0595 18.4416 14.1525 18.4164 14.2336 18.3677C14.3147 18.3191 14.3807 18.2489 14.4243 18.165L15.855 15.3497L17.2462 18.1847C17.2877 18.2708 17.353 18.3432 17.4345 18.3932C17.5159 18.4433 17.61 18.4688 17.7056 18.4669C17.7854 18.4691 17.8644 18.451 17.9353 18.4144C18.0541 18.3541 18.1456 18.2509 18.1912 18.1257C18.2187 18.0637 18.2329 17.9966 18.2329 17.9288C18.2329 17.861 18.2187 17.7939 18.1912 17.7319L16.4653 14.2078L18.2437 10.71C18.2752 10.6503 18.2945 10.5849 18.3003 10.5176C18.3061 10.4504 18.2984 10.3826 18.2776 10.3184C18.2568 10.2542 18.2234 10.1947 18.1792 10.1437C18.1351 10.0926 18.0811 10.0509 18.0206 10.021C17.9502 9.98234 17.8712 9.96203 17.7909 9.9619C17.6958 9.96229 17.6027 9.98882 17.5216 10.0386C17.4406 10.0884 17.3749 10.1595 17.3315 10.2441L15.8746 13.0594L14.4834 10.2244C14.441 10.1385 14.3756 10.0661 14.2945 10.0151C14.2134 9.96417 14.1198 9.93666 14.024 9.93565C13.9446 9.9366 13.8663 9.9545 13.7943 9.98815C13.6738 10.0494 13.5819 10.1554 13.5384 10.2835C13.5109 10.3455 13.4967 10.4125 13.4967 10.4803C13.4967 10.5482 13.5109 10.6152 13.5384 10.6772L15.2643 14.2013L13.5121 17.7188C13.4546 17.8326 13.4429 17.9641 13.4793 18.0863ZM28.0021 9.96847C27.8664 9.96847 27.7362 10.0224 27.6402 10.1184C27.5442 10.2144 27.4903 10.3446 27.4903 10.4803V15.5728C27.4903 16.3334 27.7924 17.0629 28.3302 17.6007C28.8681 18.1385 29.5975 18.4407 30.3581 18.4407C31.1187 18.4407 31.8481 18.1385 32.3859 17.6007C32.9238 17.0629 33.2259 16.3334 33.2259 15.5728V10.5C33.2259 10.3643 33.172 10.2341 33.076 10.1381C32.98 10.0421 32.8498 9.98815 32.714 9.98815C32.5783 9.98815 32.4481 10.0421 32.3521 10.1381C32.2561 10.2341 32.2021 10.3643 32.2021 10.5V15.5925C32.2021 16.0816 32.0079 16.5506 31.662 16.8965C31.3162 17.2423 30.8472 17.4366 30.3581 17.4366C29.869 17.4366 29.4 17.2423 29.0541 16.8965C28.7083 16.5506 28.514 16.0816 28.514 15.5925V10.5C28.5167 10.4312 28.5054 10.3625 28.4809 10.2981C28.4563 10.2337 28.419 10.1749 28.3712 10.1253C28.3234 10.0756 28.2661 10.0362 28.2027 10.0092C28.1393 9.98228 28.0711 9.96842 28.0021 9.96847ZM21 21.1116C21.1034 21.111 21.2044 21.0794 21.2897 21.0209C21.3751 20.9624 21.441 20.8797 21.479 20.7835L26.25 8.05878C26.2967 7.93171 26.2911 7.79131 26.2345 7.66832C26.178 7.54533 26.075 7.44976 25.9481 7.40253C25.8894 7.39262 25.8295 7.39262 25.7709 7.40253C25.6664 7.40277 25.5645 7.43496 25.4789 7.49479C25.3933 7.55462 25.328 7.63921 25.2918 7.73722L20.5143 20.4225C20.4676 20.5496 20.4732 20.69 20.5298 20.813C20.5863 20.936 20.6893 21.0315 20.8162 21.0788C20.8743 21.1029 20.9371 21.1141 21 21.1116ZM36.3431 17.9288V10.5C36.3431 10.3643 36.2892 10.2341 36.1932 10.1381C36.0972 10.0421 35.967 9.98815 35.8312 9.98815C35.6955 9.98815 35.5653 10.0421 35.4693 10.1381C35.3733 10.2341 35.3193 10.3643 35.3193 10.5V17.9288C35.3193 18.0645 35.3733 18.1947 35.4693 18.2907C35.5653 18.3867 35.6955 18.4407 35.8312 18.4407C35.967 18.4407 36.0972 18.3867 36.1932 18.2907C36.2892 18.1947 36.3431 18.0645 36.3431 17.9288Z" fill="white" fill-opacity="0.5"/>
</g>
</g>
</svg>
