<svg width="42" height="42" viewBox="0 0 42 42" fill="none" xmlns="http://www.w3.org/2000/svg">
<g id="figma (1) 1">
<g id="Group">
<g id="Rectangle_55_x5F_2">
<path id="Vector" d="M32.0455 14.4293C34.1848 13.0233 35.5999 10.6025 35.5999 7.85777C35.5999 3.52488 32.0742 0 27.7413 0H14.2586C9.92573 0 6.40002 3.52488 6.40002 7.85777C6.40002 10.6025 7.81506 13.0233 9.95444 14.4293C7.81506 15.8345 6.40002 18.2552 6.40002 21C6.40002 23.7448 7.81506 26.1655 9.95444 27.5715C7.81506 28.9759 6.40002 31.3975 6.40002 34.1422C6.40002 38.4751 9.9446 42 14.3005 42C18.7039 42 22.287 38.4366 22.287 34.0569V26.8103C23.6832 28.0826 25.5379 28.8578 27.5707 28.8578H27.7413C32.0742 28.8578 35.5999 25.3329 35.5999 21C35.5999 18.2552 34.1848 15.8345 32.0455 14.4293ZM22.287 2.57414H27.7413C30.655 2.57414 33.0257 4.94402 33.0257 7.85777C33.0257 10.7715 30.655 13.1422 27.7413 13.1422H22.287V2.57414ZM8.97417 7.85777C8.97417 4.94402 11.3449 2.57414 14.2586 2.57414H19.7129V13.1422H14.2586C11.3449 13.1422 8.97417 10.7715 8.97417 7.85777ZM8.97417 21C8.97417 18.0862 11.3449 15.7164 14.2586 15.7164H19.7129V26.2845H14.225C11.3268 26.2664 8.97417 23.9023 8.97417 21ZM19.7129 34.0569C19.7129 37.0174 17.2848 39.4259 14.3005 39.4259C11.3637 39.4259 8.97417 37.056 8.97417 34.1422C8.97417 31.2285 11.3449 28.8578 14.2586 28.8578H19.7129V34.0569ZM27.7413 26.2845H27.5707C24.6569 26.2845 22.287 23.9138 22.287 21C22.287 18.0862 24.6569 15.7164 27.5707 15.7164H27.7413C30.655 15.7164 33.0257 18.0862 33.0257 21C33.0257 23.9138 30.655 26.2845 27.7413 26.2845Z" fill="white"/>
</g>
<g id="Rectangle_55_x5F_4">
<path id="Vector_2" d="M14.2585 26.2836C14.247 26.2836 14.2363 26.2836 14.2249 26.2845H19.7127V26.2836H14.2585Z" fill="white"/>
</g>
</g>
</g>
</svg>
