<svg width="42" height="42" viewBox="0 0 42 42" fill="none" xmlns="http://www.w3.org/2000/svg">
<g id="figma (1) 1">
<g id="Group">
<g id="Rectangle_55_x5F_2">
<path id="Vector" d="M31.6454 14.4293C33.7848 13.0233 35.1998 10.6025 35.1998 7.85777C35.1998 3.52488 31.6741 0 27.3413 0H13.8586C9.5257 0 6 3.52488 6 7.85777C6 10.6025 7.41504 13.0233 9.55441 14.4293C7.41504 15.8345 6 18.2552 6 21C6 23.7448 7.41504 26.1655 9.55441 27.5715C7.41504 28.9759 6 31.3975 6 34.1422C6 38.4751 9.54457 42 13.9004 42C18.3039 42 21.887 38.4366 21.887 34.0569V26.8103C23.2832 28.0826 25.1379 28.8578 27.1706 28.8578H27.3413C31.6741 28.8578 35.1998 25.3329 35.1998 21C35.1998 18.2552 33.7848 15.8345 31.6454 14.4293ZM21.887 2.57414H27.3413C30.255 2.57414 32.6257 4.94402 32.6257 7.85777C32.6257 10.7715 30.255 13.1422 27.3413 13.1422H21.887V2.57414ZM8.57414 7.85777C8.57414 4.94402 10.9448 2.57414 13.8586 2.57414H19.3129V13.1422H13.8586C10.9448 13.1422 8.57414 10.7715 8.57414 7.85777ZM8.57414 21C8.57414 18.0862 10.9448 15.7164 13.8586 15.7164H19.3129V26.2845H13.825C10.9268 26.2664 8.57414 23.9023 8.57414 21ZM19.3129 34.0569C19.3129 37.0174 16.8847 39.4259 13.9004 39.4259C10.9637 39.4259 8.57414 37.056 8.57414 34.1422C8.57414 31.2285 10.9448 28.8578 13.8586 28.8578H19.3129V34.0569ZM27.3413 26.2845H27.1706C24.2569 26.2845 21.887 23.9138 21.887 21C21.887 18.0862 24.2569 15.7164 27.1706 15.7164H27.3413C30.255 15.7164 32.6257 18.0862 32.6257 21C32.6257 23.9138 30.255 26.2845 27.3413 26.2845Z" fill="white" fill-opacity="0.5"/>
</g>
<g id="Rectangle_55_x5F_4">
<path id="Vector_2" d="M14.2585 26.2836C14.247 26.2836 14.2363 26.2836 14.2249 26.2845H19.7127V26.2836H14.2585Z" fill="white"/>
</g>
</g>
</g>
</svg>
