<svg id="Capa_1" enable-background="new 0 0 512 512" viewBox="0 0 512 512" xmlns="http://www.w3.org/2000/svg"><g><g><path d="m339.74 409.77-119.32 50 8.98 10.16h-56.29v-115.58h166.63z" fill="#229bff"/><g><path d="m512 298.77v59.3c0 11.04-8.95 20-20 20h-32.05l-77.16-17.97-72.57 17.97h-74.94l-9.92-18.14-19.8 18.14h-185.56c-11.05 0-20-8.96-20-20v-59.3l263.59-43.19z" fill="#7cbaf7"/><path d="m285.223 353.069c0 13.807 11.193 25 25 25h149.723c13.807 0 25-11.193 25-25 0-13.807-11.193-25-25-25h-149.723c-13.807 0-25 11.193-25 25z" fill="#48acff"/><path d="m345.223 353.069c0 13.807 11.193 25 25 25h49.723c13.807 0 25-11.193 25-25 0-13.807-11.193-25-25-25h-49.723c-13.807 0-25 11.193-25 25z" fill="#229bff"/><path d="m180.558 353.069c0 13.807 11.193 25 25 25h29.723c13.807 0 25-11.193 25-25 0-13.807-11.193-25-25-25h-29.723c-13.807 0-25 11.193-25 25z" fill="#48acff"/><path d="m339.745 409.77h-119.326c-13.807 0-25 11.193-25 25 0 13.807 11.193 25 25 25h119.325v-50z" fill="#037cff"/><path d="m294.324 409.77h-27.719c-13.807 0-25 11.193-25 25 0 13.807 11.193 25 25 25h27.719c13.807 0 25-11.193 25-25 0-13.807-11.193-25-25-25z" fill="#0066f9"/><path d="m512 42.23v169.44l-35.46 62.1-176.46 25h-74.16l-22.42-25-22.41 25h-181.09v-256.54c0-11.05 8.95-20 20-20h46.8l89.29 25 75.14-25h88.12l18.28 17.36 18.27-17.36h136.1c11.05 0 20 8.95 20 20z" fill="#ff5ad0"/><g><path d="m462 211.668v37.104h-161.918c-13.807 0-25 11.193-25 25 0 13.807 11.193 25 25 25h211.918v-87.104c0-13.807-11.193-25-25-25-13.807.001-25 11.193-25 25z" fill="#f91ed0"/></g><g><path d="m225.916 248.772h-44.266c-14.016 0-25.824 11.47-25.558 25.483.258 13.584 11.35 24.517 24.995 24.517h44.829c13.807 0 25-11.193 25-25 0-13.807-11.193-25-25-25z" fill="#f91ed0"/></g><g><path d="m433.174 248.772h-82.923c-13.807 0-25 11.193-25 25 0 13.807 11.193 25 25 25h82.923c13.807 0 25-11.193 25-25 0-13.807-11.193-25-25-25z" fill="#e800c7"/></g><path d="m256.23 47.23c0 13.81-11.2 25-25 25h-71.39l-18.27-11.69-18.28 11.69h-56.49c-6.9 0-13.16-2.8-17.68-7.32-4.52-4.53-7.32-10.77-7.32-17.68 0-13.81 11.19-25 25-25h56.49l21.85 10.86 14.7-10.86h71.39c6.9 0 13.15 2.8 17.67 7.32 4.53 4.53 7.33 10.77 7.33 17.68z" fill="#ff97eb"/><path d="m159.841 22.23h-36.551c-13.807 0-25 11.193-25 25 0 13.807 11.193 25 25 25h36.551c13.807 0 25-11.193 25-25 0-13.807-11.193-25-25-25z" fill="#ffc5f7"/><path d="m355.901 22.23h-36.551c-13.807 0-25 11.193-25 25 0 13.807 11.193 25 25 25h36.551c13.807 0 25-11.193 25-25 0-13.807-11.193-25-25-25z" fill="#ff97eb"/></g><path d="m357.717 489.77h-202.58c-5.523 0-10-4.477-10-10v-10c0-5.523 4.477-10 10-10h202.581c5.523 0 10 4.477 10 10v10c-.001 5.523-4.478 10-10.001 10z" fill="#7cbaf7"/></g><g fill="#f8fffc"><g><g><path d="m342.256 199.735c0 2.219-1.799 4.019-4.019 4.019h-19.335c-2.219 0-4.019-1.799-4.019-4.019v-74.703c0-3.866-3.134-7-7-7h-16c-3.866 0-7 3.134-7 7v74.703c0 18.788 15.231 34.019 34.019 34.019h19.335c18.788 0 34.019-15.231 34.019-34.019v-74.703c0-3.866-3.134-7-7-7h-16c-3.866 0-7 3.134-7 7z"/><path d="m482.049 129.492-13.681-10.689c-3.306-2.583-8.079-1.996-10.662 1.309l-22.269 28.503-22.269-28.503c-2.583-3.306-7.356-3.892-10.662-1.309l-13.681 10.689c-3.306 2.583-3.892 7.356-1.309 10.662l27.266 34.899-27.266 34.899c-2.583 3.306-1.996 8.079 1.309 10.662l13.681 10.689c3.306 2.583 8.079 1.997 10.662-1.309l22.269-28.503 22.269 28.503c2.583 3.306 7.356 3.892 10.662 1.309l13.681-10.689c3.306-2.583 3.892-7.356 1.309-10.662l-27.266-34.899 27.266-34.899c2.583-3.306 1.997-8.079-1.309-10.662z"/></g><g><path d="m84.404 199.315c0 2.219-1.799 4.019-4.019 4.019h-19.335c-2.219 0-4.019-1.799-4.019-4.019v-74.703c0-3.866-3.134-7-7-7h-16c-3.866 0-7 3.134-7 7v74.703c0 18.788 15.231 34.019 34.019 34.019h19.335c18.788 0 34.019-15.231 34.019-34.019v-74.703c0-3.866-3.134-7-7-7h-16c-3.866 0-7 3.134-7 7z"/><path d="m140.168 231.654h16c3.866 0 7-3.134 7-7v-100.042c0-3.866-3.134-7-7-7h-16c-3.866 0-7 3.134-7 7v100.042c0 3.866 3.134 7 7 7z"/></g></g><path d="m233.305 108.941-41.438 124.566c-1.22 3.668.764 7.631 4.433 8.852l12.26 4.078c3.668 1.22 7.631-.764 8.852-4.433l41.438-124.566c1.22-3.668-.764-7.631-4.433-8.852l-12.26-4.078c-3.669-1.22-7.632.765-8.852 4.433z"/></g></g><g/><g/><g/><g/><g/><g/><g/><g/><g/><g/><g/><g/><g/><g/><g/></svg>