<svg width="88" height="87" viewBox="0 0 88 87" fill="none" xmlns="http://www.w3.org/2000/svg">
<g id="button-chamada">
<path id="chamada" d="M44 0C68.0244 0 87.5 19.4756 87.5 43.5C87.5 67.5244 68.0244 87 44 87C19.9756 87 0.5 67.5244 0.5 43.5C0.5 19.4756 19.9756 0 44 0ZM44 1.85059C20.9979 1.85059 2.35059 20.4979 2.35059 43.5C2.35059 66.5021 20.9979 85.1494 44 85.1494C67.0021 85.1494 85.6494 66.5021 85.6494 43.5C85.6494 20.4979 67.0021 1.85059 44 1.85059ZM67.1387 48.1279L67.5176 48.4531L45.3057 74.3682L44.9258 74.8115L44.5459 74.3682L22.333 48.4531L23.0928 47.8027L44.9258 73.2744L66.7588 47.8027L67.1387 48.1279ZM67.1387 35.1699L67.8975 35.8203L45.6846 61.7354L44.9258 62.6211L44.166 61.7354L21.9541 35.8203L23.4717 34.5195L44.9248 59.5469L66.3789 34.5195L67.1387 35.1699ZM67.1387 22L67.5176 22.3252L45.3057 48.2402L44.9258 48.6836L44.5459 48.2402L22.333 22.3252L23.0928 21.6748L44.9258 47.1465L66.7588 21.6748L67.1387 22Z" fill="#C3D8FE" fill-opacity="0.7"/>
</g>
</svg>
