<svg width="87" height="87" viewBox="0 0 87 87" fill="none" xmlns="http://www.w3.org/2000/svg">
<g id="button-chamada-2">
<path id="chamada-2" d="M43.5 87C19.4756 87 -1.70261e-06 67.5244 -3.80289e-06 43.5C-5.90317e-06 19.4756 19.4756 5.90317e-06 43.5 3.80289e-06C67.5244 1.70261e-06 87 19.4756 87 43.5C87 67.5244 67.5244 87 43.5 87ZM43.5 85.1494C66.5021 85.1494 85.1494 66.5021 85.1494 43.5C85.1494 20.4979 66.5021 1.85059 43.5 1.85059C20.4979 1.85059 1.85058 20.4979 1.85058 43.5C1.85058 66.5021 20.4979 85.1494 43.5 85.1494ZM20.3613 38.8721L19.9824 38.5469L42.1943 12.6318L42.5742 12.1885L42.9541 12.6318L65.167 38.5469L64.4072 39.1973L42.5742 13.7256L20.7412 39.1973L20.3613 38.8721ZM20.3613 51.8301L19.6025 51.1797L41.8154 25.2647L42.5742 24.3789L43.334 25.2647L65.5459 51.1797L64.0283 52.4805L42.5752 27.4531L21.1211 52.4805L20.3613 51.8301ZM20.3613 65L19.9824 64.6748L42.1943 38.7598L42.5742 38.3164L42.9541 38.7598L65.167 64.6748L64.4072 65.3252L42.5742 39.8535L20.7412 65.3252L20.3613 65Z" fill="#C3D8FE" fill-opacity="0.7"/>
</g>
</svg>
