<svg width="234" height="257" viewBox="0 0 234 257" fill="none" xmlns="http://www.w3.org/2000/svg">
<path d="M106.654 36.825C107.277 37.9178 107.247 39.1546 107.016 39.8253C106.946 40.0401 106.512 39.9845 106.443 40.1306C106.306 40.4041 106.532 40.6143 106.352 40.8567C106.29 40.9373 105.614 40.8899 105.564 40.9695C105.294 41.3981 105.478 41.7471 105.343 42.1213C105.258 42.358 105.177 42.5793 105.101 42.8037C104.585 44.3165 104.263 45.7632 103.844 47.161C103.685 47.6935 103 48.2578 103.188 48.8362C103.211 48.9029 103.8 48.9477 103.847 48.9664C104.556 49.26 103.387 49.0302 103.213 49.1309C102.524 49.5292 102.388 50.0482 102.535 50.547C102.6 50.7581 103.788 50.7557 103.106 50.8453C103.06 50.8516 102.451 50.6973 102.376 50.74C102.207 50.8382 102.278 51.086 102.213 51.17C102.084 51.3328 102.085 51.3638 102.046 51.5357C101.99 51.7611 101.633 51.9843 101.725 52.2572C101.747 52.3155 102.391 52.3654 102.482 52.4698C102.573 52.5741 102.477 52.7896 102.313 52.8376C102.15 52.8854 101.661 52.7562 101.545 52.7476C100.565 52.6719 101.842 53.1828 101.868 53.2249C102.304 53.9491 101.443 54.3061 101.324 54.869C101.235 55.2939 101.381 55.8127 101.256 56.2028C101.103 56.6819 100.672 56.9998 100.618 57.4841C100.612 57.5337 101.36 57.6512 101.354 57.7125C101.288 58.3693 101.052 58.9893 100.4 59.4943C100.334 59.5445 99.7117 59.3025 99.6074 59.3429C98.982 59.5991 97.5623 59.8712 100.296 60.8227C100.228 60.9124 100.158 61.0106 100.062 61.1032C99.9073 61.2471 99.6857 61.3761 99.3002 61.4284C98.8988 61.4832 98.2392 61.1535 98.4884 61.4163C98.5438 61.4755 99.1693 61.5826 99.206 61.6594C99.3587 61.9872 99.0865 62.2109 99.332 62.5561C99.3834 62.6265 99.9343 62.759 100.029 62.8004C100.793 63.1411 99.417 62.9978 99.3088 63.0178C98.5021 63.1664 98.7149 63.493 98.6084 63.8131C98.5834 63.8874 99.3416 63.9994 99.3438 64.0782C99.3471 64.4784 99.1782 64.8437 98.75 65.1227C98.6534 65.183 98.0497 64.9349 97.9717 64.9544C97.6356 65.0416 98.8041 65.4082 98.5039 65.4996C98.4421 65.5193 97.9132 65.3505 97.8528 65.3403C96.9044 65.18 98.1855 65.631 98.2072 65.6645C98.5107 66.096 97.0907 65.9188 97.1975 66.277C97.2116 66.3206 97.9105 66.429 97.9086 66.5399C97.8987 67.2865 97.5056 67.9595 96.7697 68.4854C96.6564 68.5666 96.1713 68.3455 96.1069 68.3341C95.0999 68.1603 96.3874 68.6074 96.4267 68.6561C96.7028 69.0298 95.5321 68.9692 97.0353 69.6058C96.1625 70.5952 96.6989 72.0013 94.9704 72.7276C94.95 72.7374 94.3148 72.5216 94.2768 72.542C93.8122 72.7865 94.8323 73.0103 95.9862 73.6014C96.2759 73.7498 94.7488 73.4893 94.6361 73.4728C94.2209 73.4117 93.2821 73.0699 93.1993 73.066C92.547 73.0437 95.7167 73.9541 95.6546 74.1677C95.6473 74.1728 95.0736 73.9724 95.0104 73.9731C94.8123 73.9749 95.0272 74.0987 94.8107 74.0938C94.3101 74.0813 92.7605 73.6706 93.5991 74.123C93.708 74.1813 95.5122 74.6769 95.3715 74.8404C95.314 74.905 95.2454 75.2482 95.1012 75.3079C94.9572 75.3673 94.3986 75.131 94.3716 75.1303C93.5322 75.1562 93.2441 74.9661 92.0752 74.7565C90.9106 74.5481 93.6085 75.3134 93.8933 75.4536C94.1772 75.5937 93.4923 75.5895 93.2597 75.5694C93.0271 75.5492 92.6767 75.3836 92.5407 75.3868C91.6509 75.4116 93.8398 75.9011 94.2401 76.1161C95.1882 76.6246 93.1469 76.1928 92.8947 76.3257C92.8265 76.3617 93.2929 76.4548 93.3216 76.5136C93.4289 76.7458 92.7753 76.6667 93.284 77.0426C93.3669 77.1039 94.5151 77.6281 93.6037 77.4735C93.4724 77.4509 92.9888 77.2591 92.8545 77.3032C92.6531 77.3687 92.4822 77.5449 92.6109 77.7194C92.7061 77.8484 93.5558 77.9873 93.2669 78.0274C93.138 78.0451 92.688 77.8063 92.4857 77.8515C92.2836 77.8965 92.2322 78.1447 92.2208 78.2429C92.21 78.3407 92.8457 78.4756 92.8853 78.4956C93.1112 78.6126 93.357 78.8804 93.3516 78.896C93.1875 79.7198 91.9238 80.1333 92.0369 81.0145C92.045 81.0828 92.7114 81.2387 92.7194 81.2511C92.9314 81.5405 91.2408 80.8556 90.6152 80.8258C91.9491 81.203 91.6831 81.2163 91.7848 81.4064C91.8349 81.4984 92.3605 81.6141 92.4112 81.6363C93.1606 81.9751 92.1302 81.7458 91.9182 81.7027C91.1384 81.5447 92.0125 81.8893 91.491 81.7845C90.9733 81.6809 90.2596 81.3481 90.2268 81.4921C90.6902 81.6742 91.9636 81.9418 92.1327 82.1094C92.7727 82.7427 91.5746 83.1962 91.3753 83.4931C91.1765 83.7885 91.2341 83.9152 91.0058 84.0522C90.5935 84.2984 91.5523 84.4502 91.9108 84.7878C92.269 85.1263 90.0325 84.3438 89.536 84.2282C89.0398 84.1122 89.5315 84.2952 89.2525 84.2523C88.9736 84.2092 88.6663 84.0294 88.5395 84.0868C88.4129 84.1439 89.2076 84.6445 89.7083 84.8269C90.7686 85.2153 91.9339 85.4479 91.467 85.5581C91.4394 85.5642 90.856 85.3428 90.7806 85.3753C90.2014 85.6394 90.0472 86.0507 89.5199 86.3348C89.4467 86.3728 88.7981 86.1251 88.7479 86.1451C88.2237 86.3524 89.3779 86.5675 90.5655 87.1225C88.9243 86.5869 87.8824 86.3857 87.7964 86.6378C87.7441 86.7893 88.4742 86.9788 88.9535 87.2302C89.098 87.3059 88.5696 87.2664 88.9034 87.3877C89.9942 87.7845 91.2678 88.0531 90.694 88.1693C90.6671 88.1739 90.0703 87.9554 90.0215 87.9845C89.7033 88.1712 90.8562 88.5467 90.9139 88.8665C90.9594 89.1169 90.1353 89.2938 89.9457 89.5092C88.0878 88.9494 88.443 89.3132 89.6972 89.789C89.5969 89.9338 89.6177 90.129 89.3941 90.2319C89.3177 90.2675 88.7898 90.072 88.7296 90.0615C87.7861 89.8935 89.0127 90.335 89.0512 90.3843C89.4145 90.9029 88.3764 90.9327 89.1945 91.5646C89.224 91.5872 90.51 91.9915 89.538 91.8074C89.4712 91.7943 88.9185 91.5011 88.8229 91.6566C88.7271 91.8121 87.9396 91.9262 88.4684 92.34C88.5956 92.4397 89.6017 92.8957 88.7479 92.7682C88.632 92.7505 88.2663 92.6239 88.0535 92.585C87.3751 92.4618 88.6698 92.8877 87.5352 92.6433C86.4005 92.3988 85.5175 92.3283 86.2129 92.7923C86.233 92.8065 87.2518 93.1689 87.2134 93.2387C87.1511 93.35 86.8852 93.4558 86.8551 93.5827C86.841 93.6436 87.4954 93.7952 87.5041 93.8091C87.7454 94.3186 87.0893 94.4299 86.7137 94.7869C86.6436 94.8519 87.454 95.3365 86.7156 95.2853C85.9072 95.2296 82.7995 94.1296 83.4388 94.7355C83.6942 94.979 87.6436 96.3514 85.4858 96.0207C85.8414 96.7129 84.6319 96.9032 85.2085 97.6595C85.2339 97.6934 86.3302 98.0972 86.2983 98.1501C86.2486 98.2281 85.712 98.1222 85.6598 98.1731C85.428 98.3819 85.8067 98.7482 85.6662 98.9715C85.6138 99.0571 85.0825 98.8672 85.0199 98.9694C84.9579 99.0718 85.6486 99.3528 85.2609 99.4034C84.9656 99.4409 83.4767 99.1319 83.263 99.2343C84.6974 99.6569 84.6377 99.7522 84.9631 100.047C85.0264 100.104 85.5373 100.211 85.5931 100.245C85.8309 100.388 85.3982 100.332 85.6598 100.478C85.7226 100.513 86.2129 100.656 86.2919 100.693C86.9827 101.011 85.8273 100.872 85.6262 100.847C84.8622 100.754 85.4842 100.994 85.1705 101.002C84.8569 101.01 84.5371 100.77 84.332 100.826C83.9076 100.942 83.905 101.249 83.8176 101.467C83.7858 101.555 84.4585 101.683 84.4691 101.699C84.5817 101.933 83.8313 101.919 85.1068 102.396C81.696 101.553 85.4021 102.602 84.6509 102.671C84.5903 102.676 82.9869 102.244 82.7756 102.096C82.5645 101.949 83.0981 101.972 82.7648 101.756C82.6867 101.705 81.2348 101.124 81.1502 101.078C80.4886 100.713 82.8796 101.377 83.013 101.406C84.454 101.717 82.8966 101.068 82.7993 100.987C82.3536 100.618 82.7432 100.526 82.4328 100.236C82.2327 100.047 80.6749 99.5835 80.7502 99.5021C80.9997 99.2316 83.2092 99.7527 81.408 98.9057C81.0239 98.7247 79.2995 98.2934 80.7076 98.4528C80.7964 98.4628 82.073 98.6488 81.3254 98.325C81.2311 98.2842 80.7339 98.1401 80.6969 98.1117C80.4585 97.9239 80.8757 97.9663 80.7206 97.7923C80.5655 97.6184 80.3243 97.3933 80.5323 97.3071C80.6567 97.2552 81.6137 97.4188 81.8518 97.4457C82.5372 97.5251 81.5011 97.0941 82.312 97.2561C83.1269 97.4188 84.2945 97.9059 84.8608 97.8747C83.5716 97.4913 82.2509 97.0891 80.9556 96.6994C81.1173 96.3143 81.648 96.049 81.708 95.6328C81.7141 95.5807 81.0054 95.4282 80.9941 95.3672C80.9495 95.1106 81.5015 95.0602 81.3724 94.7709C81.2699 94.5462 80.593 94.1342 80.4628 93.893C81.9727 94.2137 81.5537 93.7865 81.7482 93.6238C81.8157 93.5666 82.2087 93.6874 82.3521 93.6749C82.8838 93.625 81.553 93.3298 81.363 93.2173C80.5526 92.7356 83.5111 93.5866 83.5155 93.3029C83.5167 93.2882 81.9929 92.6541 81.9018 92.6018C81.3066 92.2647 82.4569 92.7389 82.6006 92.6803C82.8632 92.573 83.2744 92.5643 82.8726 92.228C82.7533 92.1293 81.8139 91.6992 82.6061 91.8103C82.7098 91.8248 83.2275 91.9868 83.2615 91.9839C83.8333 91.9173 82.2007 91.4282 81.6839 91.1407C81.1672 90.8531 82.3518 90.9963 82.6884 91.0538C83.5594 91.2015 83.0248 91.238 83.1057 91.268C84.0688 91.6234 83.9408 91.4343 84.0552 91.3529C85.6619 91.8124 85.6102 91.634 84.1677 91.2656C84.0101 91.2255 84.1347 91.3534 84.0552 91.3529C82.511 90.7935 82.3587 90.5685 83.8813 90.8227C84.5949 90.942 85.3739 91.2601 85.1566 90.9157C85.0587 90.7596 83.9422 90.4774 83.6721 90.2851C83.0559 89.8458 84.1749 89.8479 84.0851 89.5566C84.0525 89.4506 83.4232 89.3573 83.3802 89.2787C83.264 89.0695 83.759 89.0629 83.5748 88.8332C83.5573 88.8122 82.9148 88.6597 82.9216 88.6074C82.9612 88.2061 83.4626 88.0019 83.5922 87.6081C83.6544 87.4179 83.4079 86.9725 83.5368 86.7962C83.7563 86.4899 84.8005 86.344 84.6651 85.9834C84.5794 85.7497 83.935 85.6028 83.529 85.3923C82.7418 84.985 84.3196 85.1536 84.5622 85.1854C84.5703 85.1866 84.6703 85.3946 85.0207 85.4044C85.7116 85.5557 84.5646 85.1882 84.5622 85.1854C84.7192 85.2052 84.9597 84.9235 84.859 84.8206C84.8036 84.7653 84.1991 84.6061 84.1815 84.5806C83.7777 83.9798 83.757 83.4954 84.169 83.138C84.1834 83.1338 84.8494 83.346 84.8749 83.3338C85.2501 83.1643 84.4807 82.7536 84.0581 82.3956C83.6357 82.0378 83.8487 81.9188 85.0354 82.1383C84.9384 81.9357 85.5148 81.86 85.8632 81.8189C86.2112 81.7786 84.9137 81.3695 84.8914 81.3501C84.1759 80.7395 84.9844 80.7539 85.2126 80.4151C85.3229 80.256 85.2415 79.8404 85.1568 79.6049C85.0879 79.4175 85.4208 79.4172 85.2676 79.2182C85.2472 79.1914 84.6613 79.0367 84.6407 79.0242C83.9935 78.6595 85.3893 79.16 85.6523 79.2036C86.6087 79.3623 87.1204 79.439 86.7477 79.1068C86.6625 79.0302 84.661 78.2821 84.567 78.1615C84.4485 78.0057 85.1681 78.2667 85.0253 78.0982C85.0138 78.084 84.5615 77.9507 84.6028 77.8855C84.7886 77.58 85.1568 77.307 85.2156 76.946C85.2252 76.8976 84.4908 76.7434 84.4929 76.67C84.5034 76.3259 84.6337 75.987 85.0607 75.7808C85.1681 75.7308 85.6556 75.9281 85.8094 75.9563C86.7409 76.1248 85.4749 75.5877 85.457 75.5567C84.9981 74.7985 86.3094 74.7302 85.9188 73.9794C85.8951 73.938 84.5629 73.2781 85.7991 73.5298C85.8814 73.5463 87.1452 73.8072 86.3306 73.4626C86.2796 73.4411 85.6257 73.3181 85.7246 73.2223C85.8232 73.1271 85.455 72.8147 86.1998 72.8616C86.4344 72.8763 87.6993 73.122 86.7641 72.6803C86.6987 72.6499 84.5516 71.7601 86.1049 72.1319C86.3605 72.1933 87.9744 72.6875 87.1977 72.2629C87.047 72.1812 86.6678 72.1358 86.469 71.9793C86.162 71.7405 86.6506 71.6829 85.9801 71.299C85.8613 71.2314 84.8004 70.7797 85.664 70.9255C85.7993 70.9483 86.3306 71.1384 86.4069 71.1029C86.7724 70.9338 86.4878 70.5671 86.9386 70.4168C87.0971 70.3636 87.9569 70.6685 88.2193 70.6417C88.4817 70.6149 88.7636 70.4887 88.3936 70.2716C88.0234 70.0544 86.5988 69.7528 86.5311 69.5714C86.2362 68.7867 87.2426 68.381 87.5508 67.7692C87.5967 67.6781 87.0747 67.6124 87.1065 67.4681C87.2204 66.9396 87.0139 65.9015 88.202 65.7634C89.1566 65.6428 89.6714 66.2884 90.0975 66.1083C90.3013 66.0206 88.7204 65.4105 88.6785 65.3638C88.2501 64.8994 89.0289 64.8948 88.8901 64.5446C88.861 64.4728 88.1866 64.3432 88.1692 64.2842C88.1036 64.0812 88.4478 63.9865 88.4397 63.8103C88.4345 63.7308 87.9279 63.6019 87.9855 63.5467C88.1171 63.4136 88.3681 63.3329 88.8838 63.3078C88.9308 63.3055 89.5293 63.5781 89.5861 63.4654C89.6762 63.2827 90.2082 63.1749 89.7885 62.8226C89.6621 62.7172 88.5121 62.3958 89.3457 62.4763C89.5199 62.4929 90.8909 62.9148 89.7431 62.4178C89.5527 62.3343 88.0185 61.6133 89.0934 61.7672C89.3764 61.8075 90.5324 62.0294 90.3761 61.9025C90.3506 61.8842 89.7207 61.7559 89.678 61.6751C89.5377 61.3964 89.6717 61.166 89.5412 60.8808C89.5052 60.804 88.8396 60.7224 88.8063 60.6137C88.7133 60.3168 88.9627 60.0415 89.2307 59.8445C89.3305 59.7727 89.8445 59.9787 89.9041 59.9875C90.8731 60.1313 89.6212 59.7281 89.5566 59.6731C89.172 59.3357 89.8133 59.3246 89.71 59.0764C89.683 59.0086 89.0668 58.8891 89.0157 58.8636C88.5187 58.6082 89.5836 58.9814 89.7229 58.9393C90.0256 58.8492 90.1021 58.686 90.1101 58.514C90.1129 58.4604 90.1096 58.406 90.1043 58.3525C90.095 58.2675 89.3695 58.1722 89.3692 58.0983C89.3536 57.6589 89.5268 57.2612 90.0148 56.9614C90.1078 56.9061 90.6386 57.0887 90.7663 57.1043C91.6601 57.2141 90.5161 56.7639 90.4123 56.7001C89.9392 56.4056 90.435 56.4607 90.3811 56.2933C90.1077 55.4827 90.6337 54.6857 90.9817 54.0691C91.4316 53.2665 92.0988 52.7031 92.1331 51.8517C92.1358 51.7983 91.3964 51.7009 91.3893 51.6532C91.3319 51.0396 91.7265 50.5359 91.6208 49.9229C91.6133 49.8735 90.9074 49.8127 90.8719 49.7298C90.7936 49.5618 90.8666 49.3727 91.1151 49.2593C91.2351 49.2034 91.8136 49.4084 91.9222 49.3496C92.176 49.2162 92.2594 49.0268 92.1776 48.8293C92.1413 48.745 91.4108 48.7409 91.4189 48.6415C91.4605 47.9517 91.4326 47.2995 92.4444 46.7508C92.5139 46.7133 93.9737 46.855 93.7071 46.7206C93.3042 46.6633 92.8291 46.6052 92.3979 46.5489C92.2826 45.5682 92.869 44.7146 92.9822 43.8237C92.9867 43.7868 92.2082 43.8205 92.2129 43.7504C92.2331 43.4377 92.1135 43.1414 92.4038 42.8263C92.4917 42.7264 92.6171 42.6331 92.7951 42.5336C92.8699 42.4916 94.2369 42.4945 94.0278 42.3703C93.9898 42.3485 93.8029 42.1693 93.5047 42.1386C93.4598 42.1344 92.8234 42.1862 92.8029 42.1342C92.6957 41.8351 92.8195 41.5753 93.1908 41.4251C93.2521 41.4006 93.9269 41.3208 93.9759 41.2996C94.1466 41.2205 94.1006 41.1953 94.0995 41.2215C94.0964 41.2414 94.1491 41.3293 94.4599 41.2752C94.8687 41.1786 95.9379 40.6881 96.9663 40.1596C97.1117 40.0849 97.0904 39.9816 97.6876 39.6729C99.193 38.9026 100.888 38.1534 102.49 37.3269C102.829 37.1368 102.362 37.1375 103.256 36.8277C103.313 36.8 103.678 36.8358 103.997 36.767C104.216 36.7145 104.795 36.3402 105.094 36.3122C105.395 36.2911 104.926 36.6413 105.313 36.7045C105.705 36.7794 106.392 36.3855 106.654 36.825ZM87.4196 81.6364C88.082 81.7019 85.7954 80.9967 86.3042 81.2931C86.3315 81.3083 87.387 81.6335 87.4196 81.6364ZM83.3801 96.5566C84.4397 96.6932 82.9823 96.1481 82.1671 96.0318C81.3527 95.9159 83.0588 96.5155 83.3801 96.5566ZM83.6346 98.4351C84.4879 98.4809 81.2387 97.5028 81.839 97.8949C81.8728 97.9174 83.585 98.4325 83.6346 98.4351ZM97.3687 40.2881C97.399 40.2779 97.4126 40.2187 97.3823 40.2279C96.6564 40.4527 96.6167 40.53 97.3687 40.2881ZM83.9613 100.319C84.4191 100.388 83.9587 100.073 83.3895 99.9865C82.9316 99.9171 83.3918 100.233 83.9613 100.319ZM91.7739 75.9969C91.8086 76.0052 91.8607 75.9431 91.6671 75.8869C91.0436 75.7062 91.1896 75.8577 91.7739 75.9969ZM83.1909 103.134C83.4329 102.754 86.1988 103.277 85.7655 103.64C85.687 103.706 84.9568 103.218 84.6841 103.252C84.1869 103.316 85.8424 103.927 84.8801 103.862C84.704 103.85 83.1711 103.155 83.1873 103.133C83.1885 103.133 83.1897 103.134 83.1909 103.134ZM90.1936 82.3915C90.2246 82.3982 90.2827 82.3089 90.2534 82.2976C89.5417 82.0264 89.4242 82.2061 90.1936 82.3915ZM94.4208 72.2781C94.4871 72.2917 94.6149 72.0811 94.5575 72.0563C93.4009 71.5864 93.1393 72.0102 94.4208 72.2781ZM89.8949 89.4983C90.5952 89.8242 90.6431 89.9784 89.6983 89.7888C89.7785 89.698 89.8178 89.5923 89.8949 89.4983Z" fill="white" fill-opacity="0.7"/>
<path d="M143.039 40.8181C144.129 41.0663 145.366 41.7642 146.125 42.4822C146.909 43.205 147.321 43.8805 147.564 44.4091C148.301 44.9564 148.521 47.3881 148.883 48.231C148.832 48.3007 148.772 48.3687 148.708 48.4329C148.619 48.5227 148.193 48.5093 148.113 48.5724C147.956 48.6957 148.17 48.7871 147.981 48.9118C147.917 48.9532 147.243 48.9508 147.191 48.993C146.909 49.2241 147.092 49.4152 146.963 49.6422C146.322 50.7263 146.122 51.7639 145.86 52.8307C145.775 53.1771 145.182 53.6198 145.462 53.9694C145.495 54.0102 146.083 53.9634 146.132 53.9696C146.88 54.0679 145.689 54.0708 145.534 54.157C144.922 54.4965 144.879 54.8518 145.117 55.154C145.219 55.2825 146.386 55.1131 145.733 55.267C145.689 55.2776 145.062 55.2639 144.996 55.3021C144.849 55.3888 144.966 55.5412 144.918 55.6065C144.823 55.7327 144.83 55.7504 144.826 55.865C144.815 56.0214 144.509 56.216 144.656 56.3803C144.689 56.4154 145.329 56.3502 145.44 56.4047C145.551 56.4592 145.5 56.6132 145.35 56.6686C145.2 56.7241 144.695 56.7153 144.58 56.7274C143.606 56.8274 144.962 56.9689 144.996 56.9912C145.576 57.3938 144.814 57.7584 144.825 58.1461C144.834 58.4388 145.095 58.7534 145.065 59.0296C145.027 59.3616 144.684 59.6488 144.748 59.9713C144.755 60.0054 145.508 59.9538 145.517 59.9954C145.612 60.4407 145.536 60.8771 145.031 61.3242C144.98 61.3689 144.317 61.3196 144.226 61.3646C143.685 61.6408 142.381 62.0787 145.267 62.2118C145.156 62.3953 145.041 62.6181 144.461 62.7857C144.087 62.8936 143.365 62.7967 143.674 62.9235C143.743 62.9522 144.374 62.9098 144.43 62.9532C144.663 63.1358 144.458 63.3385 144.786 63.5193C144.854 63.556 145.42 63.5429 145.522 63.5529C146.349 63.6375 144.984 63.7912 144.885 63.8236C144.146 64.0706 144.438 64.2469 144.421 64.4741C144.416 64.5269 145.177 64.4623 145.2 64.5131C145.31 64.7762 145.245 65.0496 144.908 65.3077C144.831 65.3651 144.183 65.3128 144.113 65.3403C143.812 65.461 145.036 65.4873 144.772 65.6032C144.718 65.6277 144.163 65.6139 144.102 65.6184C143.146 65.6879 144.501 65.7485 144.531 65.7665C144.939 65.9936 143.524 66.1369 143.724 66.3554C143.75 66.3815 144.452 66.3239 144.48 66.3975C144.673 66.8871 144.478 67.4082 143.914 67.889C143.827 67.9638 143.3 67.9071 143.235 67.9115C142.219 67.9827 143.58 68.0404 143.631 68.0653C143.999 68.2615 142.856 68.4329 144.476 68.577C143.908 69.397 144.809 70.2218 143.346 71.0197C143.33 71.0298 142.66 71.0024 142.629 71.0226C142.249 71.265 143.291 71.2312 144.563 71.4133C144.882 71.4593 143.342 71.5626 143.229 71.5719C142.813 71.6061 141.817 71.5498 141.736 71.5621C141.103 71.6639 144.401 71.6947 144.399 71.848C144.394 71.8527 143.787 71.8234 143.727 71.8353C143.536 71.8723 143.777 71.9155 143.568 71.9512C143.083 72.0329 141.48 72.039 142.41 72.1893C142.531 72.2084 144.402 72.2124 144.311 72.3471C144.274 72.4008 144.302 72.6409 144.179 72.7056C144.057 72.7704 143.455 72.714 143.429 72.7183C142.629 72.884 142.3 72.81 141.118 72.8784C139.941 72.9465 142.745 72.9724 143.057 73.0147C143.369 73.0571 142.709 73.1761 142.48 73.2039C142.25 73.2317 141.868 73.1845 141.738 73.2106C140.889 73.3869 143.128 73.3214 143.572 73.3936C144.623 73.5641 142.541 73.6402 142.335 73.772C142.279 73.8078 142.753 73.7873 142.797 73.821C142.963 73.9546 142.313 74.0191 142.905 74.1789C143.001 74.2049 144.248 74.3511 143.329 74.4081C143.197 74.4161 142.679 74.374 142.562 74.4264C142.386 74.5047 142.27 74.6495 142.441 74.7411C142.568 74.8097 143.423 74.7536 143.156 74.831C143.037 74.8654 142.539 74.7852 142.356 74.8507C142.174 74.9158 142.192 75.0927 142.207 75.16C142.223 75.2273 142.872 75.2062 142.915 75.2127C143.164 75.2514 143.474 75.3874 143.473 75.3987C143.538 75.9713 142.432 76.4657 142.777 77.0329C142.803 77.0771 143.487 77.0681 143.498 77.0751C143.78 77.2324 141.968 77.0619 141.357 77.1473C142.743 77.1734 142.49 77.2271 142.639 77.3358C142.712 77.3882 143.249 77.3771 143.304 77.3833C144.117 77.4825 143.063 77.5024 142.847 77.509C142.054 77.5339 142.988 77.6159 142.457 77.6329C141.931 77.6498 141.154 77.5494 141.161 77.6484C141.656 77.6918 142.955 77.6576 143.162 77.7409C143.948 78.0609 142.913 78.5692 142.799 78.7937C142.686 79.0198 142.775 79.0928 142.591 79.2255C142.258 79.4609 143.222 79.4054 143.657 79.575C144.091 79.7449 141.728 79.5814 141.219 79.5842C140.71 79.5865 141.232 79.6295 140.952 79.6455C140.671 79.6614 140.328 79.5911 140.221 79.6492C140.114 79.7072 141.011 79.9109 141.542 79.9536C142.667 80.0438 143.852 80.0137 143.43 80.1617C143.405 80.1701 142.784 80.115 142.72 80.1486C142.23 80.4105 142.188 80.7197 141.752 80.9898C141.691 81.0269 141.001 80.9617 140.957 80.9829C140.505 81.2029 141.675 81.1677 142.964 81.3562C141.242 81.2505 140.184 81.2765 140.165 81.4537C140.154 81.5601 140.908 81.5759 141.435 81.6695C141.594 81.6963 141.074 81.7526 141.427 81.7831C142.582 81.8843 143.882 81.8702 143.357 82.0388C143.332 82.0461 142.699 81.9893 142.66 82.0166C142.399 82.192 143.609 82.2725 143.746 82.4808C143.853 82.6452 143.101 82.88 142.972 83.0519C141.034 82.9469 141.469 83.1411 142.801 83.2824C142.74 83.3974 142.809 83.5277 142.618 83.6292C142.553 83.6641 141.993 83.6075 141.932 83.609C140.977 83.6295 142.274 83.7521 142.324 83.7799C142.804 84.0729 141.806 84.2377 142.752 84.5603C142.786 84.5716 144.13 84.6704 143.144 84.6793C143.076 84.6795 142.469 84.5555 142.414 84.6747C142.359 84.7946 141.623 84.9734 142.236 85.1772C142.383 85.2232 143.467 85.4104 142.609 85.4367C142.492 85.4401 142.107 85.4011 141.892 85.4027C141.204 85.408 142.561 85.5315 141.402 85.512C140.244 85.4926 139.37 85.554 140.155 85.7764C140.177 85.7833 141.251 85.902 141.23 85.9527C141.196 86.0343 140.963 86.1287 140.963 86.2253C140.963 86.2695 141.634 86.2937 141.645 86.3022C141.997 86.6292 141.384 86.7844 141.1 87.0542C141.046 87.1086 141.941 87.3618 141.211 87.4042C140.412 87.4478 137.146 87.0187 137.902 87.3455C138.205 87.4686 142.345 88.0437 140.171 88.0187C140.662 88.4544 139.519 88.6707 140.221 89.1318C140.252 89.154 141.393 89.399 141.37 89.4421C141.333 89.5039 140.791 89.4437 140.748 89.4787C140.56 89.6005 140.973 89.9066 140.857 90.0533C140.846 90.068 140.8 90.0663 140.739 90.0568L140.742 90.043C140.568 90.0283 140.263 89.9635 140.228 90.0165C140.18 90.0896 140.895 90.2927 140.523 90.3244C140.24 90.3464 138.735 90.1436 138.539 90.2366C140.009 90.5084 139.965 90.5797 140.332 90.7747C140.404 90.8119 140.922 90.8697 140.982 90.8914C141.24 90.9792 140.807 90.9539 141.089 91.0416C141.157 91.0626 141.662 91.1395 141.746 91.1602C142.48 91.3361 141.327 91.2833 141.126 91.2817C140.362 91.264 141.017 91.3851 140.713 91.4108C140.408 91.4399 140.048 91.3019 139.859 91.358C139.467 91.4792 139.53 91.7051 139.496 91.8702C139.485 91.9372 140.168 91.9348 140.183 91.9455C140.347 92.0835 139.616 92.1902 140.971 92.3139C137.459 92.2767 141.307 92.4042 140.601 92.56C140.544 92.5723 138.883 92.5598 138.641 92.4924C138.399 92.4235 138.92 92.3455 138.544 92.2451C138.455 92.2244 136.906 92.0326 136.813 92.0068C136.084 91.8222 138.563 91.9403 138.7 91.943C140.172 91.9569 138.509 91.7116 138.397 91.6565C137.882 91.431 138.245 91.3034 137.886 91.1065C137.655 90.9771 136.043 90.7689 136.104 90.6825C136.309 90.3867 138.561 90.6593 136.665 90.0761C136.262 89.9497 134.502 89.6968 135.916 89.7256C136.006 89.7239 137.289 89.8128 136.513 89.5714C136.415 89.5406 135.907 89.4399 135.868 89.4163C135.613 89.2585 136.03 89.2761 135.86 89.1261C135.777 89.0535 135.673 88.9695 135.612 88.8916C135.643 88.8423 135.65 88.658 135.684 88.6105C135.598 88.6188 135.561 88.6314 135.646 88.6603C135.744 88.6999 136.69 88.8907 136.925 88.923C137.601 89.0153 136.513 88.7636 137.328 88.8863C138.149 89.0003 139.371 89.3073 139.918 89.2892C138.594 89.051 137.236 88.8041 135.904 88.5679C135.981 88.3974 136.439 88.2728 136.413 88.0035C136.408 87.9728 135.686 87.9129 135.662 87.8806C135.563 87.7473 136.088 87.6919 135.9 87.5224C135.752 87.3898 135.004 87.1829 134.823 87.0565C136.361 87.1416 135.859 86.9123 136.011 86.7908C136.064 86.7479 136.473 86.7884 136.609 86.7661C137.115 86.6796 135.755 86.6195 135.545 86.565C134.648 86.3445 137.715 86.602 137.654 86.4186C137.652 86.4086 136.026 86.1595 135.926 86.1359C135.27 85.9824 136.496 86.166 136.622 86.1127C136.852 86.0153 137.25 85.9604 136.781 85.7851C136.642 85.7361 135.629 85.5693 136.424 85.5535C136.528 85.5514 137.068 85.5969 137.1 85.5913C137.639 85.4849 135.94 85.3563 135.37 85.2324C134.8 85.1088 135.983 85.0608 136.323 85.0565C137.203 85.046 136.693 85.1369 136.779 85.1465C137.798 85.263 137.629 85.1536 137.72 85.0839C139.388 85.1876 139.295 85.0727 137.808 85.011C137.646 85.0044 137.797 85.074 137.72 85.0839C136.089 84.9055 135.887 84.7761 137.424 84.7592C138.144 84.7493 138.976 84.8589 138.682 84.6628C138.549 84.5736 137.399 84.531 137.09 84.4406C136.386 84.235 137.47 84.0881 137.312 83.9037C137.254 83.837 136.622 83.861 136.561 83.8143C136.397 83.6951 136.874 83.6297 136.639 83.5062C136.617 83.495 135.957 83.4815 135.95 83.4472C135.889 83.1865 136.323 82.9808 136.349 82.7001C136.362 82.5678 136.01 82.3207 136.09 82.1874C136.224 81.9587 137.196 81.706 136.973 81.4861C136.83 81.3492 136.17 81.3476 135.724 81.2716C134.859 81.1253 136.426 81.0027 136.668 80.9866C136.676 80.9862 136.826 81.1068 137.167 81.0611C137.873 81.0567 136.671 80.988 136.668 80.9866C136.825 80.9767 136.984 80.7541 136.86 80.7027C136.792 80.6748 136.168 80.6622 136.144 80.6482C135.599 80.3142 135.452 80.0042 135.756 79.7093C135.769 79.7044 136.467 79.7397 136.488 79.7277C136.806 79.5605 135.956 79.4121 135.454 79.2443C134.953 79.0763 135.127 78.964 136.329 78.9174C136.182 78.7996 136.718 78.6616 137.043 78.5803C137.367 78.4994 136.008 78.4398 135.982 78.4309C135.13 78.1495 135.913 78.0292 136.043 77.7668C136.107 77.6413 135.917 77.3853 135.773 77.248C135.656 77.1384 135.977 77.0838 135.776 76.9794C135.749 76.9653 135.143 76.9608 135.12 76.9561C134.399 76.8251 135.877 76.9213 136.142 76.9064C137.106 76.8522 137.62 76.8155 137.171 76.6604C137.069 76.6244 134.94 76.4687 134.817 76.4058C134.661 76.3238 135.424 76.3743 135.242 76.2877C135.227 76.2803 134.755 76.2688 134.778 76.2191C134.874 75.9841 135.155 75.7489 135.114 75.5063C135.11 75.4735 134.361 75.4965 134.344 75.4488C134.26 75.225 134.294 74.9816 134.649 74.771C134.739 74.7192 135.262 74.7651 135.417 74.757C136.359 74.7069 134.995 74.5723 134.97 74.5563C134.322 74.1489 135.565 73.8718 134.984 73.4524C134.95 73.4294 133.488 73.2307 134.746 73.1783C134.83 73.1751 136.117 73.1222 135.239 73.0407C135.184 73.0356 134.522 73.0695 134.591 72.99C134.659 72.9104 134.22 72.7725 134.949 72.6739C135.179 72.6427 136.462 72.5812 135.442 72.4577C135.371 72.4494 133.062 72.2477 134.658 72.2159C134.921 72.2108 136.608 72.2486 135.745 72.1075C135.577 72.0806 135.2 72.1184 134.966 72.0509C134.606 71.9474 135.06 71.8248 134.31 71.6929C134.177 71.67 133.033 71.5628 133.903 71.5052C134.04 71.4962 134.603 71.5255 134.666 71.4891C134.971 71.3156 134.597 71.1236 134.989 70.9473C135.127 70.8848 136.038 70.9298 136.283 70.8657C136.527 70.8016 136.764 70.6685 136.348 70.5927C135.933 70.5169 134.48 70.5761 134.365 70.4692C133.867 70.0031 134.723 69.564 134.851 69.1069C134.871 69.0392 134.351 69.0909 134.342 68.991C134.306 68.6209 133.823 67.9853 134.929 67.6718C135.814 67.4199 136.486 67.7462 136.846 67.5516C137.018 67.4573 135.331 67.3472 135.278 67.3242C134.739 67.0992 135.487 66.9463 135.259 66.7452C135.211 66.7038 134.527 66.7424 134.494 66.7071C134.376 66.5868 134.681 66.4614 134.626 66.3464C134.599 66.2949 134.077 66.3035 134.117 66.2562C134.208 66.1431 134.428 66.0432 134.917 65.933C134.962 65.9229 135.612 65.9915 135.636 65.9074C135.674 65.7714 136.157 65.6021 135.658 65.4454C135.508 65.399 134.313 65.398 135.138 65.2976C135.31 65.2765 136.744 65.3018 135.505 65.1867C135.299 65.1671 133.628 64.9748 134.705 64.8773C134.988 64.8516 136.162 64.7845 135.977 64.7289C135.948 64.7214 135.306 64.7532 135.244 64.7071C135.034 64.5446 135.102 64.3736 134.9 64.2071C134.845 64.1627 134.182 64.2316 134.121 64.1654C133.952 63.9833 134.12 63.7554 134.327 63.5751C134.405 63.5086 134.955 63.5512 135.014 63.5461C135.987 63.4633 134.673 63.4249 134.597 63.3998C134.137 63.2432 134.753 63.118 134.589 62.9723C134.545 62.9321 133.919 62.9653 133.863 62.9576C133.317 62.8781 134.442 62.9322 134.566 62.8784C134.916 62.7276 134.864 62.5626 134.783 62.4136C134.752 62.3589 134.026 62.427 134.007 62.3779C133.879 62.0887 133.946 61.7827 134.343 61.4933C134.419 61.4388 134.979 61.4662 135.106 61.4536C135.999 61.366 134.779 61.2668 134.662 61.2424C134.131 61.1307 134.625 61.0789 134.531 60.9758C134.065 60.4763 134.383 59.8366 134.577 59.3554C134.826 58.7296 135.348 58.2224 135.196 57.6338C135.187 57.5963 134.444 57.6519 134.426 57.6199C134.237 57.2043 134.517 56.777 134.29 56.3653C134.273 56.3314 133.569 56.401 133.518 56.3475C133.407 56.2376 133.441 56.0956 133.663 55.974C133.77 55.9142 134.377 55.9718 134.472 55.9118C134.695 55.7722 134.741 55.6285 134.623 55.4967C134.572 55.4407 133.854 55.5506 133.843 55.4762C133.755 54.9697 133.614 54.4879 134.527 53.9347C134.59 53.8972 136.053 53.8085 135.769 53.7446C135.363 53.7552 134.884 53.7746 134.45 53.7895C134.187 53.0741 134.661 52.3125 134.702 51.5823C134.703 51.5508 133.93 51.6452 133.929 51.5848C133.922 51.235 133.689 50.9165 134.439 50.527C134.513 50.4877 135.878 50.4268 135.665 50.3328C135.627 50.3163 135.435 50.169 135.136 50.147C135.091 50.1443 134.457 50.2121 134.435 50.163C134.32 49.8769 134.446 49.5687 134.815 49.2612C134.876 49.2114 135.557 49.2126 135.606 49.1766C135.615 49.17 135.623 49.1634 135.631 49.1568L136.562 51.8549C136.826 51.9632 137.001 52.2856 137.475 52.683C137.919 53.0743 138.783 53.4531 139.41 53.2714C140.168 52.9932 140.043 51.7622 140.231 50.6271C140.257 50.4652 140.247 50.4387 140.238 49.7663C140.232 48.0752 140.318 46.2246 140.311 44.422C140.281 44.0331 140.116 44.4513 140.212 43.5132C140.202 43.4502 140.413 43.1395 140.542 42.8268C140.619 42.6098 140.515 41.9207 140.683 41.6463C140.871 41.3755 141.021 41.954 141.47 41.6848C141.967 41.4398 141.857 40.5733 143.039 40.8181ZM138.494 78.2119C139.15 78.1469 136.759 78.0554 137.328 78.1675C137.359 78.173 138.462 78.2153 138.494 78.2119ZM138.228 88.4982C139.288 88.5369 137.759 88.2601 136.941 88.2264C136.125 88.1858 137.907 88.4832 138.228 88.4982ZM138.828 89.5097C139.651 89.6558 136.355 88.8451 137.024 88.9969C137.046 89.0018 137.602 89.1588 138.091 89.2992C138.074 89.3229 138.07 89.4152 138.055 89.4398C138.383 89.5155 138.682 89.583 138.775 89.6015C138.786 89.584 138.788 89.5189 138.8 89.5022C138.815 89.5064 138.825 89.509 138.828 89.5097ZM139.8 50.1624C139.817 50.1366 139.93 50.1559 139.92 50.1848C139.715 50.9274 139.355 50.8257 139.8 50.1624ZM139.399 91.0221C139.86 91.04 139.353 90.8408 138.78 90.8144C138.319 90.7969 138.825 91.0049 139.399 91.0221ZM141.167 73.7521C141.203 73.7515 141.236 73.7015 141.034 73.6984C140.385 73.6889 140.567 73.7629 141.167 73.7521ZM139.32 93.1293C139.448 92.8225 142.253 92.6858 141.935 92.9849C141.877 93.041 141.042 92.8598 140.788 92.9299C140.327 93.0626 142.087 93.1525 141.144 93.2898C140.972 93.3148 139.307 93.147 139.316 93.1288C139.317 93.129 139.319 93.1291 139.32 93.1293ZM141.368 78.2571C141.4 78.2564 141.432 78.1872 141.401 78.1844C140.643 78.1216 140.578 78.2607 141.368 78.2571ZM142.695 70.8233C142.762 70.8203 142.827 70.658 142.765 70.6519C141.524 70.5517 141.389 70.8788 142.695 70.8233ZM142.92 83.0521C143.679 83.1713 143.764 83.2713 142.802 83.2821C142.857 83.2071 142.869 83.1287 142.92 83.0521Z" fill="white" fill-opacity="0.7"/>
<path d="M66.6303 113.898C66.9028 114.651 66.8137 115.821 66.624 116.73C66.5668 117.026 66.1272 116.934 66.0683 117.135C65.9536 117.524 66.2095 117.859 66.0667 118.251C66.0178 118.384 65.3308 118.324 65.2949 118.462C65.1039 119.226 65.3745 119.874 65.3484 120.626C65.22 124.326 65.6462 127.936 66.1479 131.624C66.313 132.836 66.0589 134.429 66.6227 135.594C66.6889 135.729 67.24 135.502 67.2939 135.517C68.1214 135.761 66.9314 135.908 66.8482 136.226C66.5212 137.483 66.7968 138.732 67.3116 139.723C67.5327 140.145 68.533 139.378 68.0277 140.006C67.9939 140.049 67.3593 140.107 67.3301 140.248C67.2646 140.568 67.5254 141.065 67.5416 141.294C67.5695 141.737 67.5958 141.802 67.7074 142.196C67.8556 142.736 67.7557 143.46 68.076 143.988C68.1459 144.099 68.7046 143.742 68.8708 143.9C69.0363 144.058 69.152 144.58 69.0668 144.799C68.9809 145.018 68.4786 145.107 68.3793 145.175C67.8655 145.52 68.2217 145.713 68.5877 145.82C68.8074 145.852 69.0343 145.854 69.0544 145.871C69.9581 146.643 69.8155 147.947 70.5166 149.024C71.0467 149.83 71.8784 150.537 72.4334 151.306C73.0955 152.225 73.4582 153.201 74.25 154.017C74.3329 154.103 74.8084 153.501 74.9102 153.604C75.9912 154.701 76.9786 155.873 77.7105 157.345C77.7837 157.493 77.1692 157.813 77.2148 157.99C77.4971 159.056 77.7081 161.09 80.1195 159.403C80.5115 159.935 81.0081 160.561 81.0435 161.385C81.0669 161.917 80.3071 162.198 80.861 162.289C80.9852 162.31 81.3116 161.751 81.465 161.817C82.1067 162.091 82.5083 162.73 83.2162 162.92C83.3605 162.957 83.7085 162.509 83.804 162.457C84.5827 162.043 84.0798 163.417 84.1009 163.566C84.2793 164.701 84.9553 164.894 85.5712 165.432C85.7131 165.556 86.0294 164.83 86.1825 164.927C86.4714 165.114 86.7666 165.336 87.0256 165.564C87.3677 165.871 87.6803 166.222 87.9622 166.649C88.0628 166.802 87.5901 167.271 87.6235 167.374C87.7928 167.829 88.4733 166.807 88.6411 167.199C88.6795 167.281 88.3833 167.752 88.3666 167.812C88.1195 168.764 88.9125 167.644 88.9682 167.637C89.7478 167.561 89.6232 169.04 90.3914 169.103C90.4803 169.107 90.5349 168.383 90.7656 168.433C92.2983 168.76 93.9131 169.3 95.5148 170.1C95.7634 170.224 95.5023 170.719 95.509 170.785C95.6403 171.83 96.0066 170.506 96.0969 170.466C96.8171 170.19 97.3433 171.394 97.9759 169.829C98.2125 169.9 98.4508 169.959 98.6918 170.01C101.279 170.56 103.789 169.881 106.518 170.914C106.557 170.927 106.566 171.601 106.642 171.623C107.578 171.891 107.288 170.874 107.667 169.535C107.756 169.199 108.424 170.652 108.485 170.756C108.695 171.143 108.706 172.151 108.767 172.223C109.282 172.778 108.667 169.539 109.175 169.446C109.192 169.448 109.234 170.058 109.288 170.109C109.459 170.27 109.549 170.008 109.723 170.187C110.119 170.602 110.563 172.148 110.85 171.132C110.884 171.001 110.4 169.194 110.873 169.178C111.066 169.174 111.864 168.947 112.119 169.004C112.374 169.063 112.373 169.686 112.395 169.707C113.219 170.313 113.071 170.694 113.707 171.743C114.352 172.783 113.497 170.11 113.536 169.773C113.576 169.438 114.211 169.936 114.394 170.118C114.574 170.302 114.544 170.712 114.684 170.805C115.611 171.402 114.562 169.385 114.642 168.893C114.812 167.732 115.851 169.576 116.395 169.6C116.54 169.607 116.279 169.197 116.375 169.116C116.755 168.8 117.248 169.31 117.534 168.562C117.584 168.439 117.515 167.124 118.11 167.872C118.197 167.98 118.287 168.502 118.516 168.535C118.86 168.583 119.406 168.476 119.632 168.188C119.798 167.976 119.208 167.302 119.585 167.426C119.753 167.481 119.73 168.038 120.032 168.102C120.335 168.166 120.91 167.88 121.121 167.76C121.333 167.641 120.936 167.112 120.935 167.064C120.934 166.789 121.212 166.308 121.248 166.291C123.024 165.338 125.219 165.364 126.75 163.993C126.87 163.887 126.42 163.362 126.435 163.34C126.736 162.815 127.34 164.579 127.987 164.89C127.201 163.747 127.523 163.841 127.764 163.506C127.878 163.344 127.503 162.947 127.487 162.892C127.27 162.062 127.999 162.842 128.159 162.995C128.746 163.557 128.391 162.669 128.788 163.041C129.183 163.409 129.376 164.218 129.682 164C129.491 163.531 128.542 162.607 128.655 162.278C129.063 161.052 131.222 160.75 131.958 160.317C132.694 159.891 132.844 159.654 133.344 159.489C134.241 159.189 133.381 158.644 133.53 157.957C133.673 157.271 134.97 159.267 135.355 159.61C135.739 159.952 135.473 159.493 135.727 159.646C135.981 159.799 136.037 160.201 136.283 160.134C136.528 160.068 136.441 158.958 136.154 158.502C135.554 157.533 134.577 156.813 135.295 156.745C135.337 156.741 135.658 157.286 135.799 157.247C136.916 156.917 137.746 156.214 138.816 155.797C138.962 155.742 139.339 156.337 139.43 156.31C140.386 156.021 139.357 155.385 138.808 154.118C139.489 154.926 140.097 155.458 140.58 155.644C140.6 155.628 140.643 155.57 140.66 155.551C140.985 155.607 141.234 155.534 141.388 155.318C141.627 154.985 140.969 154.612 140.679 154.096C140.591 153.942 141.18 153.998 140.916 153.755C140.055 152.96 138.833 152.452 139.646 152.173C139.683 152.162 140.155 152.597 140.245 152.532C140.83 152.115 139.872 151.367 140.148 150.686C140.366 150.149 141.539 149.703 141.99 149.22C143.615 150.281 143.58 149.512 142.582 148.587C142.854 148.26 143.036 147.829 143.408 147.582C143.536 147.496 143.964 147.872 144.025 147.889C144.978 148.16 143.97 147.315 143.975 147.21C144.074 146.108 145.338 145.928 145 144.618C144.988 144.571 143.859 143.832 144.833 144.121C144.9 144.142 145.266 144.725 145.535 144.367C145.805 144.008 146.856 143.651 146.629 142.799C146.575 142.593 145.819 141.718 146.711 141.883C146.832 141.906 147.144 142.138 147.36 142.195C148.048 142.374 146.92 141.604 148.034 141.988C149.148 142.373 150.135 142.394 149.752 141.451C149.742 141.422 148.876 140.76 148.988 140.597C149.167 140.336 149.582 140.057 149.737 139.765C149.81 139.626 149.176 139.387 149.178 139.357C149.364 138.252 150.249 137.883 151.018 137.008C151.161 136.847 150.638 135.89 151.465 135.876C152.371 135.858 155.062 137.809 154.852 136.53C154.771 136.012 151.312 133.618 153.571 133.962C153.753 132.446 155.341 131.763 155.295 130.131C155.293 130.058 154.339 129.359 154.42 129.231C154.542 129.04 155.085 129.17 155.188 129.041C155.631 128.51 155.48 127.751 155.825 127.198C155.955 126.987 156.426 127.307 156.581 127.055C156.735 126.803 156.148 126.309 156.642 126.101C157.017 125.945 158.517 126.316 158.848 126.021C157.498 125.379 157.643 125.141 157.486 124.535C157.455 124.418 156.941 124.292 156.902 124.226C156.733 123.951 157.194 123.978 156.999 123.701C156.953 123.635 156.489 123.422 156.424 123.355C155.858 122.784 157.098 122.827 157.315 122.833C158.136 122.857 157.589 122.452 157.96 122.356C158.315 122.262 158.511 122.7 158.773 122.573C158.787 122.562 158.798 122.555 158.809 122.548C159.383 122.155 159.596 121.429 159.841 120.884C159.936 120.665 159.243 120.562 159.241 120.524C159.262 120.011 160.119 119.81 158.946 119.073C162.349 119.999 158.735 118.678 159.624 118.281C159.696 118.249 161.286 118.733 161.442 119.021C161.597 119.312 160.995 119.445 161.245 119.858C161.304 119.954 162.608 120.898 162.673 120.989C163.196 121.675 160.865 120.817 160.731 120.787C159.269 120.484 160.642 121.558 160.697 121.728C160.95 122.444 160.492 122.78 160.582 123.333C160.578 123.34 160.571 123.361 160.567 123.368C160.571 123.395 160.576 123.423 160.583 123.452C160.676 123.845 162.148 124.537 161.997 124.751C161.495 125.469 159.312 124.791 160.765 126.338C161.074 126.669 162.759 127.259 161.231 127.235C161.134 127.235 159.784 127.108 160.404 127.689C160.482 127.763 160.951 127.981 160.972 128.04C161.101 128.426 160.643 128.43 160.685 128.803C160.727 129.176 160.826 129.653 160.508 129.908C160.318 130.061 159.327 129.896 159.069 129.887C158.327 129.858 159.191 130.632 158.37 130.435C157.545 130.237 156.573 129.363 155.882 129.558C157.082 130.166 158.303 130.811 159.505 131.433C158.99 132.374 158.132 133.118 157.699 134.099C157.647 134.221 158.353 134.428 158.313 134.568C158.141 135.157 157.443 135.389 157.338 136.037C157.258 136.54 157.691 137.364 157.624 137.904C156.119 137.459 156.23 138.364 155.849 138.777C155.716 138.922 155.36 138.716 155.177 138.772C154.499 138.985 155.809 139.421 155.931 139.646C156.446 140.613 153.717 139.188 153.446 139.841C153.431 139.874 154.649 141.066 154.707 141.172C155.096 141.846 154.175 140.954 153.947 141.115C153.532 141.409 153.035 141.495 153.192 142.198C153.24 142.404 153.946 143.235 153.106 143.112C152.997 143.096 152.535 142.809 152.492 142.822C151.744 143.067 153.218 143.921 153.553 144.5C153.886 145.079 152.608 144.943 152.262 144.863C151.365 144.661 152.042 144.494 151.975 144.438C151.174 143.776 151.141 144.188 150.922 144.392C149.455 143.591 149.343 143.984 150.701 144.607C150.85 144.675 150.827 144.404 150.922 144.392C152.215 145.431 152.172 145.924 150.604 145.569C149.869 145.402 149.256 144.793 149.171 145.541C149.131 145.879 150.183 146.361 150.311 146.76C150.601 147.674 149.256 147.829 149.062 148.473C148.991 148.708 149.649 148.838 149.619 149.01C149.539 149.469 148.937 149.547 148.916 150.041C148.915 150.087 149.526 150.351 149.462 150.471C148.985 151.388 148.153 151.917 147.563 152.816C147.281 153.247 147.078 154.226 146.719 154.637C146.103 155.351 144.666 155.769 144.408 156.555C144.237 157.066 144.842 157.349 145.084 157.79C145.297 158.179 145.055 158.338 144.706 158.387C144.563 158.555 144.173 159.073 144 159.21C143.578 159.189 143.032 158.986 142.9 158.929C142.893 158.925 143.114 158.501 142.706 158.422C142.119 158.007 142.902 158.923 142.9 158.929C142.743 158.865 141.977 159.378 141.93 159.591C141.905 159.708 142.369 160.13 142.347 160.183C141.824 161.426 140.991 162.376 139.847 162.964C139.822 162.969 139.395 162.414 139.342 162.432C138.588 162.663 138.789 163.606 138.636 164.385C138.486 165.161 138.001 165.328 136.979 164.605C136.715 165.005 135.882 164.976 135.39 164.944C134.9 164.911 135.676 166.028 135.665 166.07C135.351 167.377 134.402 167.102 133.454 167.615C133.007 167.854 132.273 168.588 131.891 169.013C131.589 169.353 131.191 169.229 130.96 169.617C130.928 169.669 131.298 170.152 131.296 170.18C131.296 171.037 130.695 169.665 130.476 169.491C129.681 168.853 129.244 168.522 128.99 169.204C128.935 169.358 129.694 171.388 129.54 171.623C129.341 171.923 129.061 171.201 128.863 171.53C128.845 171.558 129.086 171.963 128.894 172.049C128.01 172.452 126.951 172.716 126.074 173.217C125.953 173.285 126.453 173.869 126.281 173.978C125.483 174.485 124.523 174.916 123.537 174.977C123.293 174.99 123.208 174.453 123.1 174.332C122.443 173.596 122.611 175.014 122.553 175.068C121.246 176.345 119.593 175.662 118.155 176.774C118.083 176.836 117.835 178.462 117.139 177.363C117.09 177.29 116.406 176.158 116.392 177.08C116.39 177.138 116.776 177.713 116.419 177.75C116.065 177.786 115.633 178.371 114.972 177.796C114.759 177.616 114.098 176.466 113.913 177.566C113.911 177.641 113.751 180.06 113.136 178.564C113.036 178.317 112.703 176.664 112.37 177.624C112.304 177.81 112.57 178.137 112.351 178.425C112.012 178.869 111.372 178.537 110.996 179.371C110.933 179.518 110.739 180.717 110.279 179.912C110.207 179.786 110.206 179.215 110.033 179.18C109.209 179.01 108.456 179.496 107.613 179.201C107.318 179.097 107.359 178.176 107.05 177.964C106.74 177.752 106.155 177.572 105.891 178.01C105.623 178.449 106.07 179.871 105.614 180.021C103.613 180.672 101.56 179.839 99.5735 179.606C99.2782 179.57 99.4956 180.104 99.0531 180.087C98.6812 180.071 98.2447 180.071 97.774 180.059C96.3322 180.039 94.4357 179.903 93.4932 178.881C92.5351 177.825 94.0242 177.393 93.2584 176.898C92.9001 176.662 92.1453 178.234 92.0296 178.265C90.932 178.595 90.3974 177.7 89.4341 177.672C89.2323 177.664 89.2333 178.375 89.06 178.361C88.4619 178.313 87.9554 177.833 87.3952 177.694C87.142 177.633 87.0094 178.14 86.7935 178.018C86.2754 177.729 85.865 177.325 85.5405 176.645C85.5132 176.584 86.0889 176.129 85.7135 175.935C85.0974 175.616 84.5719 174.811 83.628 174.836C83.3485 174.845 82.7125 175.861 82.6908 174.874C82.6856 174.665 83.5871 173.547 82.3981 174.245C82.2178 174.379 80.3282 175.092 80.5644 173.893C80.5901 173.773 80.6748 173.527 80.7516 173.27C80.906 172.895 81.0417 172.497 80.8656 172.499C80.8235 172.502 80.5106 173.075 80.3277 173.006C79.6862 172.75 79.2104 172.262 78.5711 171.982C78.3983 171.907 78.1729 172.587 77.928 172.458C77.2632 172.112 76.676 171.377 76.2803 170.748C76.1347 170.515 76.6359 170.225 76.6612 170.167C77.0786 169.237 76.0678 170.095 75.9407 170.084C75.1624 170.003 75.2147 169.217 74.6737 168.942C74.5247 168.864 74.1855 169.403 74.1239 169.422C73.5059 169.594 74.4521 168.937 74.3812 168.703C74.1857 168.044 73.6705 167.63 73.1802 167.274C72.9992 167.144 72.6785 167.841 72.5213 167.717C71.5834 166.996 70.7508 166.081 70.2236 164.976C70.1253 164.767 70.62 164.473 70.6792 164.351C71.0993 163.504 69.9113 164.031 69.753 164.034C69.0372 164.057 69.2652 163.579 68.9047 163.334C67.1348 162.141 65.6372 159.956 64.5134 158.207C63.0446 155.905 62.2417 153.924 60.7381 151.302C60.6432 151.129 60.0657 151.639 59.9738 151.491C59.5736 150.818 59.224 150.034 58.9364 149.175C58.5882 148.114 58.3122 147.034 57.8479 146.012C57.7905 145.883 57.1774 146.286 57.0624 146.084C56.8216 145.67 56.6872 145.093 56.7707 144.581C56.8101 144.331 57.477 144.453 57.5052 144.206C57.5721 143.63 57.4649 143.075 57.2091 142.581C57.0988 142.372 56.4986 142.903 56.4091 142.615C55.7883 140.655 55.1692 138.731 55.6067 136.523C55.6367 136.372 57.0355 135.917 56.6948 135.693C56.2935 135.764 55.8277 135.874 55.4019 135.963C54.5061 133.147 54.4145 130.194 53.9614 127.302C53.9419 127.179 53.217 127.532 53.1754 127.293C52.9369 125.928 52.493 124.623 53.029 123.091C53.0811 122.939 54.4428 122.803 54.1731 122.42C54.1238 122.351 53.8478 121.763 53.5313 121.653C53.4836 121.637 52.8706 121.848 52.8215 121.649C52.549 120.499 52.5186 119.241 52.7573 118.006C52.7976 117.811 53.4964 117.926 53.5311 117.788C53.7698 116.779 53.1381 115.773 53.6733 114.729C54.035 114 55.2276 114.201 56.359 113.767C56.5178 113.702 56.5271 113.307 57.1995 113.252C58.8885 113.163 60.7441 113.274 62.5435 113.15C62.9292 113.096 62.5098 112.893 63.4486 113.004C63.5104 112.997 63.8279 113.207 64.1495 113.252C64.3712 113.283 65.0507 113.177 65.3361 113.244C65.6215 113.314 65.0546 113.44 65.396 113.577C65.7423 113.716 66.5118 113.587 66.6303 113.898ZM133.207 164.77C132.555 164.434 133.907 166.409 133.872 165.729C133.869 165.693 133.24 164.785 133.207 164.77ZM156.52 132.301C155.385 132.207 156.637 133.169 157.502 133.266C158.366 133.361 156.864 132.328 156.52 132.301ZM157.778 127.982C156.813 128.072 159.837 129.613 159.452 128.828C159.431 128.783 157.835 127.976 157.778 127.982ZM56.808 115.277C56.8388 115.267 56.8457 115.01 56.8131 114.997C56.0428 114.923 56.0323 115.468 56.808 115.277ZM158.861 123.652C158.378 123.606 158.679 124.228 159.278 124.289C159.76 124.337 159.462 123.708 158.861 123.652ZM116.797 170.697C116.781 170.665 116.592 170.697 116.662 170.886C116.888 171.495 117.079 171.233 116.797 170.697ZM161.486 116.585C161.056 117.688 158.197 117.37 158.818 116.427C158.931 116.247 159.552 117.098 159.868 116.922C160.453 116.568 158.827 115.82 159.864 115.559C160.055 115.511 161.518 116.52 161.489 116.588C161.488 116.587 161.487 116.586 161.486 116.585ZM131.373 162.549C131.349 162.527 131.121 162.653 131.134 162.682C131.46 163.383 131.924 163.126 131.373 162.549ZM105.92 171.634C105.9 171.569 105.311 171.557 105.297 171.62C105.081 172.886 106.311 172.91 105.92 171.634ZM142.039 149.239C141.547 148.591 141.651 148.26 142.581 148.587C142.389 148.793 142.23 149.029 142.039 149.239Z" fill="white" fill-opacity="0.7"/>
<path d="M49.397 11.3128C51.9953 9.53379 55.6224 7.49236 59.8361 6.30148C61.6783 5.79416 63.3788 5.43879 64.9147 5.15615C66.3308 4.90085 65.7365 5.48527 66.7068 5.3375C68.6108 5.0524 70.3005 4.46891 72.1742 4.28146C72.7882 4.22355 72.1769 5.03499 72.8163 4.96C76.3451 4.54325 79.5913 3.78258 83.1196 3.34417C90.9329 2.37908 98.6341 1.6088 106.372 0.968035C116.031 0.16973 125.762 0.0115987 135.627 0.805961C141.017 1.22503 147.398 2.51138 153.006 3.41547C153.567 3.50456 154.109 3.59201 154.647 3.67955C155.388 3.80218 155.073 3.13414 155.224 3.11606C157.585 2.88329 156.591 3.88114 157.964 4.40074C163.437 6.45439 169.293 9.51561 173.757 12.8048C175.654 14.1962 174.567 11.7992 175.978 13.8258C176.074 13.9654 175.217 14.059 175.661 14.5243C176.673 15.5698 178.723 17.3421 179.459 18.152C180.884 19.7094 181.127 19.9593 182.476 21.3932C184.314 23.3669 186.191 25.9356 188.169 27.9566C188.593 28.3876 188.542 27.3614 189.265 28.0142C189.34 28.082 189.425 28.1639 189.518 28.2573C190.418 29.1484 191.793 31.0153 192.157 31.7613C192.572 32.5913 191.931 32.5692 191.931 32.7672C191.908 34.3843 194.68 36.1727 194.915 36.4986C197.701 40.2349 199.536 43.9267 201.417 47.55C202.439 49.5207 203.441 51.5027 204.532 53.5144C206.912 57.8935 209.54 62.5518 211.512 66.8813C212.436 68.9085 213.233 70.8453 213.987 72.7597C215.149 75.7159 216.209 78.618 217.418 81.7446C217.626 82.2877 218.095 81.3837 218.351 82.0504C221.075 89.1447 223.132 96.4267 224.419 103.832C224.546 104.571 223.674 103.792 223.762 104.539C223.792 104.791 223.822 105.052 223.852 105.322C224.373 109.923 224.69 116.537 227.843 118.547C228.323 121.615 228.869 125.343 228.75 128.171C228.672 129.993 227.68 128.4 228.335 130.511C228.481 130.987 229.004 130.253 229.175 130.976C229.897 134.026 230.189 137.43 230.92 140.455C231.07 141.069 231.609 140.826 231.734 140.99C232.751 142.376 231.698 145.03 231.66 145.582C231.593 146.688 231.583 147.714 231.609 148.684C231.682 151.418 232.055 153.79 232.253 156.635C232.313 157.525 232.996 156.416 233.08 157.275C233.508 161.761 233.633 166.444 233.3 170.869C233.223 171.851 232.575 170.949 232.504 171.415C232.194 173.479 233.411 173.948 233.09 175.942C233.022 176.358 232.475 176.104 232.412 176.178C231.417 177.338 232.719 178.424 232.733 178.74C232.923 182.677 231.291 185.048 230.958 188.792C230.916 189.242 231.765 188.325 231.598 189.608C231.349 191.476 231.009 193.399 230.549 195.306C228.611 202.667 223.962 208.124 219.523 212.84C218.615 213.778 218.815 212.727 218.712 212.748C217.088 213.091 217.552 214.617 217.307 214.972C215.375 217.709 212.416 219.15 212.015 221.882C210.708 223.118 209.409 224.353 208.113 225.587C199.256 234.341 187.784 240.899 175.829 243.161C175.656 243.199 175.754 242.464 175.411 242.541C172.722 243.128 172.237 243.625 171.584 244.474C171.238 244.929 170.827 245.485 169.985 246.183C169.385 246.686 166.89 245.753 166.69 245.686C165.914 245.456 166.363 244.311 166.118 244.291C164.125 244.144 165.221 247.274 162.696 247.882C162.615 247.895 162.808 247.226 162.581 247.218C161.89 247.187 161.284 247.577 160.601 247.52C159.019 247.386 158.157 245.941 156.118 247.341C155.859 247.52 156.693 249.258 154.417 249.652C153.512 249.811 149.538 250.657 148.396 250.753C147.258 250.854 147.908 250.111 147.823 250.102C144.67 249.903 145.745 249.357 144.026 248.483C142.311 247.61 143.243 250.287 142.685 250.709C142.128 251.132 139.805 250.886 139.224 250.756C138.643 250.627 139.25 250.13 138.747 250.088C135.415 249.817 137.588 251.705 136.611 252.327C134.301 253.795 132.015 252.065 129.711 252.225C129.087 252.268 129.663 252.656 129.122 252.786C128.48 252.938 127.899 253.005 127.346 253.049C126.035 253.152 124.853 253.131 123.167 253.785C122.774 253.938 120.922 255.448 119.498 254.698C119.298 254.589 119.755 254.011 118.813 254.009C117.398 254.008 114.879 254.177 113.396 254.498C112.298 254.736 113.654 255.461 112.233 255.333C111.598 255.275 112.704 254.668 111.519 254.599C110.344 254.532 107.389 254.801 106.26 254.897C105.133 254.996 105.796 255.597 105.708 255.647C105.18 255.938 103.017 256.389 102.829 256.397C98.4095 256.693 94.1158 256.619 89.8884 256.421C84.7901 256.185 79.7962 255.552 74.6631 254.797C73.923 254.686 74.2847 255.449 74.1704 255.439C71.5797 255.214 73.9261 253.839 72.3273 252.877C72.2804 254.283 71.3031 253.827 69.5214 253.53C68.6621 253.385 68.9837 254.022 68.8933 254.056C67.4239 254.513 66.8336 253.241 66.6771 252.971C66.0851 251.973 64.9293 252.594 64.5364 251.912C64.1515 251.234 65.6398 250.9 64.0227 250.382C63.4096 250.701 64.2158 252.336 62.904 252.12C60.3528 251.699 56.9186 250.32 53.7724 248.79C50.7044 247.318 48.0273 245.516 46.3893 244.469C43.0386 242.296 41.9663 241.583 40.203 240.074C37.084 237.283 37.7126 238.969 35.406 237.649C33.1166 236.284 35.6416 235.317 35.6891 234.69C35.7504 234.07 35.1095 234.205 34.9586 233.697C34.8115 233.192 35.7597 233.573 35.0505 232.8C34.3396 232.036 31.636 230.732 30.9969 230.844C29.6435 231.096 29.7516 232.874 28.0258 230.579C27.9282 230.446 28.7417 230.38 28.3462 229.895C26.3648 227.476 24.2948 225.067 22.3264 222.604C21.1544 221.146 20.0792 219.576 19.2884 217.908C18.9984 217.289 19.9015 217.47 19.7461 217.111C18.2985 213.352 17.9429 215.125 15.8422 213.515C17.6376 213.335 18.1254 211.822 17.1183 208.943C16.5545 207.318 15.9974 207.685 15.2012 206.961C15.1415 206.908 15.0805 206.849 15.018 206.781C14.7493 206.491 14.8228 205.077 14.4141 204.967C13.0687 204.577 12.2147 206.169 11.7232 202.957C11.7039 202.816 12.4439 203.049 12.3332 202.575C11.6292 199.514 10.3608 199.515 9.24348 196.305C8.36751 193.789 7.77907 189.04 7.1127 186.091C8.99988 185.644 7.83766 183.02 6.25545 182.231C5.81768 180.32 5.23127 178.274 4.97511 176.387C4.88584 175.734 5.5317 176.025 5.57176 175.93C5.97662 175.017 5.5412 174.466 5.13194 174.085C4.89437 173.86 4.66571 173.693 4.61364 173.546C3.12996 169.153 3.41052 165.297 1.86129 161.071C1.80709 160.922 0.432058 160.842 1.26256 159.541C1.32144 159.459 2.10508 160.827 1.90313 158.764C1.69719 156.695 2.06885 152.765 1.28788 149.95C1.09554 149.267 -0.0904805 147.562 0.707517 146.117C0.815815 145.923 1.21036 146.113 1.41449 145.836C2.06517 144.941 0.686307 144.512 1.81042 143.449C2.34681 142.945 2.81054 142.198 3.05759 141.236C3.32892 140.195 3.33972 138.899 2.90036 137.405C2.87592 137.317 1.78607 136.65 1.79374 135.747C1.80606 134.302 2.02116 132.255 2.01603 130.749C2.01308 130.03 1.34208 130.489 1.32996 130.364C0.968024 125.508 1.61421 122.055 2.02935 116.873C2.10619 115.925 1.28991 113.15 2.0991 111.338C2.98979 109.355 6.15763 111.58 5.6348 106.945C5.43503 105.09 1.42008 102.398 3.88954 99.2269C3.89385 98.895 3.90283 98.5681 3.91604 98.2461C4.19504 92.0628 6.05275 86.5982 7.13697 80.5048C7.18531 80.2275 6.35587 78.9813 6.60525 78.3081C6.9683 77.3343 7.6849 76.9802 7.98265 76.3181C9.27627 73.5222 10.1137 70.7509 12.0442 68.3847C12.1433 68.2655 12.231 68.1784 12.3094 68.1143C12.865 67.6699 13.0694 68.0518 13.9053 67.2661C14.8763 66.4015 15.1491 65.2385 16.881 64.5213C18.1957 63.9932 20.1208 64.6284 21.7617 63.954C21.1206 62.6034 22.2253 62.0376 24.054 60.7029C24.0633 60.6961 24.0719 60.6893 24.0799 60.6825C24.3934 60.4591 23.8138 60.1507 23.9765 60.0226C24.6539 59.4763 25.5226 59.6105 26.156 59.0646C26.3111 58.9325 26.1427 58.4503 26.2601 58.3152C27.2532 57.1446 29.7127 57.4938 30.1318 57.5618C31.7389 57.8077 32.1626 56.9645 33.3033 56.9002C34.4442 56.8383 32.9985 57.7089 34.2744 57.4798C36.9134 57.0059 40.144 55.9334 42.7455 55.2393C43.7832 54.9591 42.8959 54.497 43.0402 54.4416C45.1506 53.6802 47.4979 53.8479 48.4002 52.2465C50.689 55.332 49.6306 51.5867 52.9341 51.6619C53.1997 51.6711 53.794 53.2476 52.9156 53.6608C52.0344 54.0753 50.5169 53.8603 49.3124 54.5275C49.0151 54.6836 47.6577 56.609 47.4469 56.7617C45.7961 57.9353 44.9081 55.6146 44.7719 55.5075C43.2724 54.3795 41.5891 56.5962 41.0778 56.8685C38.6905 58.1159 36.4482 58.4575 34.4656 59.51C33.1702 60.1977 33.5609 61.783 32.4799 62.1009C29.352 63.034 27.4105 61.8865 25.2198 63.658L25.48 63.5448C25.1886 63.8275 24.9073 64.1674 24.6286 64.5832C24.152 65.2993 25.6014 66.5274 22.6504 66.5089C22.4735 66.4995 20.1369 66.3256 19.6541 67.5917C19.5941 67.7495 19.8729 68.1855 19.7534 68.3129C18.9536 69.1626 18.1104 69.2478 17.418 70.0954C17.0524 70.5531 16.7394 71.054 16.4272 71.5447C16.1595 71.9625 15.8299 72.447 15.4434 72.8938C14.9367 73.4673 13.5633 73.9578 13.1619 74.2236C11.9958 74.9806 12.4873 76.6349 11.4423 77.0173C10.3821 77.4388 9.7937 75.492 8.51761 77.295C9.74645 77.8481 10.9793 78.4929 12.2087 79.0688C10.6727 83.1208 9.24392 87.3921 8.56588 91.9451C8.48383 92.515 9.28856 92.0552 9.22324 92.6525C8.99624 94.7413 8.43369 96.5832 8.21338 98.679C8.16628 99.1295 8.13363 99.6108 8.12624 100.093C8.09433 102.199 8.68631 104.566 8.74336 106.78C7.12037 108.034 7.46657 111.365 7.23471 113.759C7.15316 114.599 6.74493 114.526 6.58892 115.121C6.0147 117.366 7.41156 116.353 7.60497 116.978C8.43916 119.657 5.3539 119.804 5.36954 122.959C5.36844 123.128 6.97854 125.188 7.07853 125.468C7.7249 127.254 6.50354 125.755 6.37119 126.87C6.13229 128.903 5.73414 130.32 6.22188 132.709C6.36621 133.402 7.39886 135.067 6.62491 136.422C6.52351 136.601 5.97995 136.51 5.95 136.654C5.45692 139.256 7.16659 139.287 7.77594 140.749C7.82564 140.867 7.86393 140.991 7.89219 141.117C8.21016 142.564 7.25862 144.541 6.96453 144.978C6.13396 146.221 6.55497 144.065 6.46861 144.004C5.41949 143.265 5.64819 144.925 5.61634 146.194C3.95272 146.448 4.13722 148.229 5.59264 147.512C5.7509 147.431 5.55024 146.453 5.61634 146.194C7.3015 147.241 7.59904 149.135 6.21725 151.368C5.57567 152.416 4.65312 151.535 5.21526 154.558C5.47944 155.924 6.57443 155.285 7.00817 156.456C7.99629 159.113 7.42661 162.785 8.10094 165.574C8.34407 166.581 8.78532 165.479 8.97377 166.161C9.47804 167.962 9.34488 169.679 9.98476 171.475C10.0437 171.638 10.5978 171.088 10.7324 171.661C10.8202 172.029 10.9044 172.391 10.9872 172.758C11.872 176.652 12.4242 180.277 13.5354 184.437C14.1199 186.636 15.5762 190.453 16.1755 192.733C17.2062 196.685 17.7901 201.772 19.1261 204.989C19.214 205.202 19.2969 205.383 19.376 205.539C20.0956 206.962 20.5361 206.474 21.2019 207.156C22.6224 208.627 22.2929 212.049 22.2516 212.505C22.2479 212.536 21.4094 210.908 21.4671 211.939C21.0336 212.737 22.2421 212.49 22.2516 212.505C22.1898 212.87 23.5758 215.937 24.085 216.343C24.3363 216.594 24.7449 216.082 24.8644 216.214C25.528 216.948 26.2493 217.667 27.0433 218.435C29.8639 221.201 32.5734 224.018 35.2487 226.899C35.3051 226.971 34.7226 227.38 34.862 227.543C36.8126 229.833 38.8213 230.467 40.9914 231.619C43.1686 232.767 44.5426 234.009 44.9974 235.815C46.5495 236.758 48.4166 238.61 49.5451 239.644C50.6743 240.684 51.5254 239.583 51.6478 239.624C53.7697 240.263 55.228 240.971 56.7409 241.756C58.1375 242.464 59.55 243.254 61.396 244.018C63.3097 244.83 67.2203 245.951 69.3645 246.378C71.057 246.727 71.9872 247.287 73.5782 247.435C73.7925 247.454 73.7122 246.816 73.7807 246.807C75.6378 246.464 74.516 247.735 74.8206 248.069C75.9317 249.267 76.6878 249.942 79.0334 249.818C79.5865 249.793 81.3523 247.862 82.2859 247.821C83.5198 247.774 82.9901 248.498 84.2929 248.408C84.4044 248.4 84.4103 247.931 85.2028 247.998C86.7071 248.12 88.2771 248.231 89.88 248.294C92.2733 248.383 94.723 248.42 97.1037 248.306C97.651 248.281 96.9203 247.56 97.7126 247.511C101.433 247.281 105.513 247.044 109.179 247.072C110.078 247.082 109.566 247.653 109.774 247.79C111.058 248.621 112.624 247.092 112.899 247.036C117.686 246.063 121.744 246.06 126.189 245.481C127.865 245.261 129.595 244.961 131.426 244.497C131.796 244.403 134.394 242.48 135.878 243.495C135.978 243.562 137.462 244.608 138.42 243.542C138.479 243.476 137.58 242.965 138.957 242.786C140.336 242.605 142.447 241.765 144.456 242.118C145.091 242.229 146.743 243.216 148.311 241.858C148.419 241.766 150.665 238.949 151.959 240.304C152.169 240.527 152.357 242.217 154.274 240.92C154.64 240.669 153.834 240.459 154.838 240C156.372 239.295 158.606 239.256 160.387 238.059C160.708 237.846 161.874 236.388 163.236 236.941C163.449 237.028 163.246 237.661 163.866 237.569C165.657 237.303 167.445 236.756 169.163 236.257C170.341 235.914 171.511 235.596 172.694 235.387C173.756 235.195 173.508 236.231 174.649 236.12C175.787 236.011 177.99 235.504 178.923 234.711C179.851 233.92 178.185 233 179.714 232.29C186.292 229.22 192.602 226.558 198.118 221.941C198.931 221.255 197.931 221.453 199.08 220.405C199.699 219.833 200.369 219.18 201.075 218.457C205.496 213.989 210.981 207.798 214.35 204.973C217.551 202.285 214.937 206.786 217.137 204.5C218.204 203.37 217.712 201.083 217.848 200.775C219.219 197.684 220.898 196.027 221.39 193.597C221.474 193.112 220.692 193.387 220.759 193C220.763 192.972 220.767 192.945 220.772 192.917C221.095 191.184 221.729 189.361 221.94 187.58C222.03 186.782 221.494 186.838 221.631 186.113C221.954 184.341 222.331 182.761 222.957 181.008C223.013 180.848 223.579 181.999 223.705 180.639C223.905 178.415 224.505 175.649 224.037 173.04C223.895 172.274 222.707 172.231 223.529 170.585C223.698 170.233 225.142 170.676 223.88 168.744C223.676 168.422 221.931 165.232 222.93 163.598C223.196 163.175 224.317 162.028 224.081 161.108C224.044 160.983 223.432 161.524 223.326 160.757C222.961 158.047 222.809 155.184 222.342 152.402C222.215 151.656 221.662 152.836 221.494 151.727C221.4 151.114 221.313 150.463 221.232 149.783C220.922 147.164 220.706 144.233 220.551 141.822C220.48 140.707 221.128 141.397 221.176 141.309C221.966 139.88 220.555 139.29 220.419 138.874C219.585 136.267 219.884 134.143 219.325 131.706C219.172 131.034 218.632 131.616 218.555 131.49C217.788 130.18 219.069 131.04 219.045 130.133C218.979 127.591 218.441 124.832 217.892 122.344C217.689 121.432 217.17 122.597 216.996 121.779C215.984 117.089 215.023 112.22 214.296 107.609C214.272 107.454 214.248 107.3 214.224 107.146C214.086 106.251 214.763 106.671 214.843 106.458C215.404 104.977 213.749 103.427 213.526 103.04C212.511 101.26 212.785 100.389 212.222 98.7336C209.897 91.8662 207.2 83.7559 204.404 76.9019C203.91 75.6774 203.422 74.4945 202.946 73.368C199.614 65.5432 196.701 59.1535 192.929 52.4342C191.998 50.7822 191.043 49.115 190.033 47.4277C189.701 46.8725 189.386 47.8106 189.091 47.3368C186.418 43.0135 183.953 38.7175 181.208 35.6004C179.818 34.0292 178.422 32.4841 176.991 30.9998C176.582 30.5749 176.63 31.6741 175.961 31.0144C174.59 29.6691 172.999 27.9228 171.851 26.4663C171.288 25.7547 172.573 26.1753 171.995 25.4681C170.651 23.8281 169.038 22.2989 167.37 21.1384C166.661 20.6513 167.237 22.0062 166.361 21.344C161.758 17.9007 156.917 16.0476 151.012 14.6014C149.129 14.1474 147.234 13.6829 145.342 13.2054C144.77 13.0621 144.448 11.5364 143.166 11.6622C143.023 12.0546 142.971 12.5304 142.877 12.9571C131.209 11.7717 119.479 11.4039 107.598 12.5465C107.011 12.6034 106.428 12.6618 105.849 12.7216C105.316 12.7772 106.326 13.4471 105.287 13.5599C99.2948 14.2168 93.5432 15.1844 87.3707 15.3743C86.7518 15.3966 86.8532 13.9933 85.1046 14.4881C84.8028 14.5729 82.1535 15.2068 81.5276 15.6227C81.4412 15.6836 82.0404 16.2246 81.1848 16.396C76.2625 17.3791 71.0392 18.2895 66.3109 19.1792C65.5545 19.3232 66.1654 18.4472 65.6151 18.5481C65.0278 18.6558 64.4108 18.8021 63.8484 18.9582C61.1149 19.6948 58.3217 21.6113 55.3354 22.9176C52.9405 23.9772 53.0921 22.4839 51.2736 22.3001C51.0172 22.2752 49.6074 23.179 49.1624 22.665C48.0511 21.3722 47.7025 19.385 46.4362 18.0609C46.1597 17.7828 44.5954 19.2931 45.1451 17.8204C45.1811 17.7249 46.3216 16.6012 46.4792 16.1129C46.5866 15.7774 45.7944 15.4826 46.1076 14.9365C46.4232 14.3893 47.2609 14.5192 47.8935 13.7085C48.5363 12.892 47.7222 12.4785 49.397 11.3128ZM54.8825 244.03C55.1417 244.326 55.4126 244.408 55.6403 244.364C56.1345 244.278 56.4301 243.64 56.1047 243.263C55.9849 243.117 55.7724 243.014 55.4365 242.999C55.3593 242.998 54.8295 243.972 54.8825 244.03ZM7.58722 87.03C6.16097 88.6643 7.46843 90.228 8.50897 89.083C9.55155 87.9666 8.02083 86.5449 7.58722 87.03ZM14.0344 69.2733C13.9629 69.3092 13.8976 69.3476 13.8384 69.3881C12.2726 70.5774 14.7614 72.397 15.3469 70.6448C15.3513 70.6331 15.3555 70.6212 15.3598 70.6091C15.392 70.5098 14.1459 69.2185 14.0344 69.2733ZM56.5799 18.5526C56.5466 18.5317 55.5336 19.0935 55.5268 19.1376C55.3959 20.0979 57.3926 18.9882 56.5799 18.5526ZM30.2187 59.3812C29.4026 59.1783 27.6753 60.3653 28.691 60.6056C29.5024 60.7983 31.2319 59.6308 30.2187 59.3812ZM129.467 251.081C129.496 251.113 130.349 251.009 130.299 250.813C130.141 250.181 128.99 250.55 129.467 251.081ZM62.4255 52.6551C60.3601 51.7894 58.3055 51.4211 57.5238 50.7785C56.7926 50.2155 57.1458 49.3458 60.3155 49.5563C60.8988 49.6342 60.2349 49.7884 59.6822 50.0308C59.1255 50.2723 58.6679 50.5677 59.322 50.6767C61.5796 51.0682 63.8829 50.1441 65.6295 52.1281C65.9109 52.4468 62.6178 52.6653 62.4166 52.6561C62.4196 52.6558 62.4225 52.6554 62.4255 52.6551ZM54.5033 246.997C54.5044 247 54.511 247.005 54.5224 247.012C54.67 247.107 55.6046 247.523 55.6409 247.505C56.3299 247.149 55.1547 246.481 54.68 246.639C54.5477 246.684 54.4693 246.795 54.5033 246.997ZM178.673 241.536C178.76 241.585 181.404 240.711 181.467 240.612C182.386 238.964 177.101 240.716 178.673 241.536ZM7.15026 186.031C6.07248 184.974 5.58633 183.483 6.25599 182.237C6.5306 183.503 6.85637 184.763 7.15026 186.031Z" fill="white" fill-opacity="0.7"/>
</svg>
