<svg width="234" height="257" viewBox="0 0 234 257" fill="none" xmlns="http://www.w3.org/2000/svg">
<g id="icon-smile">
<path id="smile" d="M106.372 0.968018C116.03 0.169729 125.762 0.0116007 135.627 0.805908C141.017 1.22497 147.398 2.51119 153.006 3.41528C153.567 3.50436 154.109 3.5924 154.647 3.67993C155.387 3.80249 155.074 3.1353 155.223 3.11646C157.585 2.88373 156.592 3.881 157.964 4.40063C163.436 6.45426 169.292 9.51579 173.757 12.8049C175.653 14.1963 174.566 11.7998 175.977 13.8264C176.072 13.966 175.218 14.0595 175.661 14.5247C176.673 15.5702 178.722 17.3427 179.459 18.1526C180.884 19.7099 181.127 19.9599 182.475 21.3938C184.313 23.3675 186.191 25.9363 188.169 27.9573C188.593 28.3874 188.542 27.3622 189.265 28.0149C189.34 28.0826 189.425 28.1648 189.518 28.2581C190.418 29.1493 191.792 31.016 192.156 31.762C192.571 32.5916 191.931 32.5698 191.931 32.7678C191.909 34.3847 194.68 36.1734 194.915 36.4993C197.7 40.2354 199.535 43.9269 201.417 47.55C202.438 49.5207 203.441 51.5033 204.532 53.5149C206.912 57.8937 209.539 62.5519 211.511 66.8811C212.436 68.9082 213.232 70.8457 213.986 72.76C215.149 75.7162 216.209 78.6188 217.418 81.7454C217.626 82.287 218.095 81.3847 218.351 82.051C221.074 89.1452 223.132 96.4272 224.419 103.832C224.546 104.571 223.674 103.793 223.761 104.539C223.792 104.791 223.821 105.053 223.851 105.323C224.373 109.923 224.69 116.538 227.843 118.547C228.322 121.615 228.869 125.344 228.75 128.171C228.672 129.993 227.679 128.4 228.335 130.511C228.481 130.987 229.003 130.254 229.175 130.976C229.896 134.025 230.189 137.431 230.92 140.455C231.07 141.069 231.609 140.827 231.733 140.99C232.75 142.376 231.698 145.03 231.66 145.582C231.593 146.688 231.582 147.715 231.608 148.685C231.681 151.418 232.055 153.791 232.253 156.636C232.313 157.525 232.995 156.417 233.08 157.276C233.507 161.761 233.633 166.444 233.3 170.869C233.222 171.85 232.575 170.95 232.505 171.415C232.195 173.479 233.411 173.949 233.09 175.943C233.022 176.357 232.476 176.105 232.412 176.178C231.418 177.338 232.718 178.424 232.732 178.74C232.923 182.677 231.291 185.048 230.958 188.792C230.917 189.241 231.765 188.326 231.598 189.608C231.349 191.476 231.009 193.399 230.549 195.306C228.611 202.667 223.962 208.124 219.523 212.84C218.616 213.778 218.814 212.728 218.712 212.748C217.088 213.091 217.552 214.617 217.306 214.973C215.375 217.709 212.415 219.15 212.014 221.882C210.708 223.118 209.408 224.353 208.113 225.587C199.256 234.341 187.783 240.899 175.829 243.161C175.656 243.197 175.753 242.465 175.41 242.541C172.722 243.128 172.237 243.626 171.584 244.475C171.238 244.929 170.826 245.486 169.985 246.184C169.384 246.686 166.89 245.753 166.689 245.686C165.914 245.456 166.363 244.311 166.118 244.291C164.125 244.145 165.221 247.274 162.696 247.882C162.616 247.894 162.807 247.227 162.581 247.218C161.89 247.188 161.284 247.577 160.601 247.52C159.019 247.386 158.157 245.941 156.118 247.341C155.86 247.521 156.691 249.259 154.417 249.653C153.51 249.812 149.539 250.656 148.396 250.753C147.26 250.853 147.907 250.113 147.823 250.102C144.67 249.904 145.744 249.357 144.025 248.484C142.31 247.611 143.242 250.287 142.685 250.709C142.127 251.131 139.806 250.886 139.224 250.756C138.644 250.627 139.25 250.13 138.747 250.088C135.416 249.817 137.587 251.705 136.611 252.327C134.301 253.795 132.015 252.066 129.712 252.225C129.088 252.268 129.663 252.656 129.122 252.786C128.48 252.938 127.899 253.006 127.345 253.049C126.035 253.152 124.852 253.131 123.167 253.784C122.773 253.938 120.922 255.447 119.498 254.698C119.298 254.589 119.755 254.011 118.813 254.009C117.398 254.008 114.879 254.177 113.396 254.498C112.299 254.737 113.653 255.461 112.233 255.333C111.599 255.275 112.703 254.668 111.519 254.599C110.344 254.532 107.389 254.801 106.26 254.897C105.134 254.996 105.795 255.597 105.708 255.648C105.179 255.938 103.016 256.389 102.829 256.397C98.4093 256.693 94.1156 256.619 89.8884 256.422C84.7902 256.186 79.7958 255.553 74.6628 254.798C73.9241 254.687 74.2833 255.447 74.1707 255.44C71.5803 255.215 73.9256 253.84 72.3269 252.877C72.2798 254.283 71.3027 253.827 69.5212 253.531C68.6628 253.386 68.983 254.021 68.8933 254.056C67.4244 254.513 66.8331 253.241 66.6765 252.971C66.0844 251.974 64.9288 252.594 64.5359 251.911C64.1519 251.234 65.639 250.9 64.0222 250.382C63.4099 250.701 64.2151 252.337 62.9041 252.12C60.353 251.699 56.9183 250.32 53.7722 248.79C50.7044 247.318 48.0274 245.516 46.3894 244.469C43.039 242.297 41.966 241.584 40.2029 240.074C37.084 237.284 37.7123 238.969 35.406 237.65C33.1171 236.284 35.6409 235.317 35.6892 234.69C35.7502 234.07 35.1098 234.204 34.9587 233.697C34.8121 233.192 35.7592 233.573 35.0505 232.8C34.3398 232.036 31.6364 230.733 30.9968 230.844C29.6437 231.097 29.7507 232.875 28.0251 230.579C27.928 230.447 28.7415 230.38 28.3464 229.895C26.365 227.476 24.2943 225.067 22.3259 222.604C21.1541 221.146 20.0786 219.576 19.2878 217.908C18.9982 217.289 19.901 217.47 19.7458 217.112C18.2983 213.352 17.9423 215.125 15.8416 213.515C17.6368 213.336 18.1249 211.822 17.1179 208.944C16.5542 207.319 15.9972 207.685 15.2009 206.961C15.1413 206.908 15.0798 206.849 15.0173 206.781C14.7487 206.491 14.8224 205.077 14.4138 204.967C13.0685 204.578 12.2149 206.169 11.7234 202.957C11.7041 202.816 12.4431 203.049 12.3328 202.575C11.6288 199.515 10.3602 199.515 9.24292 196.305C8.36707 193.789 7.77836 189.04 7.11206 186.091C8.99916 185.644 7.83771 183.02 6.25562 182.231C5.81788 180.32 5.23151 178.275 4.97534 176.387C4.88617 175.735 5.52963 176.023 5.57104 175.93C5.97569 175.016 5.54078 174.466 5.13159 174.085C4.89416 173.861 4.66527 173.693 4.61304 173.546C3.12937 169.153 3.41024 165.296 1.86108 161.071C1.80525 160.922 0.432893 160.841 1.26245 159.541C1.32198 159.461 2.10478 160.825 1.90308 158.765C1.69714 156.695 2.06873 152.765 1.28784 149.949C1.09536 149.267 -0.0901971 147.562 0.706787 146.117C0.815017 145.924 1.20957 146.112 1.41382 145.836C2.06442 144.941 0.686857 144.513 1.8103 143.449C2.34664 142.946 2.8103 142.198 3.05737 141.237C3.32868 140.195 3.33943 138.899 2.90015 137.405C2.873 137.315 1.78648 136.649 1.7937 135.747C1.80602 134.303 2.02047 132.255 2.01538 130.749C2.01243 130.031 1.34285 130.488 1.32983 130.365C0.967916 125.508 1.61391 122.055 2.02905 116.873C2.10576 115.925 1.2895 113.15 2.09839 111.338C2.98914 109.355 6.15719 111.58 5.63452 106.945C5.43428 105.09 1.42057 102.398 3.8894 99.2268C3.89371 98.8951 3.90257 98.5681 3.91577 98.2463C4.19477 92.0631 6.05224 86.5983 7.13647 80.5051C7.1848 80.2279 6.35624 78.9812 6.60522 78.3079C6.96821 77.3347 7.6843 76.9802 7.98218 76.3186C9.27572 73.523 10.1134 70.7511 12.0437 68.385C12.1427 68.266 12.2311 68.1785 12.3093 68.1145C12.8648 67.6704 13.0697 68.0518 13.905 67.2668C14.876 66.4023 15.1491 65.2389 16.8806 64.5217C18.1953 63.9936 20.1207 64.6285 21.7615 63.9543C21.1205 62.6038 22.2251 62.0378 24.0535 60.7034C24.0627 60.6967 24.0719 60.6896 24.0798 60.6829C24.393 60.4596 23.8145 60.1509 23.9763 60.0227C24.6536 59.4765 25.5227 59.6103 26.156 59.0647C26.3105 58.9324 26.1432 58.4515 26.2595 58.3157C27.2524 57.1453 29.7118 57.4936 30.1316 57.5618C31.7386 57.8077 32.163 56.9651 33.3035 56.9006C34.4436 56.839 32.9989 57.7086 34.2742 57.4797C36.9129 57.0059 40.1436 55.9336 42.7449 55.2395C43.7817 54.9596 42.8974 54.4977 43.0398 54.4417C45.1501 53.6803 47.4977 53.8474 48.4001 52.2463C50.6888 55.3316 49.6311 51.5874 52.9343 51.6624C53.2001 51.6734 53.7934 53.2483 52.9158 53.6614C52.0346 54.0757 50.5166 53.8605 49.3123 54.5276C49.0144 54.6847 47.6587 56.6078 47.447 56.762C45.7964 57.935 44.9074 55.6152 44.7712 55.5081C43.2722 54.3807 41.5897 56.595 41.0779 56.8684C38.6909 58.1155 36.448 58.4577 34.4656 59.51C33.1705 60.1979 33.5602 61.7829 32.4792 62.1008C29.3517 63.0336 27.41 61.8871 25.2195 63.6584L25.4792 63.5452C25.1881 63.8277 24.9071 64.1678 24.6287 64.5833C24.1527 65.2993 25.6008 66.5275 22.6501 66.509C22.4712 66.4994 20.1366 66.3266 19.6541 67.592C19.5946 67.7502 19.8721 68.1854 19.7527 68.3127C18.953 69.1621 18.11 69.2484 17.4177 70.0959C17.0523 70.5535 16.7386 71.0546 16.4265 71.5452C16.1588 71.9628 15.8294 72.4473 15.4431 72.8938C14.9363 73.4672 13.5633 73.9581 13.1619 74.2239C11.9961 74.981 12.487 76.6355 11.4421 77.0178C10.3822 77.4388 9.79326 75.4924 8.51733 77.2952C9.74614 77.8482 10.9793 78.4927 12.2087 79.0686C10.6729 83.1205 9.24321 87.3927 8.56519 91.9456C8.48373 92.5145 9.28853 92.0558 9.22339 92.6526C8.99638 94.7412 8.43296 96.5834 8.21265 98.679C8.16557 99.1294 8.13313 99.6113 8.12573 100.093C8.09392 102.2 8.68585 104.566 8.74292 106.781C7.12031 108.034 7.46598 111.366 7.23413 113.76C7.15243 114.598 6.74466 114.526 6.58862 115.121C6.01475 117.365 7.41031 116.354 7.60425 116.978C8.43822 119.656 5.35333 119.804 5.3689 122.959C5.36959 123.13 6.97639 125.187 7.07788 125.468C7.72403 127.254 6.50342 125.756 6.37085 126.869C6.13195 128.902 5.73372 130.321 6.22144 132.709C6.36599 133.402 7.39845 135.067 6.62476 136.422C6.52296 136.601 5.98045 136.51 5.94995 136.654C5.45708 139.256 7.16673 139.287 7.77612 140.749C7.82579 140.867 7.86409 140.991 7.89233 141.117C8.21014 142.564 7.25867 144.542 6.9646 144.979C6.13474 146.22 6.55429 144.068 6.46851 144.004C5.41941 143.265 5.64781 144.925 5.61597 146.195C3.95289 146.448 4.1375 148.229 5.59253 147.512C5.75042 147.43 5.55017 146.454 5.61597 146.195C7.30113 147.241 7.59835 149.136 6.21655 151.368C5.57502 152.415 4.65272 151.537 5.2146 154.558C5.47883 155.924 6.57372 155.285 7.00757 156.455C7.9956 159.113 7.42602 162.786 8.10034 165.574C8.3435 166.581 8.78498 165.479 8.97339 166.161C9.47746 167.962 9.34433 169.679 9.98413 171.476C10.0435 171.638 10.5976 171.088 10.7322 171.661C10.8199 172.029 10.9043 172.392 10.9871 172.758C11.8718 176.652 12.4238 180.277 13.5349 184.437C14.1195 186.636 15.5762 190.454 16.1755 192.734C17.2061 196.686 17.7899 201.772 19.1257 204.989C19.2136 205.202 19.2966 205.384 19.3757 205.539C20.0952 206.962 20.5362 206.475 21.2019 207.156C22.622 208.627 22.2931 212.048 22.2517 212.505C22.2379 212.516 21.4092 210.914 21.4666 211.94C21.0341 212.736 22.2406 212.49 22.2517 212.505C22.1908 212.872 23.5757 215.937 24.0847 216.343C24.3361 216.594 24.7446 216.083 24.864 216.215C25.5275 216.948 26.249 217.667 27.0427 218.435C29.8633 221.2 32.5735 224.018 35.2488 226.899C35.3048 226.971 34.7227 227.381 34.8621 227.543C36.8126 229.833 38.8209 230.468 40.991 231.619C43.1681 232.768 44.542 234.01 44.9968 235.816C46.5488 236.758 48.4161 238.609 49.5447 239.644C50.6728 240.683 51.5237 239.586 51.6472 239.624C53.7692 240.263 55.2281 240.972 56.741 241.756C58.1374 242.464 59.5497 243.255 61.3953 244.018C63.3089 244.83 67.2198 245.951 69.364 246.378C71.0565 246.727 71.987 247.287 73.5779 247.435C73.7913 247.454 73.713 246.821 73.78 246.808C75.6369 246.464 74.5158 247.735 74.8201 248.07C75.9311 249.267 76.6878 249.943 79.033 249.819C79.586 249.794 81.3522 247.862 82.2859 247.822C83.5194 247.775 82.9903 248.499 84.2927 248.408C84.4042 248.4 84.4106 247.931 85.2029 247.998C86.7069 248.12 88.277 248.232 89.8796 248.294C92.2728 248.384 94.7227 248.42 97.1033 248.307C97.6504 248.282 96.9208 247.561 97.7126 247.512C101.433 247.282 105.513 247.044 109.178 247.073C110.077 247.082 109.567 247.652 109.773 247.79C111.057 248.621 112.624 247.093 112.899 247.036C117.686 246.063 121.744 246.06 126.189 245.481C127.865 245.261 129.594 244.962 131.426 244.497C131.795 244.403 134.394 242.481 135.878 243.494C135.978 243.562 137.462 244.607 138.42 243.542C138.475 243.474 137.583 242.966 138.957 242.786C140.335 242.606 142.447 241.766 144.456 242.118C145.09 242.23 146.743 243.216 148.31 241.859C148.419 241.766 150.664 238.95 151.959 240.304C152.168 240.527 152.357 242.217 154.274 240.92C154.64 240.669 153.835 240.459 154.838 240C156.371 239.295 158.605 239.256 160.386 238.059C160.707 237.846 161.874 236.389 163.235 236.942C163.448 237.028 163.246 237.66 163.866 237.569C165.657 237.303 167.445 236.757 169.163 236.257C170.34 235.914 171.512 235.596 172.694 235.387C173.756 235.196 173.509 236.231 174.648 236.12C175.786 236.012 177.99 235.504 178.923 234.711C179.851 233.92 178.185 232.999 179.714 232.29C186.292 229.221 192.602 226.558 198.118 221.942C198.93 221.256 197.931 221.453 199.08 220.406C199.699 219.834 200.369 219.181 201.075 218.457C205.496 213.989 210.981 207.799 214.35 204.974C217.55 202.286 214.937 206.786 217.137 204.5C218.204 203.371 217.713 201.085 217.847 200.776C219.218 197.685 220.897 196.027 221.389 193.597C221.473 193.112 220.692 193.386 220.759 193C220.763 192.973 220.767 192.945 220.771 192.917C221.094 191.184 221.729 189.361 221.939 187.58C222.029 186.782 221.494 186.837 221.632 186.113C221.954 184.341 222.332 182.761 222.957 181.009C223.014 180.848 223.579 181.999 223.705 180.639C223.905 178.415 224.505 175.649 224.037 173.04C223.894 172.274 222.707 172.23 223.529 170.585C223.698 170.233 225.142 170.675 223.88 168.744C223.674 168.42 221.932 165.232 222.929 163.599C223.195 163.175 224.317 162.028 224.081 161.108C224.044 160.983 223.432 161.524 223.326 160.757C222.961 158.047 222.808 155.184 222.342 152.403C222.215 151.656 221.662 152.835 221.494 151.727C221.4 151.115 221.313 150.463 221.232 149.783C220.922 147.165 220.705 144.233 220.551 141.823C220.48 140.71 221.124 141.394 221.176 141.31C221.965 139.88 220.555 139.291 220.419 138.874C219.585 136.268 219.883 134.143 219.325 131.706C219.172 131.035 218.633 131.615 218.555 131.49C217.788 130.181 219.069 131.039 219.045 130.133C218.979 127.591 218.441 124.831 217.892 122.344C217.69 121.432 217.17 122.596 216.996 121.779C215.983 117.089 215.023 112.22 214.296 107.61C214.271 107.454 214.247 107.299 214.223 107.146C214.086 106.252 214.762 106.67 214.843 106.458C215.404 104.978 213.749 103.427 213.526 103.04C212.511 101.26 212.784 100.389 212.221 98.7336C209.896 91.8665 207.199 83.7564 204.403 76.9026C203.91 75.6782 203.422 74.4949 202.945 73.3684C199.613 65.5438 196.701 59.154 192.929 52.4348C191.998 50.7829 191.043 49.1152 190.033 47.428C189.701 46.873 189.386 47.8101 189.092 47.3372C186.418 43.014 183.953 38.7178 181.208 35.6008C179.818 34.0297 178.422 32.4845 176.991 31.0002C176.583 30.5754 176.629 31.6742 175.961 31.0149C174.59 29.6696 172.999 27.9226 171.851 26.4661C171.288 25.7549 172.573 26.1751 171.995 25.468C170.651 23.8281 169.037 22.2994 167.37 21.1389C166.661 20.6518 167.236 22.0062 166.36 21.344C161.758 17.9009 156.917 16.048 151.011 14.6018C149.129 14.1479 147.234 13.6828 145.342 13.2053C144.77 13.0613 144.447 11.5366 143.166 11.6624C143.022 12.0547 142.97 12.5307 142.877 12.9573C131.208 11.7719 119.479 11.4046 107.598 12.5471C107.011 12.604 106.427 12.662 105.848 12.7219C105.317 12.7779 106.325 13.4471 105.287 13.5598C99.2946 14.2167 93.5431 15.1843 87.3708 15.3743C86.7522 15.3962 86.8526 13.9938 85.1042 14.4885C84.8002 14.5739 82.1527 15.2076 81.5271 15.6233C81.4441 15.6863 82.0379 16.2257 81.1843 16.3967C76.2622 17.3798 71.0384 18.2894 66.3103 19.179C65.5548 19.3224 66.1649 18.4475 65.615 18.5481C65.0279 18.6557 64.4106 18.8021 63.8484 18.9583C61.115 19.6949 58.3209 21.612 55.3347 22.9182C52.9407 23.9771 53.0914 22.4838 51.2732 22.3C51.0157 22.2762 49.6067 23.1789 49.1619 22.6653C48.0506 21.3725 47.7025 19.3849 46.4363 18.0608C46.1598 17.7827 44.5959 19.2927 45.1453 17.8206C45.1827 17.7238 46.3211 16.6019 46.4792 16.1135C46.5866 15.7782 45.7947 15.4827 46.1072 14.9368C46.4228 14.3896 47.2607 14.5186 47.8933 13.7083C48.5356 12.892 47.7229 12.4781 49.3972 11.3127C51.9953 9.53384 55.6225 7.49283 59.8357 6.302C61.6778 5.79471 63.379 5.43913 64.9148 5.15649C66.3304 4.90138 65.737 5.48574 66.7068 5.33813C68.6105 5.05305 70.3002 4.469 72.1736 4.28149C72.7875 4.22358 72.1772 5.03494 72.8162 4.96021C76.3449 4.54346 79.5917 3.78241 83.1199 3.34399C90.9328 2.37896 98.6339 1.60876 106.372 0.968018ZM130.299 250.814C130.14 250.182 128.99 250.55 129.468 251.081C129.501 251.112 130.347 251.009 130.299 250.814ZM55.6404 247.506C56.3294 247.149 55.1542 246.481 54.6794 246.639C54.5474 246.684 54.4687 246.795 54.5027 246.997C54.5039 247 54.5111 247.006 54.5222 247.013C54.6695 247.107 55.5946 247.519 55.6404 247.506ZM55.4363 242.999C55.3583 243.001 54.8297 243.972 54.8826 244.031C55.1416 244.326 55.4129 244.408 55.6404 244.364C56.1343 244.277 56.4293 243.641 56.1042 243.264C55.9845 243.118 55.7722 243.014 55.4363 242.999ZM181.467 240.612C182.386 238.964 177.101 240.716 178.673 241.536C178.767 241.583 181.398 240.712 181.467 240.612ZM6.25562 182.237C6.5302 183.503 6.85628 184.763 7.15015 186.031C6.07249 184.974 5.58622 183.483 6.25562 182.237ZM62.5437 113.15C62.9289 113.096 62.5103 112.893 63.449 113.004C63.5116 112.998 63.8292 113.207 64.1501 113.252C64.3726 113.282 65.0516 113.177 65.3367 113.243C65.621 113.314 65.0551 113.44 65.3962 113.576C65.7425 113.716 66.5119 113.587 66.6306 113.898C66.9031 114.651 66.8135 115.82 66.6238 116.73C66.5666 117.025 66.1273 116.935 66.0681 117.135C65.9539 117.524 66.2094 117.858 66.0671 118.25C66.0182 118.383 65.3314 118.324 65.2947 118.462C65.1038 119.225 65.3745 119.874 65.3484 120.626C65.2201 124.326 65.6465 127.936 66.1482 131.623C66.3132 132.835 66.0593 134.429 66.6228 135.593C66.6889 135.728 67.2374 135.503 67.2937 135.517C68.1206 135.761 66.9322 135.909 66.8484 136.226C66.5216 137.483 66.7975 138.731 67.3123 139.723C67.5333 140.145 68.533 139.379 68.0281 140.006C67.9928 140.049 67.3598 140.108 67.3298 140.248C67.2647 140.568 67.5251 141.064 67.5417 141.293C67.5697 141.736 67.5961 141.802 67.7078 142.196C67.8558 142.736 67.756 143.459 68.0759 143.988C68.1458 144.099 68.7045 143.742 68.8708 143.9C69.0363 144.057 69.1522 144.579 69.0671 144.799C68.9814 145.018 68.4796 145.108 68.3796 145.175C67.8662 145.52 68.2218 145.713 68.5876 145.82C68.8065 145.852 69.0329 145.854 69.0544 145.87C69.958 146.642 69.8156 147.947 70.5164 149.024C71.0464 149.829 71.8783 150.537 72.4333 151.305C73.0954 152.225 73.4581 153.201 74.2498 154.017C74.3327 154.103 74.8091 153.5 74.9109 153.604C75.9918 154.7 76.9789 155.873 77.7107 157.344C77.7838 157.492 77.1694 157.813 77.2146 157.99C77.4969 159.056 77.7086 161.09 80.1199 159.403C80.5118 159.935 81.0082 160.561 81.0437 161.385C81.0671 161.916 80.3077 162.197 80.8611 162.288C80.9855 162.308 81.3123 161.751 81.4656 161.817C82.1071 162.091 82.5087 162.73 83.2166 162.92C83.361 162.956 83.709 162.508 83.8044 162.456C84.582 162.044 84.0807 163.416 84.1013 163.567C84.2799 164.701 84.9554 164.894 85.571 165.432C85.7129 165.556 86.0292 164.83 86.1824 164.927C86.4713 165.114 86.7672 165.336 87.0261 165.564C87.3682 165.871 87.6808 166.223 87.9626 166.649C88.0623 166.802 87.5908 167.271 87.6238 167.374C87.7934 167.828 88.4734 166.807 88.6414 167.198C88.6797 167.28 88.3844 167.751 88.3669 167.812C88.12 168.763 88.9128 167.643 88.9685 167.637C89.7476 167.561 89.6236 169.039 90.3914 169.103C90.4801 169.106 90.5359 168.383 90.7664 168.433C92.2988 168.76 93.9139 169.299 95.5154 170.1C95.7632 170.223 95.5033 170.718 95.5095 170.785C95.6409 171.83 96.0071 170.506 96.0974 170.466C96.8173 170.19 97.3439 171.394 97.9763 169.828C98.2128 169.899 98.4513 169.959 98.6921 170.01C101.279 170.559 103.789 169.881 106.518 170.914C106.556 170.929 106.566 171.598 106.642 171.622C107.578 171.891 107.289 170.874 107.668 169.534C107.757 169.201 108.423 170.652 108.485 170.756C108.695 171.143 108.706 172.151 108.767 172.223C109.282 172.777 108.668 169.539 109.176 169.446C109.193 169.458 109.235 170.058 109.289 170.109C109.46 170.27 109.549 170.008 109.723 170.187C110.119 170.602 110.563 172.148 110.85 171.132C110.883 170.998 110.401 169.193 110.874 169.177C111.066 169.173 111.865 168.947 112.119 169.004C112.374 169.063 112.373 169.686 112.395 169.707C113.219 170.313 113.071 170.694 113.707 171.742C114.352 172.782 113.497 170.109 113.537 169.773C113.577 169.439 114.212 169.936 114.394 170.118C114.574 170.303 114.544 170.712 114.683 170.805C115.611 171.402 114.562 169.385 114.642 168.893C114.813 167.732 115.851 169.575 116.395 169.6C116.539 169.607 116.279 169.197 116.376 169.115C116.755 168.801 117.249 169.309 117.535 168.562C117.584 168.435 117.517 167.124 118.111 167.871C118.197 167.979 118.287 168.502 118.516 168.534C118.86 168.583 119.407 168.476 119.633 168.188C119.797 167.975 119.209 167.302 119.585 167.426C119.753 167.481 119.731 168.038 120.033 168.102C120.336 168.166 120.91 167.879 121.122 167.76C121.332 167.64 120.936 167.112 120.935 167.064C120.934 166.789 121.211 166.311 121.248 166.291C123.024 165.338 125.219 165.364 126.751 163.993C126.869 163.887 126.421 163.361 126.435 163.339C126.736 162.816 127.34 164.579 127.987 164.89C127.201 163.747 127.524 163.84 127.764 163.505C127.877 163.343 127.504 162.948 127.487 162.892C127.27 162.062 128 162.842 128.16 162.994C128.746 163.557 128.391 162.67 128.788 163.041C129.183 163.409 129.376 164.217 129.682 164C129.491 163.531 128.543 162.607 128.655 162.278C129.063 161.052 131.222 160.75 131.958 160.318C132.694 159.891 132.845 159.654 133.344 159.489C134.24 159.189 133.381 158.643 133.53 157.956C133.674 157.272 134.971 159.266 135.355 159.61C135.74 159.952 135.474 159.493 135.727 159.646C135.981 159.798 136.038 160.202 136.284 160.134C136.528 160.066 136.441 158.957 136.155 158.502C135.554 157.533 134.577 156.813 135.295 156.744C135.338 156.743 135.658 157.285 135.8 157.246C136.916 156.917 137.746 156.213 138.816 155.797C138.963 155.743 139.34 156.337 139.43 156.31C140.386 156.021 139.357 155.384 138.808 154.117C139.489 154.925 140.097 155.458 140.58 155.644C140.6 155.628 140.644 155.569 140.66 155.55C140.985 155.606 141.234 155.533 141.388 155.318C141.627 154.985 140.968 154.611 140.678 154.096C140.592 153.942 141.18 153.997 140.917 153.754C140.056 152.96 138.833 152.452 139.646 152.173C139.685 152.164 140.156 152.596 140.246 152.531C140.829 152.114 139.873 151.367 140.148 150.686C140.367 150.149 141.539 149.703 141.991 149.22C143.615 150.281 143.58 149.511 142.583 148.586C142.854 148.26 143.036 147.829 143.408 147.582C143.536 147.497 143.964 147.872 144.025 147.889C144.976 148.159 143.973 147.316 143.975 147.21C144.074 146.108 145.339 145.927 145.001 144.617C144.984 144.568 143.862 143.833 144.834 144.121C144.902 144.144 145.266 144.724 145.535 144.366C145.805 144.008 146.856 143.65 146.63 142.799C146.575 142.593 145.82 141.718 146.712 141.883C146.833 141.907 147.145 142.138 147.36 142.195C148.048 142.373 146.92 141.604 148.034 141.989C149.148 142.373 150.135 142.393 149.752 141.45C149.732 141.414 148.877 140.76 148.988 140.597C149.168 140.336 149.583 140.056 149.737 139.765C149.809 139.625 149.176 139.387 149.178 139.357C149.365 138.252 150.249 137.882 151.018 137.007C151.16 136.845 150.639 135.889 151.465 135.875C152.371 135.857 155.062 137.808 154.852 136.531C154.771 136.012 151.312 133.618 153.571 133.962C153.754 132.446 155.342 131.763 155.296 130.131C155.292 130.057 154.341 129.36 154.42 129.231C154.542 129.041 155.085 129.169 155.188 129.041C155.631 128.51 155.48 127.751 155.825 127.198C155.955 126.987 156.427 127.307 156.582 127.055C156.735 126.803 156.149 126.309 156.642 126.101C157.018 125.945 158.517 126.315 158.848 126.021C157.498 125.378 157.642 125.14 157.486 124.534C157.454 124.418 156.942 124.292 156.902 124.226C156.733 123.95 157.194 123.978 157 123.701C156.953 123.635 156.489 123.421 156.425 123.355C155.858 122.783 157.099 122.827 157.315 122.832C158.136 122.857 157.59 122.453 157.96 122.356C158.315 122.263 158.511 122.699 158.773 122.573C158.786 122.562 158.797 122.555 158.808 122.547C159.383 122.154 159.596 121.429 159.841 120.884C159.935 120.666 159.248 120.562 159.242 120.525C159.263 120.011 160.119 119.809 158.946 119.073C162.348 119.998 158.736 118.678 159.624 118.281C159.699 118.25 161.286 118.733 161.442 119.021C161.597 119.312 160.996 119.444 161.245 119.858C161.304 119.953 162.608 120.898 162.674 120.989C163.195 121.674 160.868 120.818 160.731 120.787C159.27 120.484 160.642 121.558 160.698 121.728C160.951 122.444 160.492 122.78 160.582 123.333C160.578 123.34 160.571 123.361 160.567 123.367C160.571 123.395 160.577 123.423 160.584 123.451C160.677 123.845 162.146 124.536 161.998 124.751C161.496 125.469 159.312 124.791 160.765 126.338C161.075 126.669 162.759 127.258 161.231 127.235C161.134 127.234 159.784 127.108 160.404 127.689C160.482 127.762 160.949 127.981 160.971 128.039C161.101 128.425 160.644 128.43 160.685 128.802C160.727 129.175 160.825 129.653 160.509 129.907C160.318 130.061 159.328 129.896 159.069 129.887C158.328 129.857 159.19 130.632 158.37 130.435C157.546 130.236 156.574 129.363 155.883 129.558C157.082 130.166 158.303 130.811 159.505 131.433C158.99 132.374 158.132 133.118 157.699 134.099C157.647 134.221 158.351 134.428 158.313 134.568C158.142 135.157 157.443 135.389 157.338 136.036C157.258 136.54 157.691 137.364 157.625 137.904C156.12 137.459 156.23 138.363 155.848 138.777C155.715 138.921 155.36 138.717 155.177 138.772C154.5 138.985 155.807 139.42 155.93 139.646C156.446 140.612 153.718 139.189 153.446 139.84C153.431 139.874 154.649 141.065 154.708 141.171C155.096 141.845 154.177 140.955 153.948 141.115C153.532 141.408 153.036 141.495 153.192 142.198C153.24 142.403 153.945 143.235 153.106 143.112C152.996 143.095 152.537 142.81 152.492 142.822C151.745 143.067 153.218 143.922 153.552 144.5C153.886 145.079 152.609 144.942 152.262 144.863C151.367 144.661 152.04 144.494 151.975 144.438C151.175 143.776 151.141 144.187 150.923 144.392C149.456 143.591 149.343 143.984 150.702 144.607C150.85 144.674 150.828 144.403 150.923 144.392C152.215 145.43 152.172 145.923 150.604 145.569C149.87 145.402 149.257 144.793 149.172 145.54C149.132 145.879 150.183 146.361 150.311 146.76C150.601 147.673 149.257 147.829 149.062 148.473C148.992 148.707 149.648 148.838 149.619 149.009C149.539 149.468 148.938 149.547 148.917 150.041C148.918 150.087 149.525 150.351 149.463 150.471C148.985 151.387 148.153 151.917 147.563 152.816C147.281 153.247 147.078 154.226 146.719 154.637C146.103 155.351 144.666 155.769 144.408 156.555C144.238 157.066 144.843 157.349 145.085 157.789C145.298 158.178 145.056 158.338 144.707 158.387C144.564 158.555 144.174 159.072 144.001 159.21C143.578 159.189 143.032 158.986 142.9 158.929C142.9 158.912 143.107 158.5 142.706 158.422C142.124 158.011 142.888 158.907 142.9 158.929C142.742 158.865 141.978 159.377 141.93 159.59C141.905 159.707 142.365 160.126 142.347 160.182C141.824 161.425 140.992 162.376 139.847 162.964C139.823 162.969 139.397 162.417 139.343 162.432C138.588 162.663 138.789 163.606 138.636 164.385C138.486 165.16 138.001 165.327 136.979 164.605C136.715 165.005 135.882 164.976 135.39 164.944C134.902 164.91 135.671 166.02 135.666 166.07C135.351 167.376 134.402 167.103 133.454 167.615C133.008 167.854 132.273 168.587 131.891 169.012C131.589 169.352 131.191 169.229 130.96 169.616C130.928 169.669 131.295 170.147 131.297 170.18C131.296 171.036 130.695 169.666 130.476 169.49C129.681 168.853 129.244 168.522 128.991 169.203C128.936 169.358 129.694 171.387 129.54 171.623C129.341 171.922 129.062 171.202 128.863 171.53C128.846 171.557 129.085 171.963 128.894 172.049C128.01 172.451 126.951 172.715 126.075 173.217C125.954 173.284 126.452 173.868 126.282 173.978C125.483 174.485 124.523 174.916 123.537 174.977C123.293 174.989 123.209 174.453 123.1 174.331C122.445 173.596 122.61 175.011 122.553 175.068C121.246 176.345 119.592 175.662 118.155 176.775C118.083 176.842 117.835 178.459 117.139 177.363C117.09 177.29 116.407 176.158 116.392 177.08C116.392 177.14 116.775 177.713 116.419 177.75C116.065 177.786 115.633 178.37 114.972 177.795C114.759 177.615 114.098 176.466 113.913 177.566C113.911 177.641 113.752 180.059 113.136 178.564C113.036 178.317 112.703 176.664 112.37 177.623C112.305 177.809 112.57 178.137 112.351 178.425C112.013 178.869 111.372 178.537 110.996 179.37C110.933 179.518 110.74 180.717 110.279 179.912C110.208 179.786 110.206 179.215 110.033 179.18C109.209 179.01 108.456 179.495 107.614 179.2C107.319 179.096 107.36 178.175 107.051 177.963C106.741 177.752 106.155 177.572 105.89 178.01C105.624 178.449 106.07 179.87 105.614 180.021C103.613 180.671 101.561 179.839 99.574 179.606C99.2787 179.57 99.4955 180.104 99.0535 180.086C98.6816 180.071 98.2447 180.07 97.7742 180.059C96.3325 180.039 94.4364 179.903 93.4939 178.881C92.5358 177.825 94.0242 177.393 93.2585 176.898C92.9008 176.662 92.1473 178.23 92.03 178.265C90.9325 178.595 90.3974 177.7 89.4343 177.671C89.2327 177.664 89.2332 178.375 89.0603 178.361C88.4623 178.314 87.9554 177.832 87.3953 177.694C87.1423 177.632 87.0095 178.14 86.7937 178.018C86.2756 177.729 85.8653 177.325 85.5408 176.645C85.5141 176.583 86.0886 176.129 85.7136 175.935C85.0976 175.616 84.5721 174.812 83.6287 174.836C83.3491 174.845 82.713 175.861 82.6912 174.874C82.6866 174.665 83.5864 173.547 82.3982 174.244C82.2176 174.378 80.328 175.091 80.5642 173.893C80.59 173.772 80.6751 173.526 80.7517 173.27C80.906 172.895 81.0415 172.498 80.866 172.498C80.8239 172.502 80.5108 173.074 80.3279 173.005C79.6865 172.749 79.2102 172.262 78.571 171.982C78.3983 171.908 78.1732 172.586 77.9285 172.457C77.2637 172.111 76.6757 171.377 76.28 170.748C76.1348 170.515 76.6366 170.225 76.6619 170.167C77.0784 169.238 76.0702 170.092 75.9412 170.083C75.163 170.002 75.2145 169.217 74.6736 168.942C74.5248 168.864 74.1862 169.4 74.1238 169.421C73.5063 169.594 74.4522 168.937 74.3816 168.702C74.186 168.044 73.6706 167.63 73.1804 167.274C72.9994 167.143 72.6785 167.841 72.5212 167.717C71.5835 166.996 70.7506 166.08 70.2234 164.976C70.1262 164.767 70.6197 164.473 70.6794 164.351C71.0986 163.506 69.9147 164.029 69.7537 164.033C69.038 164.056 69.2654 163.579 68.905 163.333C67.1352 162.141 65.6372 159.956 64.5134 158.207C63.0446 155.905 62.2416 153.924 60.738 151.302C60.6431 151.13 60.0667 151.638 59.9744 151.49C59.5742 150.818 59.2238 150.034 58.9363 149.175C58.5881 148.114 58.3126 147.033 57.8484 146.012C57.7908 145.883 57.1772 146.286 57.0623 146.084C56.8214 145.67 56.6877 145.093 56.7712 144.58C56.8111 144.331 57.4774 144.452 57.5056 144.205C57.5724 143.63 57.4653 143.074 57.2097 142.581C57.0994 142.372 56.4984 142.903 56.4089 142.615C55.7881 140.655 55.1697 138.73 55.6072 136.523C55.6416 136.37 57.0341 135.917 56.6951 135.694C56.2939 135.764 55.8278 135.874 55.4021 135.963C54.5064 133.147 54.4147 130.194 53.9617 127.302C53.9416 127.179 53.2176 127.531 53.1755 127.293C52.9371 125.928 52.4932 124.622 53.0291 123.091C53.0827 122.939 54.4424 122.802 54.1736 122.42C54.1243 122.351 53.8482 121.764 53.532 121.653C53.4844 121.637 52.8716 121.848 52.822 121.649C52.5496 120.499 52.5189 119.241 52.7576 118.006C52.7987 117.811 53.4959 117.926 53.531 117.787C53.7696 116.779 53.1385 115.773 53.6736 114.729C54.0354 114 55.2279 114.201 56.3591 113.767C56.5176 113.702 56.5279 113.307 57.2 113.252C58.8888 113.163 60.7445 113.274 62.5437 113.15ZM105.921 171.634C105.9 171.57 105.316 171.558 105.298 171.619C105.082 172.885 106.311 172.91 105.921 171.634ZM116.798 170.697C116.781 170.665 116.592 170.697 116.662 170.886C116.888 171.495 117.079 171.233 116.798 170.697ZM133.207 164.77C132.555 164.434 133.907 166.408 133.873 165.729C133.868 165.691 133.241 164.788 133.207 164.77ZM131.373 162.548C131.348 162.528 131.123 162.652 131.135 162.682C131.46 163.383 131.924 163.125 131.373 162.548ZM142.04 149.239C141.548 148.59 141.652 148.26 142.581 148.587C142.39 148.793 142.23 149.029 142.04 149.239ZM156.52 132.301C155.386 132.207 156.637 133.169 157.502 133.266C158.365 133.36 156.866 132.329 156.52 132.301ZM157.779 127.982C156.814 128.072 159.837 129.613 159.452 128.828C159.429 128.783 157.844 127.981 157.779 127.982ZM158.861 123.652C158.379 123.607 158.679 124.228 159.278 124.288C159.76 124.336 159.461 123.708 158.861 123.652ZM159.865 115.559C160.058 115.513 161.514 116.517 161.489 116.588C161.488 116.587 161.487 116.586 161.486 116.585C161.056 117.688 158.197 117.37 158.819 116.427C158.932 116.248 159.553 117.098 159.869 116.921C160.452 116.567 158.828 115.819 159.865 115.559ZM56.8132 114.997C56.0431 114.923 56.0327 115.468 56.8083 115.277C56.8388 115.264 56.8455 115.011 56.8132 114.997ZM83.1912 103.135C83.4332 102.754 86.1987 103.277 85.7654 103.641C85.685 103.705 84.9568 103.218 84.6843 103.252C84.1873 103.316 85.8417 103.927 84.8806 103.863C84.7057 103.85 83.1918 103.164 83.1873 103.133C83.1884 103.134 83.1901 103.134 83.1912 103.135ZM105.094 36.3127C105.394 36.2921 104.927 36.6411 105.313 36.7043C105.706 36.7787 106.392 36.3862 106.654 36.8254C107.276 37.9181 107.247 39.1548 107.016 39.8254C106.946 40.0401 106.512 39.9851 106.443 40.1311C106.307 40.4043 106.532 40.6145 106.352 40.8567C106.29 40.9372 105.614 40.8904 105.564 40.97C105.295 41.3984 105.478 41.7472 105.344 42.1213C105.258 42.358 105.177 42.5796 105.101 42.804C104.585 44.3166 104.263 45.7637 103.844 47.1614C103.685 47.6936 103.001 48.258 103.188 48.8362C103.213 48.9027 103.799 48.9484 103.846 48.967C104.556 49.2604 103.387 49.0305 103.213 49.1311C102.524 49.5295 102.388 50.0484 102.536 50.5471C102.602 50.7578 103.787 50.7565 103.106 50.8459C103.06 50.8522 102.453 50.6984 102.377 50.7405C102.208 50.8388 102.278 51.0862 102.213 51.1702C102.084 51.3329 102.085 51.3645 102.047 51.5364C101.99 51.7615 101.633 51.9846 101.725 52.2571C101.749 52.3152 102.39 52.3659 102.482 52.47C102.573 52.5743 102.477 52.79 102.313 52.8381C102.15 52.8858 101.661 52.7571 101.545 52.7483C100.567 52.6727 101.84 53.1818 101.868 53.2249C102.304 53.9489 101.443 54.3065 101.324 54.8694C101.236 55.2942 101.381 55.8134 101.257 56.2034C101.103 56.6821 100.672 57.0005 100.619 57.4846C100.619 57.5346 101.36 57.6521 101.354 57.7131C101.288 58.3697 101.052 58.9896 100.4 59.4944C100.334 59.5445 99.7118 59.3029 99.6072 59.343C98.9816 59.5991 97.5633 59.8714 100.296 60.8225C100.228 60.9121 100.158 61.0112 100.062 61.1038C99.9081 61.2476 99.6859 61.3766 99.3005 61.429C98.8991 61.4838 98.2398 61.1535 98.489 61.4163C98.546 61.4754 99.1675 61.5828 99.2058 61.6594C99.3581 61.9869 99.087 62.2111 99.3318 62.5559C99.3846 62.6263 99.9347 62.7596 100.029 62.801C100.791 63.1409 99.4214 62.9984 99.3093 63.0178C98.5027 63.1664 98.7156 63.4936 98.6091 63.8137C98.5868 63.8879 99.3419 63.9997 99.3445 64.0784C99.3477 64.4784 99.1786 64.8444 98.7507 65.1233C98.6544 65.1835 98.0532 64.9364 97.9724 64.9543C97.6363 65.0415 98.8033 65.4087 98.5037 65.5002C98.4398 65.5189 97.9157 65.351 97.8533 65.3401C96.9059 65.18 98.1834 65.6299 98.2078 65.6643C98.5104 66.0954 97.0912 65.9194 97.198 66.2776C97.2193 66.3216 97.9107 66.4299 97.9089 66.5403C97.8989 67.2866 97.5059 67.9598 96.7703 68.4856C96.6572 68.5667 96.1727 68.3462 96.1072 68.3342C95.1011 68.1606 96.3851 68.6071 96.4265 68.6565C96.7018 69.0299 95.5331 68.9693 97.0359 69.6057C96.1632 70.5951 96.6988 72.0014 94.9705 72.7278C94.948 72.7368 94.3164 72.5225 94.2771 72.5422C93.8125 72.7867 94.8323 73.0108 95.9861 73.6018C96.2741 73.7497 94.7521 73.4898 94.6365 73.4729C94.2223 73.4119 93.2869 73.0722 93.2 73.0667C92.5476 73.0444 95.7172 73.9546 95.655 74.1682C95.6478 74.1733 95.0749 73.9736 95.0105 73.9739C94.8129 73.9757 95.0267 74.0986 94.8113 74.094C94.3107 74.0814 92.7608 73.6709 93.5994 74.1233C93.7119 74.1824 95.5124 74.6777 95.3718 74.8411C95.3143 74.9061 95.2453 75.2481 95.1013 75.3079C94.9578 75.3671 94.4021 75.1324 94.3718 75.1301C93.5327 75.156 93.2442 74.9666 92.0759 74.7571C90.9113 74.5487 93.6085 75.3141 93.8933 75.4543C94.1763 75.5942 93.4923 75.5896 93.2595 75.5696C93.027 75.5493 92.6769 75.384 92.5408 75.387C91.6516 75.4118 93.839 75.9014 94.24 76.1165C95.1866 76.6244 93.1499 76.1935 92.8953 76.3254C92.8271 76.3615 93.2933 76.4551 93.322 76.5139C93.4283 76.7456 92.7756 76.6675 93.2839 77.0432C93.3692 77.1055 94.5135 77.628 93.6042 77.4739C93.4731 77.4513 92.9905 77.2598 92.8552 77.303C92.6538 77.3685 92.4825 77.5454 92.6111 77.72C92.708 77.8487 93.5547 77.9874 93.2673 78.0276C93.1385 78.0453 92.6885 77.8068 92.4861 77.8518C92.2839 77.8968 92.2328 78.1452 92.2214 78.2434C92.2126 78.3411 92.846 78.4764 92.8855 78.4963C93.1113 78.6134 93.3578 78.8811 93.3523 78.8967C93.1878 79.7201 91.9238 80.1339 92.0369 81.0149C92.0478 81.0832 92.7061 81.2377 92.7195 81.2512C92.9301 81.5397 91.2406 80.8563 90.615 80.8264C91.9481 81.2033 91.6835 81.2166 91.7849 81.4065C91.8361 81.4984 92.3612 81.6148 92.4119 81.637C93.159 81.9749 92.1319 81.7467 91.9187 81.7034C91.1391 81.5453 92.0118 81.889 91.491 81.7844C90.9733 81.6807 90.2601 81.3484 90.2273 81.4924C90.691 81.6745 91.9627 81.9421 92.1326 82.1096C92.7718 82.7427 91.5752 83.1965 91.3757 83.4934C91.177 83.7887 91.2338 83.9151 91.0056 84.052C90.5937 84.2982 91.5524 84.4508 91.9109 84.7883C92.2674 85.126 90.0329 84.3445 89.5359 84.2288C89.0403 84.1129 89.531 84.295 89.2527 84.2522C88.9739 84.2091 88.6666 84.03 88.5398 84.0872C88.4135 84.1444 89.2081 84.645 89.7087 84.8274C90.7685 85.2155 91.9329 85.4477 91.4675 85.5579C91.44 85.564 90.8577 85.3435 90.781 85.3752C90.2018 85.6394 90.0475 86.0511 89.5203 86.3352C89.4471 86.3733 88.7989 86.1263 88.7478 86.1458C88.2247 86.353 89.3789 86.5675 90.5662 87.1223C88.9252 86.5867 87.8829 86.386 87.7966 86.6379C87.745 86.7894 88.4747 86.9794 88.9539 87.2307C89.0967 87.306 88.5707 87.2669 88.9041 87.3879C89.9946 87.7846 91.2673 88.0531 90.6941 88.1692C90.6654 88.173 90.074 87.9572 90.0222 87.9846C89.7041 88.1713 90.8553 88.5467 90.9138 88.8665C90.9585 89.1165 90.1361 89.2939 89.946 89.509C88.0883 88.9493 88.4431 89.3136 89.697 89.7893C89.597 89.934 89.6175 90.1288 89.3943 90.2317C89.3182 90.2671 88.7936 90.0736 88.7302 90.0618C87.7867 89.8938 89.013 90.3357 89.0515 90.385C89.4135 90.903 88.3773 90.9331 89.1951 91.5647C89.2352 91.5905 90.505 91.9911 89.5378 91.8079C89.4693 91.7938 88.9189 91.5017 88.823 91.6565C88.727 91.8119 87.94 91.9265 88.4685 92.3401C88.597 92.4403 89.6005 92.8961 88.7478 92.7688C88.6317 92.751 88.2662 92.6242 88.0535 92.5852C87.3759 92.4623 88.669 92.8878 87.5359 92.6438C86.4013 92.3994 85.5182 92.3282 86.2136 92.7922C86.2454 92.8105 87.248 93.1682 87.2136 93.2385C87.1512 93.3497 86.8854 93.4564 86.8552 93.5833C86.845 93.6445 87.496 93.796 87.5046 93.8098C87.7448 94.3186 87.089 94.4306 86.7136 94.7874C86.646 94.8533 87.4526 95.3363 86.7156 95.2854C85.9067 95.2294 82.8 94.1298 83.4392 94.7356C83.6974 94.9799 87.6424 96.3511 85.4861 96.0208C85.8412 96.7126 84.6326 96.9034 85.2087 97.6594C85.2401 97.6953 86.3305 98.0979 86.2986 98.1506C86.2481 98.2281 85.7123 98.1224 85.6599 98.1731C85.4281 98.382 85.8072 98.7485 85.6667 98.9719C85.6141 99.0573 85.0828 98.8678 85.0203 98.97C84.9597 99.0725 85.6476 99.3528 85.2615 99.4036C84.9663 99.441 83.478 99.1326 83.2634 99.2346C84.6973 99.6571 84.6382 99.7522 84.9636 100.047C85.0281 100.104 85.5379 100.211 85.5935 100.245C85.8304 100.388 85.3991 100.332 85.6599 100.478C85.7239 100.513 86.2121 100.657 86.2917 100.694C86.9813 101.011 85.8293 100.872 85.6267 100.847C84.8629 100.754 85.4838 100.994 85.1707 101.002C84.8572 101.01 84.5368 100.771 84.3318 100.826C83.908 100.942 83.9054 101.249 83.8181 101.467C83.7873 101.555 84.4563 101.682 84.4695 101.699C84.5812 101.933 83.8322 101.919 85.1072 102.397C81.6967 101.554 85.4014 102.602 84.6511 102.671C84.5906 102.676 82.9899 102.245 82.7761 102.097C82.5652 101.95 83.0976 101.971 82.7654 101.756C82.6873 101.705 81.238 101.126 81.1501 101.078C80.4888 100.714 82.8801 101.377 83.0134 101.406C84.4519 101.716 82.8998 101.069 82.7996 100.988C82.354 100.619 82.7427 100.527 82.4333 100.237C82.2332 100.047 80.6758 99.5836 80.7507 99.5022C81.0013 99.2322 83.208 99.7521 81.408 98.9055C81.0231 98.7245 79.3002 98.2941 80.7078 98.4534C80.7989 98.4638 82.0714 98.6485 81.3259 98.3254C81.2319 98.2848 80.7363 98.1405 80.697 98.1116C80.4593 97.9241 80.8748 97.9658 80.7205 97.7922C80.5653 97.6183 80.3251 97.3931 80.533 97.3069C80.66 97.2558 81.6146 97.4186 81.8523 97.4456C82.5368 97.5247 81.5016 97.0941 82.3123 97.2561C83.1272 97.4189 84.2948 97.9064 84.8611 97.8752C83.572 97.4918 82.251 97.0892 80.9558 96.6995C81.1175 96.3146 81.6475 96.049 81.7078 95.6331C81.7139 95.5811 81.0076 95.4287 80.9939 95.3674C80.9495 95.1111 81.5013 95.0597 81.3728 94.7708C81.2699 94.5461 80.5932 94.134 80.4626 93.8928C81.9722 94.2134 81.5543 93.7869 81.7488 93.6243C81.8164 93.5672 82.2088 93.6875 82.3523 93.675C82.8831 93.6251 81.5541 93.3297 81.363 93.217C80.5542 92.7361 83.5091 93.5858 83.5154 93.303C83.4989 93.2812 81.9958 92.6551 81.9021 92.6018C81.3077 92.2652 82.4544 92.7381 82.6003 92.6809C82.863 92.5737 83.2741 92.5638 82.8728 92.2278C82.7525 92.1287 81.8148 91.6998 82.6062 91.8108C82.7104 91.8255 83.2256 91.9859 83.2615 91.9836C83.8325 91.917 82.2015 91.4284 81.6843 91.1409C81.1678 90.8534 82.3511 90.9963 82.6882 91.054C83.5589 91.2016 83.0253 91.2378 83.1062 91.2678C84.0688 91.623 83.941 91.4342 84.0554 91.3528C85.6617 91.8121 85.6098 91.6342 84.1677 91.2659C84.0105 91.226 84.1343 91.353 84.0554 91.3528C82.5114 90.7935 82.3591 90.5683 83.8816 90.8225C84.5947 90.9418 85.3729 91.2597 85.157 90.9163C85.0591 90.7603 83.9436 90.4776 83.6726 90.2854C83.0568 89.8463 84.1741 89.8477 84.0857 89.5569C84.0532 89.451 83.4252 89.3571 83.3806 89.2786C83.265 89.0696 83.7585 89.0625 83.575 88.8333C83.5546 88.8117 82.9176 88.6602 82.9216 88.6077C82.9611 88.2065 83.4627 88.0021 83.5925 87.6086C83.6548 87.4185 83.4081 86.9725 83.5369 86.7961C83.7566 86.49 84.8 86.3438 84.6658 85.9836C84.58 85.75 83.9351 85.6032 83.5291 85.3928C82.7422 84.9857 84.3189 85.1538 84.5623 85.1858C84.5725 85.1919 84.6752 85.3949 85.0212 85.4045C85.7051 85.5543 84.5837 85.1946 84.5623 85.1858C84.7191 85.2051 84.9591 84.9237 84.8591 84.8206C84.8031 84.7654 84.2048 84.608 84.1814 84.5813C83.7776 83.9805 83.7576 83.4954 84.1697 83.1379C84.1974 83.1384 84.8435 83.3441 84.8748 83.3342C85.2496 83.1647 84.481 82.7537 84.0583 82.3958C83.636 82.0379 83.8493 81.9194 85.0359 82.1389C84.939 81.9364 85.5147 81.8607 85.863 81.8196C86.2089 81.7794 84.9241 81.3734 84.8914 81.3508C84.1759 80.7403 84.9844 80.754 85.2126 80.4153C85.3229 80.2562 85.2416 79.8403 85.157 79.6047C85.0887 79.4178 85.4208 79.4165 85.2683 79.218C85.2471 79.1913 84.6722 79.0396 84.6414 79.0247C83.9944 78.6601 85.3882 79.1603 85.6521 79.2043C86.6081 79.363 87.1199 79.4386 86.7478 79.1067C86.6592 79.0291 84.6641 78.2828 84.5671 78.1614C84.4497 78.0062 85.1666 78.2666 85.0251 78.0989C85.0136 78.0847 84.5628 77.9512 84.6033 77.886C84.789 77.5806 85.1565 77.3073 85.2156 76.9465C85.2252 76.8982 84.4927 76.7436 84.4929 76.6702C84.5034 76.3261 84.6343 75.9876 85.0613 75.7815C85.1689 75.7318 85.6552 75.9279 85.8093 75.9563C86.7372 76.1242 85.4826 75.5911 85.4568 75.5569C84.9983 74.7991 86.3087 74.7302 85.9187 73.9797C85.8927 73.9372 84.5644 73.279 85.7996 73.5305C85.8872 73.5482 87.1427 73.8066 86.3308 73.4631C86.2799 73.4417 85.6277 73.3186 85.7244 73.2229C85.823 73.1276 85.4553 72.8147 86.2 72.8616C86.4352 72.8764 87.6983 73.1221 86.7644 72.6809C86.699 72.6506 84.5519 71.7603 86.1052 72.1321C86.362 72.1939 87.9735 72.687 87.198 72.2629C87.0473 72.1813 86.6684 72.1358 86.4695 71.9797C86.1625 71.741 86.6502 71.6828 85.9802 71.2991C85.8605 71.2311 84.8013 70.7805 85.6638 70.926C85.7995 70.9491 86.3307 71.1382 86.407 71.1028C86.7723 70.9337 86.4884 70.5675 86.9392 70.4172C87.0988 70.3647 87.9572 70.6685 88.2195 70.6418C88.4816 70.615 88.7632 70.4886 88.3943 70.2717C88.0243 70.0547 86.6003 69.753 86.531 69.5715C86.2364 68.7872 87.2421 68.3812 87.5505 67.7698C87.5964 67.6787 87.076 67.6122 87.1072 67.468C87.2209 66.9395 87.0145 65.9022 88.2019 65.7639C89.1561 65.6435 89.6714 66.2883 90.0974 66.1086C90.3 66.021 88.7284 65.4141 88.6785 65.3645C88.2503 64.9003 89.028 64.8947 88.8904 64.5452C88.8614 64.4735 88.1898 64.3436 88.1697 64.2844C88.1041 64.0816 88.4476 63.9866 88.4402 63.8108C88.435 63.7314 87.9287 63.6023 87.9861 63.5471C88.1178 63.414 88.3689 63.3329 88.8845 63.3079C88.9364 63.3082 89.5291 63.5774 89.5867 63.4661C89.6768 63.2834 90.2079 63.1746 89.7888 62.8225C89.6617 62.7169 88.5132 62.3963 89.3464 62.4768C89.5238 62.4945 90.8885 62.9143 89.7429 62.4182C89.5511 62.334 88.0194 61.6141 89.0935 61.7678C89.3767 61.8082 90.5304 62.0287 90.3767 61.9026C90.3513 61.8843 89.7226 61.7559 89.6785 61.675C89.5383 61.3966 89.6719 61.166 89.5417 60.8811C89.5058 60.8044 88.8409 60.722 88.8064 60.6135C88.7138 60.3167 88.9634 60.0419 89.2312 59.845C89.3312 59.7735 89.843 59.978 89.9041 59.9875C90.8711 60.131 89.6243 59.7291 89.5564 59.6731C89.1727 59.3362 89.8133 59.3243 89.7107 59.0764C89.6837 59.0089 89.0709 58.8896 89.0164 58.8635C88.5193 58.6082 89.5841 58.9819 89.7234 58.9397C90.0256 58.8497 90.1021 58.6857 90.1101 58.5139C90.1129 58.4605 90.1095 58.4061 90.1042 58.3528C90.095 58.268 89.3745 58.1727 89.3699 58.0989C89.3544 57.6595 89.5274 57.2619 90.0154 56.9622C90.1085 56.907 90.6383 57.089 90.7664 57.1047C91.658 57.2142 90.5202 56.7656 90.4128 56.7004C89.94 56.4062 90.4347 56.4602 90.3816 56.2932C90.1084 55.4827 90.6342 54.6862 90.9822 54.0696C91.4321 53.2671 92.0991 52.703 92.1335 51.8518C92.1347 51.7985 91.4004 51.7013 91.3894 51.6536C91.332 51.0401 91.7264 50.536 91.6208 49.9231C91.6128 49.8738 90.9091 49.8124 90.8718 49.7297C90.7939 49.5618 90.8667 49.3724 91.115 49.259C91.2352 49.2034 91.814 49.4086 91.9226 49.3499C92.176 49.2165 92.259 49.0266 92.1775 48.8293C92.1394 48.7455 91.4125 48.7408 91.4187 48.6418C91.4603 47.952 91.4332 47.2999 92.4451 46.7512C92.5183 46.7143 93.9706 46.8545 93.7078 46.7209C93.305 46.6637 92.8293 46.6054 92.3982 46.5491C92.2829 45.5687 92.8688 44.715 92.9822 43.8245C92.9867 43.7875 92.2109 43.8199 92.2136 43.7502C92.2337 43.4377 92.1139 43.1414 92.4041 42.8264C92.4919 42.7266 92.6177 42.6329 92.7957 42.5334C92.8759 42.4918 94.2351 42.494 94.0281 42.3704C93.99 42.3483 93.8024 42.1697 93.5046 42.1389C93.4574 42.135 92.8265 42.1854 92.8035 42.134C92.6964 41.835 92.8199 41.5752 93.1912 41.425C93.2543 41.4004 93.9274 41.3212 93.9763 41.3C94.1468 41.221 94.1004 41.1967 94.0994 41.2229C94.0988 41.2452 94.1562 41.3283 94.4597 41.2756C94.8687 41.1789 95.9383 40.6879 96.9666 40.1594C97.1117 40.0848 97.0913 39.9817 97.6882 39.6731C99.1935 38.903 100.888 38.1538 102.49 37.3274C102.829 37.1373 102.363 37.1382 103.257 36.8284C103.313 36.8008 103.679 36.8356 103.998 36.7668C104.217 36.714 104.796 36.3407 105.094 36.3127ZM83.3894 99.9866C82.9322 99.9174 83.3924 100.233 83.9617 100.319C84.4188 100.388 83.9583 100.073 83.3894 99.9866ZM83.6345 98.4358C84.4869 98.4815 81.2394 97.5027 81.8396 97.8948C81.8843 97.9204 83.5799 98.4316 83.6345 98.4358ZM82.1677 96.0325C81.3533 95.9166 83.0593 96.5158 83.3806 96.5569C84.4388 96.6932 82.9829 96.149 82.1677 96.0325ZM139.32 93.1292C139.45 92.8225 142.252 92.6857 141.934 92.9846C141.876 93.0402 141.041 92.8599 140.788 92.9299C140.329 93.0625 142.086 93.1522 141.144 93.2893C140.972 93.314 139.333 93.1496 139.316 93.1292C139.317 93.1293 139.319 93.129 139.32 93.1292ZM141.469 41.6848C141.966 41.4398 141.857 40.573 143.039 40.8176C144.129 41.0659 145.366 41.7637 146.126 42.4817C146.909 43.2045 147.32 43.8809 147.564 44.4094C148.3 44.9571 148.521 47.3879 148.884 48.2307C148.832 48.3004 148.772 48.3687 148.708 48.4329C148.619 48.5225 148.193 48.5094 148.112 48.5725C147.956 48.6956 148.169 48.7868 147.981 48.9114C147.916 48.9527 147.244 48.9512 147.191 48.9934C146.909 49.2243 147.092 49.4151 146.963 49.6418C146.322 50.7257 146.121 51.7637 145.86 52.8303C145.774 53.1766 145.183 53.6195 145.462 53.969C145.495 54.0097 146.079 53.9641 146.132 53.97C146.88 54.0683 145.689 54.0713 145.534 54.1575C144.922 54.4969 144.88 54.8514 145.117 55.1536C145.22 55.2821 146.385 55.1132 145.733 55.2668C145.687 55.2774 145.061 55.2638 144.996 55.302C144.849 55.3887 144.965 55.5414 144.918 55.6067C144.823 55.7327 144.83 55.7509 144.826 55.8655C144.815 56.0218 144.51 56.216 144.656 56.3801C144.69 56.4149 145.329 56.3503 145.44 56.4045C145.55 56.4591 145.5 56.6127 145.35 56.6682C145.2 56.7236 144.695 56.7157 144.58 56.7278C143.608 56.8276 144.958 56.9689 144.996 56.9915C145.575 57.3939 144.814 57.7582 144.824 58.1458C144.833 58.4384 145.094 58.7533 145.064 59.0295C145.026 59.3614 144.683 59.6487 144.748 59.9709C144.754 60.005 145.508 59.9538 145.517 59.9954C145.612 60.4406 145.535 60.8774 145.031 61.3245C144.978 61.3688 144.316 61.3195 144.225 61.3645C143.684 61.6406 142.382 62.0791 145.266 62.2122C145.155 62.3955 145.04 62.618 144.461 62.7854C144.087 62.8932 143.365 62.7964 143.674 62.9231C143.742 62.9517 144.373 62.9102 144.429 62.9534C144.662 63.136 144.459 63.3381 144.786 63.5188C144.854 63.5555 145.42 63.543 145.522 63.553C146.349 63.6376 144.984 63.7911 144.885 63.8235C144.147 64.0703 144.438 64.2469 144.421 64.4739C144.417 64.5264 145.176 64.4625 145.2 64.5129C145.31 64.7761 145.244 65.0498 144.907 65.3079C144.828 65.3647 144.182 65.3127 144.112 65.3401C143.814 65.4605 145.034 65.4871 144.772 65.6028C144.717 65.627 144.165 65.6141 144.102 65.6184C143.15 65.6876 144.49 65.7486 144.53 65.7668C144.939 65.9939 143.525 66.1373 143.724 66.3557C143.754 66.3813 144.452 66.3244 144.48 66.3977C144.673 66.8872 144.478 67.4082 143.914 67.8889C143.827 67.9635 143.301 67.9071 143.235 67.9114C142.22 67.9825 143.577 68.0407 143.631 68.0657C143.998 68.2618 142.857 68.4334 144.475 68.5774C143.908 69.3972 144.809 70.2222 143.346 71.0198C143.325 71.0296 142.661 71.0028 142.629 71.0227C142.25 71.2649 143.291 71.2314 144.562 71.4133C144.881 71.4593 143.343 71.5622 143.229 71.5715C142.813 71.6057 141.818 71.5495 141.736 71.5618C141.104 71.6635 144.398 71.6947 144.399 71.8479C144.385 71.8521 143.787 71.8234 143.726 71.8352C143.537 71.8722 143.777 71.9157 143.567 71.9514C143.082 72.0331 141.48 72.0395 142.41 72.1897C142.531 72.2088 144.4 72.2125 144.311 72.3469C144.274 72.4008 144.301 72.6402 144.179 72.7053C144.057 72.7699 143.455 72.7137 143.428 72.718C142.629 72.8836 142.299 72.8098 141.118 72.8782C139.942 72.9462 142.744 72.9726 143.057 73.0149C143.368 73.0573 142.708 73.1756 142.479 73.2034C142.25 73.2311 141.868 73.1843 141.738 73.2102C140.89 73.3865 143.128 73.3218 143.572 73.3938C144.621 73.5642 142.543 73.6401 142.335 73.7717C142.28 73.8073 142.752 73.7871 142.797 73.8206C142.963 73.9541 142.313 74.0192 142.904 74.179C143 74.205 144.248 74.3514 143.329 74.4084C143.196 74.4163 142.68 74.374 142.562 74.426C142.387 74.5043 142.27 74.6498 142.44 74.7415C142.567 74.81 143.422 74.754 143.156 74.8313C143.036 74.8655 142.539 74.7854 142.356 74.8508C142.174 74.916 142.191 75.0931 142.207 75.1604C142.224 75.2271 142.867 75.2069 142.915 75.2131C143.164 75.2519 143.473 75.3873 143.472 75.3987C143.537 75.9711 142.433 76.4654 142.777 77.0325C142.803 77.0766 143.481 77.0686 143.498 77.0754C143.778 77.2326 141.968 77.0623 141.357 77.1477C142.742 77.1737 142.491 77.2276 142.639 77.3362C142.713 77.388 143.245 77.377 143.303 77.3831C144.116 77.4822 143.062 77.5024 142.846 77.509C142.054 77.5339 142.987 77.6161 142.457 77.6331C141.93 77.6499 141.154 77.5497 141.161 77.6487C141.656 77.6921 142.953 77.6574 143.162 77.7405C143.947 78.0604 142.913 78.5686 142.799 78.7932C142.685 79.0192 142.775 79.0931 142.591 79.2258C142.258 79.461 143.222 79.406 143.656 79.5754C144.09 79.7453 141.728 79.5814 141.219 79.5842C140.71 79.5865 141.232 79.6298 140.952 79.6458C140.672 79.6615 140.328 79.5916 140.22 79.6497C140.116 79.708 141.012 79.9107 141.542 79.9534C142.666 80.0436 143.851 80.0134 143.429 80.1614C143.401 80.1694 142.784 80.1152 142.719 80.1487C142.23 80.4105 142.187 80.7195 141.752 80.9895C141.69 81.0264 141 80.9615 140.957 80.9827C140.505 81.2025 141.675 81.1682 142.965 81.3567C141.243 81.2511 140.184 81.2764 140.165 81.4534C140.154 81.5597 140.908 81.5757 141.435 81.6692C141.593 81.696 141.074 81.7529 141.427 81.7834C142.582 81.8846 143.881 81.8697 143.356 82.0383C143.328 82.0452 142.699 81.9897 142.659 82.0168C142.401 82.1919 143.609 82.2725 143.746 82.4807C143.853 82.6451 143.101 82.8802 142.971 83.052C141.034 82.9471 141.469 83.1412 142.801 83.2825C142.74 83.3973 142.808 83.5278 142.618 83.6292C142.552 83.6638 141.995 83.6074 141.932 83.6086C140.982 83.6291 142.264 83.7511 142.323 83.7795C142.803 84.0725 141.806 84.2373 142.752 84.5598C142.786 84.5711 144.13 84.6701 143.143 84.679C143.073 84.6786 142.469 84.556 142.414 84.675C142.357 84.7949 141.625 84.9734 142.235 85.177C142.383 85.223 143.467 85.4105 142.608 85.4368C142.491 85.4401 142.107 85.401 141.891 85.4026C141.204 85.4079 142.561 85.5314 141.402 85.512C140.244 85.4925 139.371 85.5543 140.154 85.7766C140.177 85.7834 141.247 85.9015 141.23 85.9524C141.196 86.0339 140.964 86.1284 140.963 86.2249C140.963 86.2689 141.627 86.2933 141.645 86.302C141.996 86.6289 141.384 86.7841 141.099 87.054C141.047 87.1086 141.94 87.3621 141.211 87.4045C140.411 87.448 137.147 87.0194 137.902 87.3459C138.207 87.4693 142.343 88.0438 140.171 88.0188C140.661 88.4543 139.52 88.6711 140.221 89.1321C140.26 89.1557 141.386 89.3975 141.37 89.4417C141.333 89.5032 140.791 89.4438 140.748 89.4788C140.56 89.6006 140.972 89.9061 140.857 90.053C140.846 90.0675 140.8 90.0663 140.738 90.0569L140.742 90.0432C140.568 90.0285 140.263 89.9638 140.227 90.0168C140.183 90.0903 140.894 90.2927 140.523 90.3245C140.24 90.3462 138.737 90.144 138.539 90.2366C140.008 90.5082 139.964 90.5799 140.332 90.7747C140.403 90.8119 140.921 90.8701 140.982 90.8918C141.239 90.9795 140.808 90.9537 141.089 91.0413C141.156 91.0622 141.661 91.1396 141.746 91.1604C142.479 91.3361 141.327 91.2831 141.126 91.2815C140.363 91.2638 141.016 91.3846 140.713 91.4104C140.408 91.4394 140.047 91.3016 139.858 91.3577C139.467 91.4789 139.53 91.7054 139.496 91.8704C139.487 91.9369 140.164 91.935 140.182 91.9456C140.347 92.0835 139.617 92.19 140.97 92.3137C137.459 92.2765 141.307 92.404 140.6 92.5598C140.537 92.572 138.882 92.5597 138.64 92.4924C138.399 92.4236 138.919 92.3456 138.544 92.2454C138.453 92.2244 136.905 92.0328 136.812 92.0071C136.087 91.8229 138.556 91.9396 138.699 91.9426C140.171 91.9565 138.508 91.7116 138.396 91.6565C137.882 91.4311 138.244 91.3035 137.885 91.1067C137.653 90.9775 136.049 90.7696 136.103 90.6829C136.308 90.3871 138.56 90.6596 136.665 90.0764C136.261 89.95 134.502 89.697 135.916 89.7258C136.007 89.7242 137.288 89.8128 136.512 89.5715C136.414 89.5406 135.909 89.4401 135.868 89.4163C135.613 89.2586 136.03 89.2761 135.86 89.1262C135.777 89.0537 135.673 88.9696 135.612 88.8918C135.635 88.8543 135.646 88.7384 135.664 88.6643C135.826 88.7143 136.7 88.8921 136.925 88.9231C137.6 89.0154 136.513 88.7634 137.328 88.886C138.149 88.9999 139.371 89.3073 139.918 89.2893C138.594 89.0511 137.236 88.8038 135.904 88.5676C135.982 88.3973 136.439 88.2723 136.413 88.0032C136.405 87.9725 135.686 87.9123 135.662 87.8801C135.564 87.7472 136.088 87.6919 135.9 87.5227C135.752 87.3902 135.005 87.1833 134.823 87.0569C136.36 87.1419 135.859 86.9118 136.01 86.7903C136.063 86.7475 136.472 86.788 136.609 86.7659C137.115 86.6794 135.755 86.6192 135.545 86.5647C134.649 86.3444 137.715 86.6016 137.654 86.4182C137.628 86.4048 136.026 86.1595 135.926 86.136C135.27 85.9826 136.494 86.1655 136.622 86.1125C136.852 86.0152 137.249 85.9607 136.781 85.7854C136.641 85.7364 135.63 85.5698 136.424 85.554C136.528 85.5519 137.066 85.5964 137.1 85.5911C137.638 85.4847 135.94 85.3565 135.37 85.2327C134.801 85.1091 135.983 85.0612 136.323 85.0569C137.202 85.0464 136.695 85.137 136.779 85.1467C137.795 85.2629 137.629 85.1539 137.719 85.0842C139.387 85.1879 139.295 85.0728 137.808 85.011C137.646 85.0045 137.797 85.0743 137.719 85.0842C136.089 84.9059 135.887 84.776 137.424 84.759C138.144 84.7492 138.976 84.8584 138.681 84.6624C138.547 84.5733 137.398 84.531 137.09 84.4407C136.386 84.2352 137.47 84.088 137.311 83.9036C137.252 83.8376 136.625 83.8609 136.561 83.8147C136.397 83.6956 136.874 83.6296 136.638 83.5061C136.613 83.495 135.959 83.4815 135.95 83.4475C135.888 83.1869 136.323 82.981 136.349 82.7004C136.362 82.5683 136.011 82.3212 136.09 82.1877C136.224 81.959 137.195 81.7056 136.972 81.4856C136.828 81.3493 136.169 81.3477 135.723 81.2717C134.859 81.1256 136.424 81.0027 136.668 80.9866C136.676 80.9862 136.826 81.1064 137.167 81.0608C137.873 81.0564 136.671 80.988 136.668 80.9866C136.824 80.9766 136.984 80.7539 136.86 80.7024C136.792 80.6748 136.176 80.6625 136.144 80.6487C135.599 80.3148 135.452 80.004 135.756 79.7092C135.768 79.7043 136.461 79.7393 136.488 79.7278C136.805 79.5606 135.956 79.4122 135.454 79.2444C134.953 79.0764 135.127 78.9638 136.329 78.9172C136.182 78.7995 136.718 78.6616 137.043 78.5803C137.366 78.4995 136.008 78.4399 135.981 78.4309C135.13 78.1496 135.913 78.0292 136.043 77.7668C136.107 77.6413 135.917 77.3856 135.772 77.2483C135.656 77.1387 135.976 77.0841 135.775 76.9797C135.744 76.9658 135.146 76.961 135.12 76.9563C134.399 76.8255 135.877 76.9214 136.142 76.9065C137.106 76.8523 137.619 76.8154 137.172 76.6604C137.067 76.6244 134.94 76.4684 134.817 76.4055C134.662 76.3237 135.424 76.374 135.241 76.2874C135.216 76.28 134.756 76.2681 134.777 76.219C134.874 75.984 135.155 75.7487 135.114 75.5061C135.108 75.4735 134.361 75.4961 134.344 75.4485C134.261 75.2248 134.294 74.9812 134.649 74.7708C134.74 74.7193 135.261 74.765 135.417 74.7571C136.359 74.707 134.995 74.5719 134.969 74.5559C134.322 74.1487 135.564 73.8717 134.984 73.4524C134.946 73.4289 133.49 73.2303 134.746 73.178C134.83 73.1748 136.117 73.1218 135.239 73.0403C135.183 73.0353 134.523 73.0695 134.591 72.9905C134.659 72.9109 134.22 72.7727 134.949 72.6741C135.179 72.6429 136.461 72.5807 135.442 72.4573C135.367 72.4485 133.064 72.2478 134.658 72.2161C134.922 72.211 136.607 72.2486 135.745 72.1077C135.577 72.0808 135.199 72.1186 134.966 72.051C134.606 71.9476 135.059 71.8245 134.309 71.6926C134.175 71.6696 133.034 71.5627 133.903 71.5051C134.039 71.4961 134.599 71.5255 134.666 71.4895C134.971 71.3161 134.597 71.1238 134.989 70.9475C135.127 70.885 136.036 70.9294 136.282 70.8655C136.527 70.8014 136.763 70.6689 136.348 70.593C135.933 70.5173 134.48 70.5758 134.365 70.469C133.867 70.003 134.723 69.5637 134.851 69.1067C134.869 69.0395 134.352 69.0906 134.342 68.9915C134.306 68.6214 133.824 67.9857 134.928 67.6721C135.814 67.4203 136.486 67.7464 136.846 67.552C137.018 67.4579 135.336 67.3476 135.278 67.3245C134.74 67.0995 135.487 66.9463 135.259 66.7454C135.21 66.7041 134.528 66.7424 134.494 66.7073C134.376 66.587 134.681 66.4609 134.626 66.3459C134.597 66.2949 134.078 66.3031 134.117 66.2561C134.208 66.1431 134.427 66.0431 134.917 65.9329C134.961 65.9228 135.61 65.9912 135.635 65.9075C135.673 65.7715 136.156 65.6021 135.658 65.4456C135.507 65.3991 134.314 65.3974 135.137 65.2971C135.31 65.2761 136.744 65.3019 135.505 65.1868C135.297 65.1669 133.629 64.9746 134.705 64.8772C134.989 64.8515 136.161 64.7843 135.976 64.7288C135.939 64.7218 135.305 64.7531 135.243 64.7073C135.034 64.5449 135.101 64.3737 134.9 64.2073C134.844 64.1631 134.182 64.2313 134.121 64.1653C133.953 63.9833 134.12 63.7557 134.327 63.5754C134.404 63.5091 134.953 63.5511 135.014 63.5461C135.987 63.4633 134.673 63.4248 134.596 63.3997C134.137 63.2431 134.753 63.1176 134.589 62.9719C134.542 62.9322 133.919 62.9649 133.863 62.9573C133.318 62.8779 134.439 62.9316 134.565 62.8782C134.915 62.7274 134.864 62.5623 134.783 62.4133C134.751 62.3589 134.027 62.4269 134.007 62.3782C133.879 62.0891 133.946 61.7826 134.343 61.4934C134.419 61.4389 134.978 61.466 135.106 61.4534C135.999 61.3658 134.778 61.2669 134.662 61.2424C134.131 61.1308 134.624 61.0788 134.531 60.9758C134.065 60.4765 134.383 59.8369 134.577 59.3557C134.826 58.7299 135.347 58.2225 135.195 57.634C135.186 57.5968 134.451 57.6513 134.427 57.6204C134.237 57.2048 134.516 56.7772 134.29 56.3655C134.272 56.3318 133.57 56.4012 133.517 56.3479C133.407 56.2381 133.441 56.0954 133.663 55.9739C133.77 55.9142 134.375 55.971 134.471 55.9114C134.694 55.7717 134.74 55.6281 134.623 55.4963C134.568 55.4413 133.853 55.55 133.843 55.4758C133.755 54.9695 133.614 54.4877 134.526 53.9348C134.589 53.8973 136.052 53.8082 135.769 53.7444C135.363 53.7549 134.884 53.7744 134.45 53.7893C134.187 53.074 134.66 52.3125 134.701 51.5823C134.702 51.5509 133.934 51.6447 133.929 51.5852C133.923 51.2354 133.689 50.9161 134.439 50.5266C134.514 50.4874 135.877 50.4272 135.665 50.3333C135.625 50.3161 135.434 50.1687 135.136 50.1467C135.09 50.1443 134.457 50.2121 134.434 50.1633C134.32 49.8773 134.446 49.5685 134.815 49.261C134.878 49.2115 135.556 49.2128 135.606 49.177C135.615 49.1704 135.623 49.163 135.631 49.1565L136.562 51.8547C136.826 51.9631 137.001 52.2857 137.474 52.6829C137.919 53.0741 138.782 53.4532 139.41 53.2717C140.167 52.9936 140.044 51.7623 140.231 50.6272C140.257 50.4652 140.247 50.4383 140.238 49.7659C140.232 48.075 140.318 46.2245 140.31 44.4221C140.28 44.0332 140.115 44.451 140.212 43.5129C140.202 43.4492 140.413 43.1385 140.542 42.8264C140.618 42.6093 140.515 41.9212 140.682 41.6467C140.87 41.376 141.021 41.9537 141.469 41.6848ZM138.78 90.8147C138.319 90.7972 138.826 91.0044 139.399 91.0217C139.859 91.0395 139.353 90.8411 138.78 90.8147ZM89.8953 89.4983C90.5951 89.8239 90.6429 89.9786 89.699 89.7893C89.7791 89.6986 89.8183 89.5922 89.8953 89.4983ZM138.091 89.2991C138.074 89.323 138.07 89.4149 138.054 89.4397C138.382 89.5153 138.681 89.5832 138.774 89.6018C138.785 89.5845 138.788 89.5194 138.8 89.5022C138.815 89.5064 138.825 89.5093 138.828 89.51C139.401 89.6118 137.972 89.2474 137.282 89.0696C137.493 89.1293 137.804 89.2167 138.091 89.2991ZM8.50854 89.0833C9.55112 87.9668 8.02028 86.5453 7.58667 87.0305C6.16136 88.6644 7.46818 90.2274 8.50854 89.0833ZM135.664 88.6643C135.657 88.6621 135.65 88.6621 135.645 88.6604C135.561 88.6317 135.598 88.6189 135.683 88.6106C135.675 88.622 135.669 88.6413 135.664 88.6643ZM136.941 88.2268C136.126 88.1864 137.905 88.4829 138.227 88.4983C139.287 88.537 137.759 88.2605 136.941 88.2268ZM142.92 83.052C143.679 83.1712 143.763 83.2716 142.802 83.2825C142.857 83.2075 142.869 83.1286 142.92 83.052ZM90.2537 82.2981C89.5419 82.0269 89.4247 82.2064 90.1941 82.3918C90.2251 82.3973 90.2818 82.3101 90.2537 82.2981ZM87.4197 81.637C88.0811 81.7023 85.796 80.9969 86.3044 81.2932C86.3385 81.3104 87.3844 81.6332 87.4197 81.637ZM141.401 78.1848C140.644 78.122 140.578 78.2606 141.368 78.2571C141.399 78.2564 141.432 78.188 141.401 78.1848ZM91.6677 75.887C91.0442 75.7062 91.1899 75.8581 91.7742 75.9973C91.8089 76.005 91.8599 75.9429 91.6677 75.887ZM141.034 73.6985C140.385 73.689 140.567 73.7629 141.167 73.7522C141.202 73.7514 141.235 73.7015 141.034 73.6985ZM94.5574 72.0569C93.401 71.5871 93.1396 72.0107 94.4207 72.2786C94.4869 72.2914 94.6139 72.0824 94.5574 72.0569ZM14.0339 69.2737C13.9628 69.3094 13.8976 69.3477 13.8386 69.3879C12.2735 70.5772 14.7607 72.3963 15.3464 70.6448C15.3507 70.6333 15.355 70.6214 15.3591 70.6096C15.3914 70.5104 14.1454 69.2188 14.0339 69.2737ZM142.765 70.6516C141.525 70.5515 141.389 70.8788 142.694 70.8235C142.761 70.8205 142.827 70.6583 142.765 70.6516ZM30.2185 59.3811C29.4024 59.1785 27.6758 60.3653 28.6912 60.6057C29.5027 60.798 31.2316 59.6307 30.2185 59.3811ZM57.5232 50.7786C56.7925 50.2155 57.1463 49.3465 60.3152 49.5569C60.8983 49.6348 60.2349 49.7883 59.6824 50.0305C59.1259 50.272 58.6684 50.568 59.322 50.677C61.5795 51.0684 63.8831 50.1443 65.6296 52.1282C65.9099 52.4466 62.6223 52.6654 62.4167 52.6565C62.4195 52.6562 62.4227 52.6558 62.4255 52.6555C60.3602 51.7898 58.3048 51.4211 57.5232 50.7786ZM139.8 50.1624C139.816 50.1366 139.929 50.1559 139.92 50.1848C139.715 50.9271 139.355 50.8253 139.8 50.1624ZM97.3826 40.2278C96.6567 40.4526 96.617 40.5303 97.3689 40.2883C97.399 40.2781 97.4125 40.2191 97.3826 40.2278ZM56.5798 18.553C56.5456 18.5327 55.5329 19.0939 55.5261 19.1379C55.396 20.0973 57.3918 18.9887 56.5798 18.553Z" fill="white" fill-opacity="0.7"/>
</g>
</svg>
