<svg width="42" height="43" viewBox="0 0 42 43" fill="none" xmlns="http://www.w3.org/2000/svg">
<g id="icon-educa">
<g id="mortarboard 1" clip-path="url(#clip0_86_1591)">
<g id="Group">
<path id="Vector" d="M40.4006 11.7855L23.3577 4.48124C21.8593 3.83913 20.1398 3.83963 18.6396 4.4825L1.60042 11.7851C0.613284 12.2081 0 13.138 0 14.2118C0 15.2851 0.612865 16.2145 1.59942 16.6373L3.61358 17.5006C3.61149 17.5214 3.6104 17.5425 3.6104 17.5638V27.0952C2.83185 27.3582 2.26952 28.095 2.26952 28.9612C2.26952 29.4634 2.45875 29.9221 2.76925 30.2704C2.42582 30.607 2.19778 31.0634 2.15069 31.5806L1.66814 36.8889C1.65199 37.0687 1.67338 37.2498 1.73096 37.4208C1.78854 37.5919 1.88104 37.7491 2.0026 37.8824C2.12442 38.0156 2.27259 38.122 2.43771 38.1948C2.60283 38.2676 2.78128 38.3053 2.96175 38.3055H5.51604C5.88009 38.3055 6.22972 38.1513 6.47519 37.8824C6.59675 37.7491 6.68926 37.5919 6.74684 37.4208C6.80442 37.2498 6.82581 37.0687 6.80965 36.8889L6.3271 31.5806C6.28009 31.0635 6.05197 30.6071 5.70854 30.2704C6.01904 29.9221 6.20827 29.4635 6.20827 28.9612C6.20827 28.0951 5.64594 27.3583 4.86739 27.0952V18.0379L8.30657 19.5119C8.30446 19.5329 8.30339 19.5539 8.30339 19.575V24.3739C8.30339 26.3768 9.67477 28.2296 12.165 29.5913C14.5352 30.8872 17.6729 31.601 20.9998 31.601C24.3268 31.601 27.4645 30.8872 29.8346 29.5913C32.3248 28.2296 33.6963 26.3768 33.6963 24.3739V19.575C33.6963 19.5537 33.6952 19.5327 33.6931 19.512L40.3995 16.6378C41.3866 16.2148 41.9999 15.2848 41.9999 14.211C42 13.1377 41.3871 12.2083 40.4006 11.7855ZM5.54696 37.0348C5.53456 37.0484 5.52107 37.0484 5.51604 37.0484H2.96175C2.95664 37.0484 2.94323 37.0484 2.93083 37.0348C2.91834 37.0211 2.9196 37.0078 2.92001 37.0027L3.40256 31.6944C3.42066 31.4853 3.51672 31.2907 3.67166 31.1492C3.82661 31.0078 4.02911 30.9297 4.23894 30.9307C4.44875 30.9297 4.65122 31.0078 4.80616 31.1493C4.96109 31.2908 5.05713 31.4853 5.07523 31.6944L5.55777 37.0027C5.55828 37.0078 5.55945 37.0211 5.54696 37.0348ZM4.23894 29.6736C3.84614 29.6736 3.52659 29.354 3.52659 28.9612C3.52659 28.5684 3.84614 28.2489 4.23894 28.2489C4.63173 28.2489 4.95128 28.5684 4.95128 28.9612C4.95128 29.354 4.63173 29.6736 4.23894 29.6736ZM32.4393 21.6923C32.4393 23.3176 31.1016 24.9044 28.7692 26.0459C28.6951 26.0822 28.6288 26.1327 28.5742 26.1946C28.5196 26.2565 28.4777 26.3285 28.451 26.4066C28.4242 26.4847 28.4131 26.5673 28.4182 26.6497C28.4234 26.732 28.4447 26.8126 28.481 26.8867C28.5173 26.9609 28.5678 27.0272 28.6297 27.0818C28.6916 27.1364 28.7637 27.1783 28.8418 27.205C28.9198 27.2318 29.0024 27.2429 29.0848 27.2377C29.1672 27.2326 29.2478 27.2112 29.3219 27.1749C30.6156 26.5418 31.6521 25.7705 32.3911 24.9128C32.1554 26.2383 31.0548 27.4916 29.2317 28.4884C27.0433 29.6851 24.1199 30.344 21 30.344C17.8801 30.344 14.9567 29.6851 12.7683 28.4884C10.9518 27.4952 9.85227 26.2473 9.61125 24.9271C10.2466 25.6595 11.1038 26.3293 12.1651 26.9096C14.5353 28.2056 17.6729 28.9193 20.9999 28.9193C21.9307 28.9193 22.859 28.8627 23.759 28.7511C23.8409 28.7409 23.92 28.7147 23.9918 28.674C24.0636 28.6332 24.1267 28.5788 24.1774 28.5137C24.2282 28.4486 24.2656 28.3741 24.2876 28.2945C24.3095 28.215 24.3156 28.1319 24.3054 28.0499C24.2953 27.968 24.2692 27.8889 24.2284 27.8171C24.1877 27.7453 24.1332 27.6822 24.0681 27.6314C24.003 27.5807 23.9285 27.5433 23.849 27.5213C23.7694 27.4994 23.6862 27.4933 23.6043 27.5035C22.7554 27.6089 21.8791 27.6623 20.9999 27.6623C17.88 27.6623 14.9567 27.0033 12.7682 25.8067C10.6997 24.6756 9.56055 23.2145 9.56055 21.6923V20.0493L18.6423 23.9417C19.391 24.2625 20.1949 24.423 20.9992 24.423C21.8044 24.423 22.6099 24.2621 23.3604 23.9405L32.4393 20.0495V21.6923ZM39.9044 15.4824L22.8651 22.7849C21.6797 23.2929 20.3211 23.2933 19.1375 22.7862L6.11508 17.205L18.0471 15.1298C18.5838 15.765 19.6776 16.1809 20.9999 16.1809C22.8871 16.1809 24.3102 15.3342 24.3102 14.2115C24.3102 13.0888 22.8871 12.2421 20.9999 12.2421C19.2859 12.2421 17.9549 12.9405 17.7251 13.9098L4.13125 16.2739C4.09215 16.2808 4.05379 16.2914 4.01669 16.3055L2.0947 15.4817C1.57017 15.2571 1.25707 14.7823 1.25707 14.2118C1.25707 13.6408 1.57059 13.1654 2.09563 12.9404L19.1348 5.63783C19.7247 5.38581 20.3595 5.25609 21.0009 5.25652C21.6362 5.25652 22.2712 5.38323 22.8625 5.63657L39.9054 12.9408C40.4298 13.1656 40.7429 13.6404 40.7429 14.2109C40.7429 14.7821 40.4294 15.2574 39.9044 15.4824ZM18.9467 14.2116C18.9467 14.0285 19.6527 13.4992 20.9999 13.4992C22.3472 13.4992 23.0531 14.0285 23.0531 14.2116C23.0531 14.3947 22.3472 14.9239 20.9999 14.9239C19.6527 14.9239 18.9467 14.3946 18.9467 14.2116Z" fill="white"/>
<path id="Vector_2" d="M25.6924 28.402C25.7393 28.402 25.7869 28.3967 25.8345 28.3857C26.3022 28.2779 26.7656 28.1517 27.2234 28.0073C27.5543 27.9027 27.7378 27.5495 27.6331 27.2186C27.5284 26.8876 27.1753 26.704 26.8442 26.8087C26.4181 26.9431 25.9869 27.0605 25.5515 27.1608C25.3891 27.1983 25.2483 27.2988 25.1599 27.4402C25.0716 27.5816 25.0431 27.7522 25.0806 27.9146C25.1125 28.053 25.1904 28.1765 25.3015 28.265C25.4126 28.3535 25.5504 28.4018 25.6924 28.402Z" fill="white"/>
</g>
</g>
</g>
<defs>
<clipPath id="clip0_86_1591">
<rect width="41.9999" height="42.3055" fill="white"/>
</clipPath>
</defs>
</svg>
