<svg width="42" height="42" viewBox="0 0 42 42" fill="none" xmlns="http://www.w3.org/2000/svg">
<g id="social" clip-path="url(#clip0_57_821)">
<g id="Group">
<path id="Vector" d="M25.375 41.51C25.1429 41.51 24.9204 41.4178 24.7563 41.2537C24.5922 41.0896 24.5 40.8671 24.5 40.635V34.125C24.5 32.5518 24.2988 31.4353 23.8648 30.6163C23.8024 30.4979 23.768 30.3668 23.7643 30.233C23.7605 30.0993 23.7875 29.9665 23.8431 29.8448C23.8987 29.7231 23.9814 29.6158 24.085 29.5311C24.1886 29.4464 24.3102 29.3866 24.4405 29.3563C29.6275 28.1593 33.25 24.3635 33.25 20.125C33.25 18.025 32.3873 16.0213 30.7563 14.329C30.6334 14.2019 30.5519 14.0406 30.5226 13.8663C30.4932 13.692 30.5173 13.5128 30.5918 13.3525C31.2428 11.949 31.1045 10.038 30.3328 8.89175C29.3125 9.29075 27.9878 10.1255 27.1268 11.1475C27.0116 11.2854 26.8566 11.3843 26.6829 11.4303C26.5093 11.4764 26.3256 11.4675 26.1572 11.4048C22.8251 10.2007 19.1766 10.2007 15.8445 11.4048C15.6762 11.4666 15.4929 11.4753 15.3195 11.4296C15.1461 11.3839 14.9909 11.2861 14.875 11.1493C14.014 10.1273 12.6892 9.2925 11.6672 8.8935C10.8955 10.0398 10.7573 11.9508 11.4083 13.3543C11.4828 13.5143 11.5069 13.6931 11.4776 13.8672C11.4482 14.0413 11.3667 14.2023 11.2438 14.329C9.61275 16.0213 8.75 18.0268 8.75 20.125C8.75 24.1623 12.0102 27.7988 16.863 29.1725C17.0465 29.2247 17.2079 29.3352 17.3229 29.4875C17.4379 29.6397 17.5 29.8252 17.5 30.016V30.6268C17.5 31.7223 17.0608 32.34 16.6915 32.6673C15.9005 33.362 14.8785 33.257 14.7665 33.2448H14.749C13.307 33.2448 12.222 32.4415 11.1738 31.6645C10.647 31.2743 10.1132 30.877 9.492 30.548C9.62675 30.73 9.75975 30.9173 9.8945 31.1045C11.207 32.9298 12.6928 35 14.8768 35H16.6268C16.8588 35 17.0814 35.0922 17.2455 35.2563C17.4096 35.4204 17.5018 35.6429 17.5018 35.875V40.635C17.5017 40.7659 17.4723 40.8952 17.4156 41.0132C17.359 41.1313 17.2766 41.2351 17.1745 41.317C17.0723 41.399 16.9531 41.457 16.8256 41.4868C16.6981 41.5165 16.5656 41.5173 16.4377 41.489C6.9125 39.375 0 30.7598 0 21C0 9.42025 9.42025 0 21 0C32.5798 0 42 9.42025 42 21C42 30.758 35.0875 39.375 25.564 41.489C25.502 41.5029 25.4386 41.5099 25.375 41.51ZM25.8265 30.7983C26.1135 31.703 26.25 32.788 26.25 34.125V39.5115C34.4243 37.191 40.25 29.5768 40.25 21C40.25 10.3863 31.6138 1.75 21 1.75C10.3862 1.75 1.75 10.3863 1.75 21C1.75 29.5768 7.57575 37.191 15.75 39.5115V36.75H14.875C11.795 36.75 9.95225 34.1863 8.47175 32.1248C7.6335 30.9575 6.7655 29.75 6.125 29.75C5.89294 29.75 5.67038 29.6578 5.50628 29.4937C5.34219 29.3296 5.25 29.1071 5.25 28.875C5.25 28.6429 5.34219 28.4204 5.50628 28.2563C5.67038 28.0922 5.89294 28 6.125 28C9.17 28 10.8588 29.2513 12.215 30.2575C13.153 30.9523 13.8915 31.5 14.875 31.5C14.973 31.5053 15.3352 31.5315 15.5382 31.3495C15.7045 31.199 15.7465 30.8998 15.75 30.6635C10.4895 28.9363 7 24.7695 7 20.1268C7 17.7398 7.896 15.4718 9.597 13.5363C8.84625 11.361 9.31 8.7045 10.7555 7.25725C10.8631 7.14814 10.9977 7.06958 11.1456 7.0296C11.2935 6.98963 11.4494 6.98968 11.5972 7.02975C12.7662 7.3395 14.5022 8.24775 15.799 9.569C19.1794 8.48229 22.8154 8.48229 26.1957 9.569C27.4925 8.24775 29.2285 7.3395 30.3975 7.02975C30.5454 6.98949 30.7013 6.98935 30.8492 7.02933C30.9972 7.06932 31.1318 7.14799 31.2392 7.25725C32.6865 8.7045 33.1485 11.361 32.3978 13.5345C34.104 15.4718 35 17.7398 35 20.125C35 24.899 31.2778 29.1725 25.8265 30.7983Z" fill="white"/>
</g>
</g>
<defs>
<clipPath id="clip0_57_821">
<rect width="42" height="42" fill="white"/>
</clipPath>
</defs>
</svg>
