<svg width="42" height="42" viewBox="0 0 42 42" fill="none" xmlns="http://www.w3.org/2000/svg">
<path d="M36.1227 12.0471L26.16 2.08436C26.0768 1.9983 25.9768 1.93025 25.8663 1.88443C25.7557 1.83861 25.6369 1.816 25.5172 1.81799H9.24452C8.28009 1.81799 7.35517 2.20111 6.67322 2.88306C5.99127 3.56501 5.60815 4.48993 5.60815 5.45436V36.5453C5.60815 37.5097 5.99127 38.4346 6.67322 39.1166C7.35517 39.7985 8.28009 40.1816 9.24452 40.1816H32.7527C33.7171 40.1816 34.642 39.7985 35.324 39.1166C36.0059 38.4346 36.3891 37.5097 36.3891 36.5453V12.6898C36.3883 12.4489 36.2926 12.2179 36.1227 12.0471ZM33.2854 11.7807H27.79C27.4283 11.7807 27.0815 11.6371 26.8257 11.3813C26.57 11.1256 26.4263 10.7787 26.4263 10.4171V4.92163L33.2854 11.7807ZM32.7527 38.3634H9.24725C8.76503 38.3634 8.30257 38.1719 7.9616 37.8309C7.62062 37.4899 7.42906 37.0275 7.42906 36.5453V5.45436C7.42906 4.97214 7.62062 4.50968 7.9616 4.16871C8.30257 3.82773 8.76503 3.63617 9.24725 3.63617H24.6109V10.4171C24.6109 11.261 24.9461 12.0703 25.5428 12.667C26.1395 13.2637 26.9488 13.5989 27.7927 13.5989H34.5736V36.5453C34.5736 36.7843 34.5265 37.0209 34.4349 37.2417C34.3434 37.4625 34.2092 37.663 34.0401 37.8319C33.871 38.0007 33.6702 38.1346 33.4493 38.2258C33.2284 38.317 32.9917 38.3638 32.7527 38.3634Z" fill="white"/>
<path d="M17.7436 15.3636C18.4718 15.3636 19.1837 15.1477 19.7891 14.7431C20.3946 14.3386 20.8665 13.7636 21.1452 13.0908C21.4239 12.418 21.4968 11.6777 21.3547 10.9635C21.2126 10.2493 20.862 9.59329 20.3471 9.07838C19.8322 8.56347 19.1761 8.21281 18.4619 8.07075C17.7477 7.92868 17.0074 8.0016 16.3347 8.28026C15.6619 8.55893 15.0869 9.03084 14.6823 9.63631C14.2778 10.2418 14.0618 10.9536 14.0618 11.6818C14.063 12.6579 14.4513 13.5937 15.1415 14.2839C15.8317 14.9741 16.7675 15.3624 17.7436 15.3636ZM17.7436 9.81818C18.1122 9.81818 18.4725 9.92748 18.779 10.1323C19.0855 10.337 19.3244 10.6281 19.4654 10.9686C19.6065 11.3092 19.6434 11.6839 19.5715 12.0454C19.4996 12.4069 19.3221 12.739 19.0614 12.9996C18.8008 13.2602 18.4687 13.4377 18.1072 13.5096C17.7457 13.5816 17.371 13.5446 17.0305 13.4036C16.6899 13.2625 16.3989 13.0237 16.1941 12.7172C15.9893 12.4107 15.88 12.0504 15.88 11.6818C15.8807 11.1878 16.0773 10.7142 16.4266 10.3648C16.776 10.0155 17.2496 9.8189 17.7436 9.81818ZM12.4155 22.4091C12.6566 22.4091 12.8878 22.3133 13.0583 22.1428C13.2288 21.9723 13.3245 21.7411 13.3245 21.5V20.9455C13.3257 20.0523 13.6811 19.196 14.3127 18.5645C14.9442 17.9329 15.8005 17.5776 16.6936 17.5764H18.7936C19.6868 17.5776 20.543 17.9329 21.1746 18.5645C21.8062 19.196 22.1615 20.0523 22.1627 20.9455V21.5C22.1627 21.7411 22.2585 21.9723 22.429 22.1428C22.5995 22.3133 22.8307 22.4091 23.0718 22.4091C23.3129 22.4091 23.5442 22.3133 23.7146 22.1428C23.8851 21.9723 23.9809 21.7411 23.9809 21.5V20.9455C23.9792 19.5702 23.4322 18.2518 22.4597 17.2794C21.4873 16.3069 20.1689 15.7599 18.7936 15.7582H16.6936C15.3184 15.7599 14 16.3069 13.0275 17.2794C12.0551 18.2518 11.508 19.5702 11.5064 20.9455V21.5C11.5064 21.7411 11.6021 21.9723 11.7726 22.1428C11.9431 22.3133 12.1743 22.4091 12.4155 22.4091ZM11.9091 29.0609H22.9409C23.182 29.0609 23.4132 28.9651 23.5837 28.7946C23.7542 28.6242 23.85 28.3929 23.85 28.1518C23.85 27.9107 23.7542 27.6795 23.5837 27.509C23.4132 27.3385 23.182 27.2427 22.9409 27.2427H11.9091C11.668 27.2427 11.4368 27.3385 11.2663 27.509C11.0958 27.6795 11 27.9107 11 28.1518C11 28.3929 11.0958 28.6242 11.2663 28.7946C11.4368 28.9651 11.668 29.0609 11.9091 29.0609ZM29.1818 32.03H11.9091C11.668 32.03 11.4368 32.1258 11.2663 32.2963C11.0958 32.4668 11 32.698 11 32.9391C11 33.1802 11.0958 33.4114 11.2663 33.5819C11.4368 33.7524 11.668 33.8482 11.9091 33.8482H29.1818C29.4229 33.8482 29.6542 33.7524 29.8246 33.5819C29.9951 33.4114 30.0909 33.1802 30.0909 32.9391C30.0909 32.698 29.9951 32.4668 29.8246 32.2963C29.6542 32.1258 29.4229 32.03 29.1818 32.03Z" fill="white"/>
</svg>
