<svg width="42" height="42" viewBox="0 0 42 42" fill="none" xmlns="http://www.w3.org/2000/svg">
<g id="social (1) 1">
<g id="Group">
<path id="Vector" d="M38.4062 41.6875H4.28125C2.44375 41.6875 1 40.2437 1 38.4062V4.28125C1 2.44375 2.44375 1 4.28125 1H38.4062C40.2437 1 41.6875 2.44375 41.6875 4.28125V38.4062C41.6875 40.2437 40.2437 41.6875 38.4062 41.6875ZM4.28125 2.3125C3.16562 2.3125 2.3125 3.16562 2.3125 4.28125V38.4062C2.3125 39.5219 3.16562 40.375 4.28125 40.375H38.4062C39.5219 40.375 40.375 39.5219 40.375 38.4062V4.28125C40.375 3.16562 39.5219 2.3125 38.4062 2.3125H4.28125ZM34.4688 35.125H29.8094C29.4156 35.125 29.1531 34.8625 29.1531 34.4688V25.4125C29.1531 22.9844 29.0219 22.1969 28.8906 21.9344C28.7594 21.475 28.4969 21.1469 28.1688 20.95C27.8406 20.6875 27.4469 20.6219 26.9875 20.6219C26.3312 20.6219 25.7406 20.8188 25.2812 21.1469C24.7562 21.5406 24.4281 22 24.2313 22.5906C24.1 23.05 23.9031 24.1 23.9031 26.4625V34.4688C23.9031 34.8625 23.6406 35.125 23.2469 35.125H17.6031C17.2094 35.125 16.9469 34.8625 16.9469 34.4688V16.3562C16.9469 15.9625 17.2094 15.7 17.6031 15.7H22.2625C22.6563 15.7 22.9188 15.9625 22.9188 16.3562V17.3406C24.4281 15.9625 26.2 15.3062 28.3 15.3062C29.4812 15.3062 30.5312 15.5031 31.5156 15.9625C32.5 16.3562 33.2875 16.9469 33.8125 17.6031C34.3375 18.2594 34.6656 19.0469 34.8625 19.8344C35.0594 20.6219 35.125 21.7375 35.125 23.1812V34.4688C35.125 34.8625 34.8625 35.125 34.4688 35.125ZM30.4656 33.8125H33.8125V23.2469C33.8125 21.9344 33.7469 20.8844 33.55 20.1625C33.4187 19.5063 33.0906 18.9156 32.6969 18.3906C32.3031 17.8656 31.7125 17.4719 30.925 17.1438C30.1375 16.8156 29.2188 16.6187 28.2344 16.6187C26.0031 16.6187 24.1656 17.5375 22.7219 19.4406C22.525 19.6375 22.2625 19.7687 22 19.6375C21.7375 19.5719 21.5406 19.3094 21.5406 19.0469V17.0125H18.1938V33.8125H22.525V26.4625C22.525 24.3625 22.6563 22.9844 22.9188 22.1969C23.1813 21.3437 23.7063 20.6219 24.4281 20.0969C25.15 19.5719 26.0031 19.3094 26.9219 19.3094C27.6438 19.3094 28.3 19.5062 28.8906 19.9C29.4156 20.2937 29.8094 20.8187 30.0719 21.5406C30.2031 21.9344 30.4 22.7875 30.4 25.4781V33.8125H30.4656ZM12.8781 35.125H8.21875C7.825 35.125 7.5625 34.8625 7.5625 34.4688V16.3562C7.5625 15.9625 7.825 15.7 8.21875 15.7H12.8781C13.2719 15.7 13.5344 15.9625 13.5344 16.3562V34.4688C13.5344 34.8625 13.2719 35.125 12.8781 35.125ZM8.875 33.8125H12.2219V17.0125H8.875V33.8125ZM10.5813 13.4031C8.94063 13.4031 7.5625 12.0906 7.5625 10.5156C7.5625 8.94062 8.94063 7.62813 10.5813 7.62813C12.2219 7.62813 13.6 8.94062 13.6 10.5156C13.6 12.0906 12.2219 13.4031 10.5813 13.4031ZM10.5813 8.875C9.6625 8.875 8.875 9.59687 8.875 10.45C8.875 11.3031 9.6625 12.025 10.5813 12.025C11.5 12.025 12.2875 11.3031 12.2875 10.45C12.2875 9.59687 11.5 8.875 10.5813 8.875Z" fill="white"/>
</g>
</g>
</svg>
