<svg width="42" height="42" viewBox="0 0 42 42" fill="none" xmlns="http://www.w3.org/2000/svg">
<path d="M41.5561 1.32814C41.4935 1.21971 41.4012 1.13146 41.2901 1.07378C41.179 1.01611 41.0537 0.991423 40.929 1.00264L25.1573 2.42063C25.0184 2.43311 24.8871 2.4895 24.7824 2.58162C24.6778 2.67374 24.6052 2.7968 24.5752 2.93296C24.5451 3.06912 24.5593 3.21131 24.6155 3.3389C24.6717 3.46649 24.7671 3.57285 24.8879 3.64257L30.9296 7.13021C30.6991 7.2728 30.4652 7.40994 30.2283 7.54151C30.076 7.62578 29.9634 7.76708 29.9153 7.93435C29.8672 8.10162 29.8875 8.28115 29.9718 8.43344C30.056 8.58573 30.1973 8.69831 30.3646 8.74642C30.5319 8.79453 30.7114 8.77421 30.8637 8.68995C30.9826 8.62398 31.1007 8.55666 31.218 8.48799L31.2175 14.606C31.2175 14.78 31.2866 14.9469 31.4097 15.07C31.5327 15.1931 31.6996 15.2623 31.8737 15.2624C31.9789 15.2624 32.0826 15.2371 32.176 15.1886C32.2694 15.1401 32.3498 15.0699 32.4104 14.9838L41.5246 2.03394C41.5966 1.93157 41.6379 1.81073 41.6435 1.68566C41.6491 1.5606 41.6188 1.43655 41.5562 1.32814H41.5561ZM38.0816 2.57641L31.8745 6.16011L27.3395 3.54224L38.0816 2.57641ZM32.5307 7.29673L38.7378 3.71303L32.5303 12.533L32.5307 7.29673ZM29.7034 25.06L26.7735 22.619V14.7573C26.7735 13.8595 26.0431 13.129 25.1452 13.129H7.31728C6.41945 13.129 5.68896 13.8594 5.68896 14.7573V22.619L2.75913 25.06C2.21502 25.5132 1.92742 26.1271 1.92742 26.8353V39.5531C1.92742 40.8272 2.96396 41.8637 4.23799 41.8637H28.2244C29.4984 41.8637 30.5349 40.8273 30.5349 39.5532V26.8353C30.5349 26.1373 30.2396 25.5069 29.7034 25.06H29.7034ZM21.9051 31.5968L29.2226 27.2178V39.5282L21.9051 31.5968ZM28.7479 25.9723L26.7736 27.1538V24.3274L28.7479 25.9723ZM7.31728 14.4415H25.1453C25.229 14.4416 25.3093 14.4749 25.3685 14.5341C25.4277 14.5933 25.461 14.6736 25.4611 14.7573V27.9392L16.7437 33.156C16.4134 33.3536 16.0492 33.3538 15.7188 33.156L7.00146 27.9393V14.7573C7.00155 14.6736 7.03485 14.5933 7.09406 14.5341C7.15326 14.4749 7.23354 14.4416 7.31728 14.4415ZM3.24 39.5282V27.2178L10.5574 31.5968L3.24 39.5282ZM5.68896 27.1538L3.71463 25.9723L5.68896 24.3274V27.1539V27.1538ZM4.23807 40.5511C4.18861 40.5511 4.14045 40.5463 4.09288 40.5393L11.7079 32.2853L15.0447 34.2821C15.4162 34.5044 15.8238 34.6156 16.2313 34.6156C16.6388 34.6156 17.0463 34.5044 17.4177 34.2821L20.7546 32.2853L28.3697 40.5393C28.3222 40.5463 28.274 40.5511 28.2246 40.5511H4.23807ZM23.9047 23.8762C23.9047 24.0503 23.8355 24.2172 23.7124 24.3403C23.5894 24.4633 23.4225 24.5325 23.2484 24.5325H18.5958C18.4218 24.5325 18.2549 24.4633 18.1318 24.3403C18.0087 24.2172 17.9396 24.0503 17.9396 23.8762C17.9396 23.7022 18.0087 23.5353 18.1318 23.4122C18.2549 23.2891 18.4218 23.22 18.5958 23.22H23.2484C23.4225 23.22 23.5894 23.2891 23.7124 23.4122C23.8355 23.5353 23.9047 23.7022 23.9047 23.8762ZM23.9047 27.4054C23.9047 27.5794 23.8355 27.7463 23.7124 27.8694C23.5894 27.9925 23.4225 28.0616 23.2484 28.0616H21.6892C21.5151 28.0616 21.3482 27.9925 21.2251 27.8694C21.102 27.7463 21.0329 27.5794 21.0329 27.4054C21.0329 27.2313 21.102 27.0644 21.2251 26.9413C21.3482 26.8183 21.5151 26.7491 21.6892 26.7491H23.2484C23.4225 26.7491 23.5894 26.8183 23.7124 26.9413C23.8355 27.0644 23.9047 27.2313 23.9047 27.4054ZM20.1526 27.4054C20.1526 27.5794 20.0835 27.7463 19.9604 27.8694C19.8373 27.9925 19.6704 28.0616 19.4964 28.0616H17.0892C16.9151 28.0616 16.7482 27.9925 16.6251 27.8694C16.5021 27.7463 16.4329 27.5794 16.4329 27.4054C16.4329 27.2313 16.5021 27.0644 16.6251 26.9413C16.7482 26.8183 16.9151 26.7491 17.0892 26.7491H19.4964C19.6704 26.7491 19.8373 26.8183 19.9604 26.9413C20.0835 27.0644 20.1526 27.2313 20.1526 27.4054ZM17.9455 21.0033H12.7801C12.6061 21.0033 12.4392 20.9341 12.3161 20.811C12.193 20.688 12.1239 20.5211 12.1239 20.347C12.1239 20.173 12.193 20.006 12.3161 19.883C12.4392 19.7599 12.6061 19.6908 12.7801 19.6908H17.9455C18.1195 19.6908 18.2865 19.7599 18.4095 19.883C18.5326 20.006 18.6017 20.173 18.6017 20.347C18.6017 20.5211 18.5326 20.688 18.4095 20.811C18.2865 20.9341 18.1195 21.0033 17.9455 21.0033ZM15.4508 27.4054C15.4508 27.5794 15.3817 27.7463 15.2586 27.8694C15.1356 27.9925 14.9686 28.0616 14.7946 28.0616H12.5066C12.3325 28.0616 12.1656 27.9925 12.0425 27.8694C11.9195 27.7463 11.8503 27.5794 11.8503 27.4054C11.8503 27.2313 11.9195 27.0644 12.0425 26.9413C12.1656 26.8183 12.3325 26.7491 12.5066 26.7491H14.7946C14.9686 26.7491 15.1356 26.8183 15.2586 26.9413C15.3817 27.0644 15.4508 27.2313 15.4508 27.4054ZM8.55792 27.4054C8.55792 27.2313 8.62706 27.0644 8.75013 26.9413C8.8732 26.8183 9.04012 26.7491 9.21417 26.7491H10.4157C10.5897 26.7491 10.7566 26.8183 10.8797 26.9413C11.0028 27.0644 11.0719 27.2313 11.0719 27.4054C11.0719 27.5794 11.0028 27.7463 10.8797 27.8694C10.7566 27.9925 10.5897 28.0616 10.4157 28.0616H9.21417C9.04012 28.0616 8.8732 27.9925 8.75013 27.8694C8.62706 27.7463 8.55792 27.5794 8.55792 27.4054ZM8.55792 23.8762C8.55792 23.7022 8.62706 23.5353 8.75013 23.4122C8.8732 23.2891 9.04012 23.22 9.21417 23.22H16.1237C16.2977 23.22 16.4646 23.2891 16.5877 23.4122C16.7108 23.5353 16.7799 23.7022 16.7799 23.8762C16.7799 24.0503 16.7108 24.2172 16.5877 24.3403C16.4646 24.4633 16.2977 24.5325 16.1237 24.5325H9.21417C9.04012 24.5325 8.8732 24.4633 8.75013 24.3403C8.62706 24.2172 8.55792 24.0503 8.55792 23.8762ZM8.55792 20.347C8.55792 20.173 8.62706 20.006 8.75013 19.883C8.8732 19.7599 9.04012 19.6908 9.21417 19.6908H10.7272C10.9013 19.6908 11.0682 19.7599 11.1913 19.883C11.3143 20.006 11.3835 20.173 11.3835 20.347C11.3835 20.5211 11.3143 20.688 11.1913 20.811C11.0682 20.9341 10.9013 21.0033 10.7272 21.0033H9.21417C9.04012 21.0033 8.8732 20.9341 8.75013 20.811C8.62706 20.688 8.55792 20.5211 8.55792 20.347ZM14.5722 16.8179C14.5722 16.6438 14.6413 16.4769 14.7644 16.3538C14.8875 16.2307 15.0544 16.1616 15.2285 16.1616H23.2484C23.4225 16.1616 23.5894 16.2307 23.7124 16.3538C23.8355 16.4769 23.9047 16.6438 23.9047 16.8179C23.9047 16.9919 23.8355 17.1588 23.7124 17.2819C23.5894 17.405 23.4225 17.4741 23.2484 17.4741H15.2285C15.0544 17.4741 14.8875 17.405 14.7644 17.2819C14.6413 17.1588 14.5722 16.9919 14.5722 16.8179ZM8.55792 16.8179C8.55792 16.6438 8.62706 16.4769 8.75013 16.3538C8.8732 16.2307 9.04012 16.1616 9.21417 16.1616H12.2101C12.3842 16.1616 12.5511 16.2307 12.6742 16.3538C12.7972 16.4769 12.8664 16.6438 12.8664 16.8179C12.8664 16.9919 12.7972 17.1588 12.6742 17.2819C12.5511 17.405 12.3842 17.4741 12.2101 17.4741H9.21417C9.04012 17.4741 8.8732 17.405 8.75013 17.2819C8.62706 17.1588 8.55792 16.9919 8.55792 16.8179ZM23.9047 20.347C23.9047 20.5211 23.8355 20.688 23.7124 20.811C23.5894 20.9341 23.4225 21.0033 23.2484 21.0033H20.0988C19.9248 21.0033 19.7578 20.9341 19.6348 20.811C19.5117 20.688 19.4426 20.5211 19.4426 20.347C19.4426 20.173 19.5117 20.006 19.6348 19.883C19.7578 19.7599 19.9248 19.6908 20.0988 19.6908H23.2484C23.4225 19.6908 23.5894 19.7599 23.7124 19.883C23.8355 20.006 23.9047 20.173 23.9047 20.347ZM9.74007 6.34886C9.81726 5.99473 10.1673 5.77054 10.5211 5.84757L10.6318 5.87218C11.012 5.95741 11.4067 6.06093 11.8377 6.18833C12.0037 6.23843 12.1431 6.35221 12.2255 6.5048C12.3079 6.65739 12.3266 6.83639 12.2774 7.00268C12.2282 7.16898 12.1152 7.30905 11.9631 7.39229C11.811 7.47553 11.6321 7.49518 11.4655 7.44693C11.0629 7.32782 10.6959 7.2316 10.3437 7.15252L10.2414 7.12988C10.0713 7.09278 9.92298 6.98966 9.82897 6.84319C9.73496 6.69672 9.70298 6.51891 9.74007 6.34886ZM19.7494 9.4923C19.8204 9.13686 20.1666 8.90651 20.5214 8.97739C20.9347 9.06031 21.3508 9.12855 21.7689 9.18198C21.9405 9.20506 22.096 9.29503 22.2016 9.43228C22.3072 9.56953 22.3542 9.74294 22.3325 9.91473C22.3107 10.0865 22.222 10.2428 22.0856 10.3494C21.9492 10.456 21.7761 10.5044 21.6042 10.4841C21.1551 10.4268 20.7082 10.3535 20.2643 10.2644C20.1798 10.2475 20.0994 10.2142 20.0278 10.1662C19.9562 10.1183 19.8947 10.0567 19.8469 9.98501C19.7991 9.91331 19.7658 9.8329 19.7491 9.74835C19.7324 9.66381 19.7325 9.57681 19.7494 9.4923ZM4.52338 6.33771C4.49396 6.16617 4.53388 5.98998 4.63437 5.84788C4.73486 5.70578 4.88767 5.60941 5.0592 5.57998C5.49914 5.50451 5.96663 5.45661 6.44865 5.43766C6.81164 5.42527 7.11597 5.70549 7.13025 6.06766C7.13706 6.24158 7.07452 6.41109 6.95638 6.5389C6.83824 6.66672 6.67417 6.74239 6.50025 6.74926C6.07516 6.76591 5.66501 6.80783 5.28118 6.8737C5.10965 6.90307 4.93348 6.86313 4.79139 6.76265C4.6493 6.66217 4.55293 6.50938 4.52346 6.33787L4.52338 6.33771ZM14.7541 7.88596C14.8137 7.72245 14.9358 7.58931 15.0935 7.51582C15.2513 7.44233 15.4318 7.43452 15.5953 7.4941C16.0028 7.64329 16.4116 7.78898 16.8216 7.93116C16.9861 7.98802 17.1213 8.10791 17.1974 8.26445C17.2735 8.42098 17.2844 8.60135 17.2275 8.76587C17.1707 8.93039 17.0508 9.06558 16.8942 9.14171C16.7377 9.21784 16.5573 9.22866 16.3928 9.1718C15.9759 9.02717 15.5603 8.87901 15.1459 8.72736C15.065 8.69785 14.9906 8.65268 14.9271 8.59443C14.8636 8.53618 14.8121 8.46599 14.7758 8.38786C14.7394 8.30974 14.7187 8.22521 14.715 8.13911C14.7113 8.05301 14.7246 7.96694 14.7541 7.88596ZM0.375466 8.72629C0.59709 8.2762 0.883193 7.86085 1.22474 7.49336C1.34322 7.36588 1.50748 7.29066 1.6814 7.28423C1.85532 7.2778 2.02469 7.34069 2.15226 7.45907C2.27978 7.57754 2.35503 7.7418 2.36146 7.91574C2.36789 8.08967 2.30498 8.25904 2.18655 8.3866C1.93185 8.6606 1.71846 8.97027 1.55311 9.30584C1.49896 9.41593 1.41505 9.50864 1.31089 9.57345C1.20672 9.63827 1.08648 9.67259 0.963794 9.67252C0.863467 9.67251 0.764493 9.64938 0.674552 9.60493C0.518388 9.52808 0.399146 9.39235 0.343057 9.22759C0.286967 9.06283 0.298625 8.88246 0.375466 8.72629ZM24.9616 9.91148C24.9492 9.82619 24.9538 9.7393 24.975 9.65577C24.9962 9.57224 25.0337 9.49371 25.0852 9.42466C25.1368 9.3556 25.2015 9.29738 25.2755 9.25332C25.3496 9.20926 25.4316 9.18022 25.5169 9.16787C25.9288 9.10797 26.3376 9.02817 26.7419 8.92874C26.9099 8.88989 27.0865 8.91874 27.2334 9.00906C27.3804 9.09937 27.4858 9.2439 27.5271 9.41138C27.5683 9.57887 27.5419 9.75584 27.4536 9.90403C27.3654 10.0522 27.2224 10.1597 27.0555 10.2033C26.61 10.3128 26.1594 10.4007 25.7054 10.4667C25.5332 10.4917 25.3581 10.4472 25.2186 10.3431C25.0792 10.239 24.9868 10.0837 24.9618 9.91148H24.9616ZM2.53986 17.8944C2.43104 17.7585 2.38064 17.585 2.39973 17.412C2.41882 17.2391 2.50584 17.0807 2.64166 16.9719C2.70891 16.918 2.78611 16.8779 2.86887 16.8538C2.95163 16.8298 3.03831 16.8223 3.12397 16.8317C3.20963 16.8412 3.29259 16.8674 3.36811 16.9089C3.44363 16.9504 3.51023 17.0064 3.5641 17.0737C3.8279 17.4024 4.10365 17.7212 4.39081 18.0297C4.47774 18.1233 4.53548 18.2402 4.55695 18.3661C4.57842 18.492 4.56269 18.6214 4.51169 18.7386C4.46069 18.8557 4.37663 18.9553 4.26982 19.0254C4.16301 19.0954 4.03808 19.1328 3.91036 19.1329C3.82011 19.133 3.7308 19.1145 3.64806 19.0784C3.56532 19.0424 3.49093 18.9896 3.42957 18.9234C3.12055 18.5914 2.82379 18.2481 2.53986 17.8944ZM1.65597 13.8746C1.71651 14.036 1.71109 14.2148 1.64089 14.3722C1.57069 14.5297 1.44135 14.6532 1.28082 14.7161C1.12029 14.779 0.941457 14.7762 0.782978 14.7083C0.624499 14.6404 0.499097 14.5129 0.433872 14.3533C0.257505 13.9028 0.116247 13.4511 0.0142002 13.0107C-0.0213578 12.8425 0.0104718 12.6671 0.10285 12.5221C0.195228 12.3772 0.340783 12.2742 0.50824 12.2354C0.675697 12.1966 0.851694 12.2251 0.998414 12.3146C1.14513 12.4042 1.25087 12.5477 1.2929 12.7144C1.38051 13.0929 1.50266 13.4833 1.65597 13.8746Z" fill="white"/>
</svg>
