<svg width="42" height="42" viewBox="0 0 42 42" fill="none" xmlns="http://www.w3.org/2000/svg">
<g id="settings 1" clip-path="url(#clip0_157_111)">
<g id="Group">
<g id="Group_2">
<path id="Vector" d="M26.9755 30.2476C26.5339 29.9822 26.0807 29.7154 25.6275 29.4539C25.7341 28.5458 25.7343 27.6273 25.628 26.721C26.0829 26.4585 26.5359 26.1919 26.9753 25.9277C27.7153 25.483 28.0237 24.5449 27.6926 23.7454L27.6925 23.7453L26.727 21.4141C26.3958 20.6148 25.5148 20.1693 24.6768 20.3781C24.1787 20.502 23.6699 20.6338 23.1629 20.7699C22.5968 20.0536 21.9472 19.4041 21.23 18.8377C21.366 18.3306 21.4979 17.8215 21.6219 17.3233C21.8307 16.4857 21.3852 15.6043 20.5859 15.2732L18.2548 14.3076C17.4555 13.9764 16.5171 14.2845 16.0723 15.0246C15.8074 15.4655 15.5406 15.9187 15.2788 16.3727C14.3709 16.2661 13.4525 16.2658 12.5458 16.3721C12.2831 15.9167 12.0165 15.4637 11.7526 15.0246C11.3076 14.2847 10.3695 13.9764 9.57012 14.3076L7.23896 15.2732C6.43981 15.6043 5.99421 16.4857 6.20298 17.3233C6.32726 17.8225 6.459 18.3314 6.59476 18.8372C5.87855 19.4031 5.22903 20.0529 4.66268 20.7701C4.15442 20.6337 3.64533 20.5019 3.14814 20.3781C2.31027 20.1691 1.42909 20.615 1.09793 21.4142L0.132507 23.7453C-0.198489 24.5447 0.109866 25.4829 0.849624 25.9275C1.29054 26.1924 1.74376 26.4592 2.19764 26.7211C2.09117 27.6289 2.09092 28.5473 2.19715 29.4541C1.74286 29.7162 1.28989 29.9829 0.84946 30.2475C0.109702 30.6922 -0.198653 31.6303 0.132425 32.4298L1.0981 34.7609C1.42917 35.5602 2.31011 36.0058 3.1483 35.797C3.64574 35.6731 4.15466 35.5414 4.66203 35.4052C5.22812 36.1214 5.87773 36.7708 6.59493 37.3373C6.45876 37.845 6.32693 38.3541 6.20298 38.8517C5.99421 39.6893 6.43964 40.5707 7.23896 40.9018L9.5702 41.8675C9.78676 41.9571 10.0134 42 10.2377 42C10.8416 42 11.4283 41.69 11.7529 41.1505C12.0158 40.713 12.2825 40.26 12.5465 39.8026C13.4541 39.909 14.3728 39.9091 15.2794 39.8031C15.5402 40.2552 15.8069 40.7082 16.0727 41.1506C16.5174 41.8905 17.4555 42.1987 18.2551 41.8676L20.5863 40.902C21.3854 40.571 21.831 39.6895 21.6222 38.8519C21.4989 38.357 21.3672 37.8481 21.2305 37.338C21.9465 36.7721 22.5961 36.1224 23.1626 35.4052C23.6694 35.5411 24.1785 35.6729 24.6769 35.7971C25.5145 36.006 26.396 35.5605 26.7271 34.761L27.6927 32.4298C28.0236 31.6304 27.7153 30.6922 26.9755 30.2476ZM25.0291 33.9473C24.5503 33.8273 24.0622 33.7005 23.5769 33.5698C22.8898 33.3849 22.1647 33.6265 21.7296 34.1856C21.2296 34.8279 20.6508 35.4067 20.0096 35.906C19.4512 36.3409 19.2099 37.0658 19.3949 37.7525C19.5264 38.2409 19.6532 38.7286 19.7723 39.2041L17.6295 40.0916C17.3747 39.6663 17.1195 39.2318 16.87 38.7984C16.515 38.182 15.8319 37.8404 15.1296 37.9273C14.3232 38.0275 13.5046 38.0274 12.6971 37.9269C11.9928 37.8395 11.3102 38.1811 10.9554 38.7976C10.7029 39.236 10.4476 39.6708 10.1955 40.0915L8.05271 39.2039C8.17255 38.7259 8.29937 38.2379 8.4303 37.7519C8.61528 37.0649 8.37353 36.3397 7.81449 35.9045C7.17218 35.4046 6.59345 34.8259 6.09405 34.1848C5.65928 33.6262 4.93445 33.385 4.24752 33.5699C3.76165 33.7008 3.27381 33.8276 2.79598 33.9474L1.9084 31.8046C2.33168 31.5508 2.76637 31.2956 3.20162 31.045C3.81809 30.6901 4.16 30.0071 4.07271 29.3047C3.97239 28.4982 3.97264 27.6797 4.07296 26.8721C4.16057 26.1691 3.81891 25.4853 3.20212 25.1303C2.76702 24.8798 2.33226 24.6245 1.90832 24.3703L2.7959 22.2275C3.27332 22.3472 3.76124 22.4741 4.24801 22.6051C4.93478 22.7901 5.65994 22.5483 6.09536 21.9892C6.59534 21.3469 7.17407 20.7681 7.81514 20.2689C8.37361 19.834 8.61487 19.1091 8.42989 18.4222C8.29946 17.9379 8.17264 17.4501 8.05246 16.9707L10.1953 16.0832C10.4483 16.5054 10.7035 16.94 10.9548 17.3765C11.3098 17.9929 11.9936 18.3353 12.6952 18.2475C13.5013 18.1472 14.3197 18.1472 15.128 18.2479C15.8314 18.3355 16.5147 17.9934 16.8696 17.377C17.12 16.9419 17.3754 16.5071 17.6294 16.0832L19.7722 16.9707C19.6523 17.4492 19.5254 17.9372 19.3946 18.4229C19.2096 19.1099 19.4514 19.835 20.0104 20.2702C20.6526 20.7702 21.2314 21.3488 21.7308 21.99C22.1656 22.5484 22.8902 22.7896 23.5775 22.6047C24.063 22.474 24.5508 22.3472 25.0289 22.2273L25.9164 24.37C25.4937 24.6234 25.0591 24.8786 24.6232 25.1297C24.0067 25.4846 23.6647 26.1677 23.7521 26.87C23.8524 27.6761 23.8523 28.4947 23.7517 29.3028C23.6642 30.0059 24.0061 30.6895 24.6226 31.0444C25.057 31.2945 25.4918 31.5498 25.9164 31.8043L25.0291 33.9473Z" fill="white"/>
</g>
</g>
<g id="Group_3">
<g id="Group_4">
<path id="Vector_2" d="M19.8321 25.6356L19.832 25.6355C18.4801 22.3715 14.7251 20.816 11.4606 22.1679C8.19676 23.52 6.64112 27.2754 7.99316 30.5393C8.64801 32.1205 9.87963 33.3519 11.4607 34.0069C12.2512 34.3343 13.0819 34.498 13.9125 34.498C14.7432 34.498 15.5738 34.3343 16.3645 34.0069C19.6284 32.6549 21.1839 28.8996 19.8321 25.6356ZM15.645 32.27C14.5279 32.7327 13.2975 32.7327 12.1801 32.27C11.063 31.8073 10.1929 30.9371 9.73009 29.8199C8.77467 27.5137 9.87389 24.8601 12.1802 23.9049C12.745 23.6709 13.3304 23.5602 13.9067 23.5602C15.6841 23.5602 17.3738 24.6134 18.0952 26.355C19.0505 28.6612 17.9513 31.3147 15.645 32.27Z" fill="white"/>
</g>
</g>
<g id="Group_5">
<g id="Group_6">
<path id="Vector_3" d="M40.733 8.27991C40.4084 8.23134 40.0752 8.18418 39.7395 8.13939C39.5703 7.5769 39.3444 7.03155 39.0657 6.51361C39.2711 6.24496 39.4735 5.97581 39.6692 5.71143C40.1035 5.124 40.0407 4.29089 39.5232 3.7736L38.2264 2.47702C37.7089 1.9594 36.8758 1.89664 36.2885 2.33116C36.0232 2.52746 35.7542 2.72984 35.4863 2.9345C34.9685 2.65576 34.4232 2.42985 33.8605 2.26062C33.8157 1.92495 33.7687 1.59165 33.7201 1.26722C33.6121 0.544852 32.9786 0 32.2467 0H30.4129C29.681 0 29.0475 0.544852 28.9395 1.26714C28.891 1.59141 28.8439 1.92478 28.7991 2.26054C28.2364 2.42977 27.6911 2.65568 27.1733 2.93442C26.9056 2.72967 26.6364 2.52722 26.3712 2.33108C25.7838 1.89656 24.9506 1.95932 24.4333 2.47685L23.1367 3.77336C22.6191 4.29081 22.5561 5.124 22.9907 5.71151C23.1861 5.97581 23.3886 6.24504 23.5939 6.51361C23.3153 7.03147 23.0894 7.57673 22.9201 8.13939C22.5845 8.18426 22.2512 8.23134 21.9267 8.27991C21.2043 8.38802 20.6594 9.02139 20.6594 9.75335V11.5872C20.6594 12.319 21.2041 12.9525 21.9266 13.0606C22.2511 13.1092 22.5844 13.1563 22.92 13.2011C23.0893 13.7637 23.3152 14.309 23.5938 14.8269C23.3887 15.0953 23.1862 15.3644 22.9903 15.6291C22.5561 16.2163 22.6188 17.0496 23.1364 17.5668L24.4331 18.8636C24.9506 19.3812 25.7837 19.4439 26.371 19.0094C26.6363 18.8133 26.9054 18.6108 27.1731 18.4062C27.6911 18.6849 28.2365 18.9108 28.799 19.08C28.8437 19.4156 28.8908 19.7489 28.9394 20.0735C29.0475 20.7958 29.681 21.3407 30.4129 21.3407H32.2467C32.9786 21.3407 33.6121 20.796 33.7201 20.0734C33.7686 19.7489 33.8157 19.4156 33.8605 19.0799C34.4231 18.9108 34.9684 18.6848 35.4863 18.406C35.754 18.6108 36.0232 18.8132 36.2884 19.0094C36.8757 19.4439 37.709 19.3812 38.2263 18.8637L39.5231 17.5671C40.0406 17.0496 40.1035 16.2164 39.6689 15.629C39.4732 15.3644 39.2708 15.0951 39.0657 14.827C39.3443 14.3091 39.5703 13.7639 39.7395 13.2012C40.0751 13.1563 40.4084 13.1093 40.7329 13.0607C41.4553 12.9526 42.0002 12.3192 42.0002 11.5872V9.75343C42.0001 9.02147 41.4553 8.38802 40.733 8.27991ZM40.2141 11.332C39.9195 11.3747 39.6188 11.4162 39.3172 11.4555C38.7206 11.5333 38.2322 11.9568 38.0732 12.5341C37.9208 13.0869 37.6998 13.6204 37.4162 14.1196C37.12 14.6408 37.1657 15.2857 37.5326 15.7629C37.7176 16.0034 37.9011 16.2455 38.0797 16.4847L37.1442 17.4202C36.9042 17.2412 36.6622 17.0577 36.4221 16.8732C35.9452 16.5061 35.3001 16.4607 34.7789 16.7566C34.2796 17.0403 33.7461 17.2613 33.1936 17.4137C32.616 17.5728 32.1925 18.0612 32.1149 18.6577C32.0756 18.9593 32.0342 19.26 31.9914 19.5547H30.6682C30.6255 19.26 30.5841 18.9594 30.5447 18.658C30.4668 18.0613 30.0435 17.5729 29.466 17.4138C28.9133 17.2615 28.38 17.0404 27.8806 16.7568C27.3593 16.4606 26.7142 16.5062 26.2374 16.8732C25.9973 17.0578 25.7554 17.2412 25.5153 17.4202L24.5798 16.4847C24.7584 16.2452 24.9418 16.0033 25.127 15.7626C25.4937 15.2855 25.5394 14.6406 25.2432 14.1195C24.9597 13.6202 24.7386 13.0867 24.5863 12.534C24.4272 11.9565 23.9389 11.5332 23.3423 11.4553C23.0406 11.416 22.7399 11.3746 22.4452 11.3317V10.0087C22.7399 9.96598 23.0405 9.92447 23.3422 9.88518C23.9388 9.80733 24.4272 9.38388 24.5862 8.80655C24.7385 8.25382 24.9595 7.72037 25.2432 7.22105C25.5394 6.6999 25.4937 6.05489 25.1269 5.57788C24.9416 5.33704 24.7582 5.09504 24.5798 4.856L25.5153 3.92044C25.7552 4.09951 25.9972 4.28293 26.2371 4.46742C26.7139 4.83451 27.3589 4.88029 27.8806 4.58407C28.3797 4.30049 28.9132 4.07941 29.4658 3.927C30.0435 3.76786 30.4669 3.27945 30.5445 2.683C30.5839 2.38137 30.6254 2.08072 30.6681 1.78607H31.9913C32.034 2.08064 32.0755 2.38129 32.1148 2.68275C32.1926 3.27945 32.6161 3.76786 33.1935 3.92692C33.7462 4.07925 34.2797 4.30041 34.779 4.58399C35.3003 4.8802 35.9453 4.83418 36.4221 4.4675C36.6622 4.28293 36.9041 4.09951 37.1442 3.92044L38.0797 4.856C37.9012 5.09512 37.7178 5.3372 37.5325 5.57812C37.1658 6.05505 37.1201 6.69998 37.4161 7.22113C37.6997 7.72054 37.9208 8.25407 38.0731 8.80663C38.2322 9.38413 38.7205 9.80749 39.3171 9.88534C39.6187 9.92472 39.9195 9.96614 40.2141 10.009V11.332Z" fill="white"/>
</g>
</g>
<g id="Group_7">
<g id="Group_8">
<path id="Vector_4" d="M31.3298 6.86401C29.231 6.86401 27.5234 8.57149 27.5234 10.6703C27.5234 12.7693 29.2309 14.4768 31.3298 14.4768C33.4286 14.4768 35.1361 12.7693 35.1361 10.6703C35.1361 8.57149 33.4286 6.86401 31.3298 6.86401ZM31.3298 12.7847C30.164 12.7847 29.2154 11.8362 29.2154 10.6703C29.2154 9.50435 30.1639 8.55591 31.3298 8.55591C32.4956 8.55591 33.444 9.50444 33.4441 10.6703C33.4441 11.8362 32.4956 12.7847 31.3298 12.7847Z" fill="white"/>
</g>
</g>
</g>
<defs>
<clipPath id="clip0_157_111">
<rect width="42" height="42" fill="white"/>
</clipPath>
</defs>
</svg>
